<?xml version="1.0" encoding="utf-8"?>
<!-- Generator: Adobe Illustrator 16.0.0, SVG Export Plug-In . SVG Version: 6.00 Build 0)  -->
<!DOCTYPE svg PUBLIC "-//W3C//DTD SVG 1.1//EN" "http://www.w3.org/Graphics/SVG/1.1/DTD/svg11.dtd">
<svg version="1.1" id="レイヤー_1" xmlns="http://www.w3.org/2000/svg" xmlns:xlink="http://www.w3.org/1999/xlink" x="0px"
	 y="0px" width="248px" height="548px" viewBox="0 0 248 548" enable-background="new 0 0 248 548" xml:space="preserve">
<path fill="#949494" d="M133.803,61.954c12.508-5.604,45.916-20.271,68.555-30.266l5.088,11.355
	c-23.316,9.837-53.739,23.316-69.176,30.237c-15.562,6.979-18.276,14.932-12.56,27.691c5.603,12.501,17.313,22.568,38.286,28.335
	l-8.082,8.979c-21.249-6.397-33.988-17.393-40.848-32.702C106.258,85.945,111.479,71.958,133.803,61.954"/>
<path fill="#949494" d="M203.33,213.532c0.27,21.116-10.354,32.302-25.316,32.494c-18.039,0.229-34.182-15.369-37.77-55.179
	l9.168-4.874c3.25,35.343,14.607,48.479,27.891,48.312c9.508-0.123,16.129-7.202,15.936-22.16
	c-0.172-13.705-6.84-31.799-11.561-51.313l10.008-4.464C196.012,177.546,203.145,199.409,203.33,213.532"/>
<path fill="#949494" d="M170.854,379.697l1.926,10.82c-20.139,8.36-36.338,8.532-59.467,1.639l3.015-12.254
	C137.768,386.734,153.084,387.064,170.854,379.697 M128.963,301.312l8.436,5.635c-6.944,5.121-10.446,8.994-12.332,12.746
	c-1.625,3.252-1.688,5.565,0.994,10.19c4.058,6.884,16.992,16.65,32.121,24.228c8.5,4.262,12,2.885,16.197-5.484
	c1.066-2.129,2.133-4.881,3.318-7.883c-18.99-18.586-35.729-39.172-47.16-59.127l9.768-6.996
	c9.735,18.332,24.354,37.229,41.598,54.314c2.568-7.941,5.203-16.943,7.711-25.695l10.754,1.947
	c-3.95,11.315-7.455,22.062-10.782,31.192c8.749,8.138,18.121,15.646,27.688,22.472l-7.021,9.938
	c-8.495-6.444-16.987-13.52-24.987-20.967c-1.066,2.438-1.941,4.496-2.886,6.373C174.555,369.82,167.05,372,152.669,364.8
	c-16.002-8.018-29.687-18.473-35.746-27.608c-5.366-8.006-5.612-14.383-2.604-20.387C116.82,311.809,121.016,307.18,128.963,301.312
	"/>
<path fill="#949494" d="M85.576,444.439c-1.323-8.482-3.117-17.312-5.385-25.39l6.621-8.473
	c11.049,4.695,20.188,11.682,27.432,20.56c7.432,9.1,14.768,20.073,23.604,36.86l-10.438,6
	c-7.954-15.707-14.849-26.141-21.659-34.479c-4.154-5.088-9.223-9.978-14.37-13.177c1.399,6.802,2.876,13.898,4.457,21.812
	L85.576,444.439z M91.369,506.135c-12.502-10.015-21.68-19.484-29.641-29.232c-17.506-21.439-30.437-43.914-18.232-81.131
	l11.988,0.315c-11.885,34.068-0.848,52.679,15.512,72.714c8.047,9.854,16.803,18.59,28.449,28.209L91.369,506.135z"/>
</svg>
