<?xml version="1.0" encoding="utf-8"?>
<!-- Generator: Adobe Illustrator 16.0.0, SVG Export Plug-In . SVG Version: 6.00 Build 0)  -->
<!DOCTYPE svg PUBLIC "-//W3C//DTD SVG 1.1//EN" "http://www.w3.org/Graphics/SVG/1.1/DTD/svg11.dtd">
<svg version="1.1" id="レイヤー_1" xmlns="http://www.w3.org/2000/svg" xmlns:xlink="http://www.w3.org/1999/xlink" x="0px"
	 y="0px" width="293.062px" height="31.496px" viewBox="0 0 293.062 31.496" enable-background="new 0 0 293.062 31.496"
	 xml:space="preserve">
<g>
	<path fill="#FFF9BF" stroke="#FFF9BF" stroke-width="0.25" stroke-miterlimit="10" d="M5.924,4.238c0,0.088-0.011,0.1-0.076,0.1
		c-0.066,0-0.354-0.022-1.247-0.022H2.824c-0.894,0-1.191,0.022-1.247,0.022c-0.065,0-0.077-0.011-0.077-0.1V3.775
		c0-0.066,0.012-0.077,0.077-0.077c0.055,0,0.354,0.022,1.247,0.022H4.6c0.894,0,1.18-0.022,1.247-0.022
		c0.065,0,0.076,0.011,0.076,0.077V4.238z M5.516,2.727c0,0.077-0.012,0.088-0.1,0.088c-0.055,0-0.275-0.022-1.025-0.022H3.243
		c-0.761,0-0.981,0.022-1.037,0.022c-0.077,0-0.088-0.011-0.088-0.088V2.286c0-0.077,0.011-0.088,0.088-0.088
		c0.056,0,0.276,0.022,1.037,0.022H4.39c0.75,0,0.971-0.022,1.025-0.022c0.088,0,0.1,0.011,0.1,0.088L5.516,2.727L5.516,2.727z
		 M5.361,9.754c0,1.28,0.021,1.489,0.021,1.544c0,0.077-0.011,0.088-0.088,0.088H4.81c-0.077,0-0.088-0.011-0.088-0.088v-0.43H2.791
		v0.618c0,0.078-0.011,0.078-0.088,0.078H2.217c-0.077,0-0.088,0-0.088-0.078c0-0.066,0.022-0.265,0.022-1.6V9.214
		c0-0.662-0.022-0.905-0.022-0.96c0-0.077,0.012-0.088,0.088-0.088c0.056,0,0.287,0.022,1.016,0.022h1.037
		c0.728,0,0.96-0.022,1.025-0.022c0.077,0,0.088,0.011,0.088,0.088c0,0.055-0.021,0.287-0.021,0.794V9.754z M5.295,5.728
		c0,0.078-0.011,0.088-0.099,0.088c-0.055,0-0.254-0.022-0.938-0.022H3.265c-0.695,0-0.895,0.022-0.949,0.022
		c-0.077,0-0.088-0.011-0.088-0.088v-0.43c0-0.077,0.011-0.088,0.088-0.088c0.055,0,0.254,0.022,0.949,0.022h0.992
		c0.685,0,0.884-0.022,0.938-0.022c0.088,0,0.099,0.011,0.099,0.088V5.728z M5.295,7.217c0,0.066-0.011,0.077-0.099,0.077
		c-0.055,0-0.254-0.011-0.938-0.011H3.265c-0.695,0-0.895,0.011-0.949,0.011c-0.077,0-0.088-0.011-0.088-0.077v-0.43
		c0-0.077,0.011-0.088,0.088-0.088c0.055,0,0.254,0.022,0.949,0.022h0.992c0.685,0,0.884-0.022,0.938-0.022
		c0.088,0,0.099,0.011,0.099,0.088V7.217z M4.721,8.729H2.791v1.6h1.932L4.721,8.729L4.721,8.729z M6.994,9.832
		c0,0.364,0.022,0.563,0.121,0.651c0.122,0.11,0.562,0.177,1.379,0.177c1.114,0,1.512-0.11,1.721-0.331
		c0.166-0.188,0.276-0.552,0.31-1.368c0.109,0.088,0.265,0.166,0.43,0.221c0.221,0.077,0.221,0.088,0.209,0.298
		c-0.077,0.794-0.221,1.125-0.452,1.379c-0.287,0.298-0.828,0.43-2.295,0.43c-1.069,0-1.622-0.077-1.819-0.254
		c-0.209-0.176-0.266-0.397-0.266-0.982v-2.99c0-0.794-0.021-1.136-0.021-1.202c0-0.078,0.011-0.088,0.088-0.088
		c0.055,0,0.396,0.022,1.18,0.022h2.207V2.992H7.612c-0.883,0-1.158,0.022-1.213,0.022c-0.078,0-0.088-0.011-0.088-0.088V2.44
		c0-0.078,0.011-0.088,0.088-0.088c0.055,0,0.331,0.022,1.213,0.022h1.533c0.883,0,1.169-0.022,1.235-0.022
		c0.077,0,0.089,0.011,0.089,0.088c0,0.055-0.022,0.331-0.022,1.147v2.185c0,0.805,0.022,1.092,0.022,1.147
		c0,0.077-0.012,0.088-0.089,0.088H9.874c-0.078,0-0.088-0.011-0.088-0.088V6.412H6.994V9.832z"/>
	<path fill="#FFF9BF" stroke="#FFF9BF" stroke-width="0.25" stroke-miterlimit="10" d="M15.052,2.187
		c0.476,0.629,0.861,1.037,1.578,1.566c-0.121,0.077-0.221,0.209-0.287,0.353c-0.055,0.1-0.076,0.144-0.109,0.144
		s-0.077-0.044-0.166-0.11c-0.53-0.485-0.949-0.971-1.291-1.467c-0.476,0.783-1.147,1.5-1.942,2.195
		c-0.077,0.055-0.122,0.088-0.166,0.088s-0.077-0.044-0.109-0.144c-0.056-0.144-0.145-0.287-0.254-0.386
		c0.904-0.673,1.556-1.412,1.952-2.129c0.144-0.243,0.209-0.43,0.231-0.596c0.221,0.044,0.441,0.099,0.64,0.176
		c0.066,0.022,0.11,0.066,0.11,0.1c0,0.055-0.022,0.099-0.099,0.143L15.052,2.187z M16.442,6.897c0,0.078-0.011,0.088-0.088,0.088
		c-0.056,0-0.31-0.022-1.147-0.022h-0.254v3.045c0.43-0.144,0.882-0.309,1.324-0.507c-0.033,0.132-0.055,0.275-0.055,0.408
		c0,0.22-0.033,0.231-0.209,0.298c-0.794,0.309-1.645,0.584-2.615,0.86c-0.231,0.066-0.364,0.132-0.408,0.166
		c-0.044,0.033-0.088,0.066-0.143,0.066c-0.044,0-0.11-0.022-0.134-0.088c-0.076-0.188-0.143-0.397-0.209-0.607
		c0.32-0.033,0.52-0.066,0.838-0.144c0.32-0.077,0.662-0.154,1.005-0.253V6.963h-0.431c-0.838,0-1.092,0.022-1.146,0.022
		c-0.077,0-0.088-0.011-0.088-0.088V6.478c0-0.077,0.011-0.088,0.088-0.088c0.055,0,0.309,0.022,1.146,0.022h0.431V5.209H14.27
		c-0.685,0-0.872,0.022-0.938,0.022c-0.077,0-0.088-0.011-0.088-0.1V4.735c0-0.077,0.011-0.088,0.088-0.088
		c0.066,0,0.253,0.022,0.938,0.022h0.85c0.673,0,0.86-0.022,0.927-0.022c0.077,0,0.088,0.011,0.088,0.088v0.397
		c0,0.088-0.011,0.1-0.088,0.1c-0.065,0-0.254-0.022-0.927-0.022h-0.166v1.202h0.254c0.838,0,1.092-0.022,1.147-0.022
		c0.078,0,0.088,0.011,0.088,0.088L16.442,6.897L16.442,6.897z M13.254,7.625c0.121-0.044,0.133-0.044,0.165,0.033
		c0.21,0.607,0.32,1.137,0.397,1.699c0.011,0.077,0.021,0.099-0.11,0.154l-0.265,0.11c-0.11,0.044-0.155,0.044-0.166-0.044
		c-0.066-0.585-0.188-1.147-0.375-1.71c-0.033-0.088-0.022-0.1,0.121-0.155L13.254,7.625z M16.387,7.901
		c-0.056,0.055-0.1,0.122-0.166,0.309c-0.1,0.309-0.231,0.684-0.354,0.971c-0.066,0.188-0.066,0.188-0.221,0.11
		c-0.121-0.055-0.231-0.088-0.342-0.11c0.221-0.496,0.331-0.894,0.43-1.302c0.033-0.121,0.055-0.265,0.055-0.419
		c0.199,0.055,0.452,0.143,0.585,0.198c0.066,0.033,0.1,0.078,0.1,0.11C16.476,7.824,16.454,7.846,16.387,7.901z M19.554,6.015
		c0.188,0.728,0.44,1.401,0.761,2.008c0.364-0.364,0.662-0.717,0.949-1.125c0.099-0.143,0.188-0.275,0.242-0.43
		c0.209,0.122,0.32,0.199,0.475,0.331c0.055,0.055,0.088,0.099,0.088,0.154c0,0.044-0.055,0.088-0.122,0.133
		c-0.099,0.066-0.188,0.143-0.331,0.32c-0.265,0.342-0.618,0.728-1.026,1.092c0.476,0.717,1.093,1.346,1.942,1.875
		c-0.122,0.1-0.232,0.254-0.32,0.408c-0.055,0.1-0.077,0.144-0.122,0.144c-0.032,0-0.076-0.033-0.144-0.088
		c-1.346-1.07-2.041-2.284-2.46-3.784v0.75c0,1.556,0.044,2.272,0.044,2.846c0,0.408-0.044,0.629-0.287,0.794
		c-0.154,0.11-0.419,0.177-1.081,0.188c-0.221,0-0.221,0-0.275-0.221c-0.045-0.176-0.11-0.331-0.222-0.474
		c0.276,0.033,0.441,0.044,0.717,0.044c0.441,0,0.529-0.077,0.529-0.419V9.038c-0.629,0.529-1.136,0.872-1.754,1.247
		c-0.188,0.11-0.32,0.209-0.353,0.265c-0.033,0.056-0.077,0.077-0.11,0.077c-0.044,0-0.077,0-0.122-0.066
		c-0.11-0.155-0.221-0.331-0.331-0.541c0.232-0.088,0.397-0.154,0.596-0.265c0.685-0.386,1.291-0.783,2.074-1.434V6.015h-0.949
		c-1.081,0-1.434,0.022-1.488,0.022c-0.077,0-0.089-0.011-0.089-0.088V5.507c0-0.078,0.012-0.088,0.089-0.088
		c0.055,0,0.407,0.022,1.488,0.022h2.307l0.077-1.059h-1.854c-0.828,0-1.082,0.022-1.146,0.022c-0.077,0-0.089-0.011-0.089-0.088
		v-0.43c0-0.077,0.012-0.088,0.089-0.088c0.065,0,0.319,0.022,1.146,0.022h1.886l0.077-0.993h-2.206
		c-0.872,0-1.159,0.022-1.225,0.022c-0.078,0-0.088-0.011-0.088-0.088V2.319c0-0.077,0.011-0.088,0.088-0.088
		c0.065,0,0.353,0.022,1.225,0.022h1.556c0.883,0,1.169-0.022,1.225-0.022c0.077,0,0.1,0.022,0.1,0.1
		c-0.032,0.275-0.044,0.507-0.065,0.761l-0.177,2.35c0.971,0,1.312-0.022,1.367-0.022c0.088,0,0.1,0.011,0.1,0.088v0.441
		c0,0.077-0.012,0.088-0.1,0.088c-0.055,0-0.407-0.022-1.488-0.022H19.554z M17.193,6.588c0.088-0.066,0.11-0.066,0.176,0
		c0.375,0.43,0.618,0.827,0.851,1.28c0.032,0.066,0.032,0.077-0.077,0.166L17.921,8.21c-0.065,0.044-0.1,0.077-0.132,0.077
		c-0.021,0-0.044-0.033-0.065-0.077c-0.209-0.474-0.464-0.916-0.827-1.313c-0.056-0.055-0.044-0.077,0.065-0.154L17.193,6.588z"/>
	<path fill="#FFF9BF" stroke="#FFF9BF" stroke-width="0.25" stroke-miterlimit="10" d="M29.101,4.382
		c0,0.441-0.331,0.772-0.772,0.772c-0.44,0-0.771-0.331-0.771-0.772c0-0.43,0.331-0.772,0.771-0.772
		C28.77,3.61,29.101,3.952,29.101,4.382z M29.101,8.85c0,0.453-0.331,0.772-0.772,0.772c-0.44,0-0.771-0.32-0.771-0.772
		c0-0.419,0.331-0.772,0.771-0.772C28.77,8.078,29.101,8.431,29.101,8.85z"/>
	<path fill="#FFF9BF" stroke="#FFF9BF" stroke-width="0.25" stroke-miterlimit="10" d="M44.132,5.959
		c0,0.077-0.011,0.088-0.088,0.088c-0.065,0-0.407-0.022-1.467-0.022h-4.81c-0.077,0.254-0.166,0.519-0.254,0.761h3.674
		c1.015,0,1.467-0.022,1.533-0.022c0.077,0,0.088,0.011,0.088,0.1c0,0.055-0.022,0.353-0.022,1.423v1.092
		c0,1.765,0.022,2.052,0.022,2.107c0,0.066-0.012,0.078-0.088,0.078h-0.485c-0.077,0-0.088-0.011-0.088-0.078v-0.441h-4.302v0.474
		c0,0.066-0.012,0.077-0.089,0.077h-0.451c-0.077,0-0.089-0.011-0.089-0.077c0-0.055,0.022-0.408,0.022-2.173V7.46
		c-0.507,1.114-1.225,2.151-2.229,3.034c-0.076,0.066-0.12,0.099-0.166,0.099c-0.032,0-0.076-0.033-0.153-0.121
		c-0.11-0.122-0.243-0.221-0.364-0.287c1.346-1.059,2.338-2.548,2.791-4.159H36.09c-1.059,0-1.4,0.022-1.457,0.022
		c-0.076,0-0.088-0.011-0.088-0.088V5.54c0-0.077,0.012-0.088,0.088-0.088c0.056,0,0.397,0.022,1.457,0.022h2.88V4.636h-1.611
		c-1.114,0-1.489,0.022-1.557,0.022c-0.065,0-0.076-0.011-0.076-0.088V4.172c0-0.077,0.011-0.088,0.076-0.088
		c0.066,0,0.441,0.022,1.557,0.022h1.611V3.334h-2.118c-1.114,0-1.479,0.022-1.545,0.022c-0.077,0-0.089-0.011-0.089-0.088V2.859
		c0-0.077,0.012-0.088,0.089-0.088c0.065,0,0.431,0.022,1.545,0.022h0.838c-0.166-0.276-0.375-0.585-0.618-0.85
		c-0.055-0.066-0.088-0.088,0.055-0.155l0.31-0.154c0.099-0.044,0.122-0.044,0.176,0.011c0.265,0.287,0.618,0.794,0.815,1.147h1.82
		c0.166-0.243,0.287-0.463,0.432-0.784c0.065-0.143,0.109-0.265,0.153-0.441c0.222,0.044,0.431,0.099,0.606,0.166
		c0.078,0.033,0.122,0.055,0.122,0.11c0,0.055-0.044,0.1-0.1,0.133c-0.065,0.044-0.132,0.143-0.188,0.231
		c-0.101,0.166-0.222,0.375-0.375,0.585h1.025c1.114,0,1.479-0.022,1.533-0.022c0.077,0,0.088,0.011,0.088,0.088v0.408
		c0,0.077-0.011,0.088-0.088,0.088c-0.055,0-0.419-0.022-1.533-0.022H39.62v0.772h1.666c1.114,0,1.489-0.022,1.544-0.022
		c0.088,0,0.101,0.011,0.101,0.088v0.397c0,0.077-0.012,0.088-0.101,0.088c-0.055,0-0.43-0.022-1.544-0.022H39.62v0.838h2.957
		c1.06,0,1.401-0.022,1.467-0.022c0.077,0,0.088,0.011,0.088,0.088V5.959z M42.146,7.316h-4.302v0.739h4.302V7.316z M42.146,8.519
		h-4.302v0.75h4.302V8.519z M42.146,9.732h-4.302v0.783h4.302V9.732z"/>
	<path fill="#FFF9BF" stroke="#FFF9BF" stroke-width="0.25" stroke-miterlimit="10" d="M49.3,4.591c0,0.077-0.011,0.088-0.088,0.088
		c-0.055,0-0.287-0.022-1.059-0.022h-0.055v2.262c0.375-0.188,0.761-0.397,1.18-0.651c-0.011,0.154-0.011,0.275,0.011,0.441
		c0.033,0.221,0.022,0.221-0.177,0.331c-0.331,0.177-0.662,0.353-1.015,0.53v2.008c0,1.312,0.021,1.897,0.021,1.953
		c0,0.077-0.011,0.077-0.088,0.077h-0.507c-0.077,0-0.088,0-0.088-0.077c0-0.066,0.021-0.64,0.021-1.942v-1.71
		c-0.319,0.144-0.64,0.298-0.98,0.441c-0.222,0.099-0.32,0.166-0.375,0.221c-0.044,0.044-0.11,0.088-0.154,0.088
		s-0.088-0.022-0.122-0.088c-0.099-0.188-0.188-0.386-0.275-0.629c0.287-0.066,0.606-0.166,0.981-0.309
		c0.309-0.121,0.618-0.243,0.927-0.375v-2.57H46.5c-0.077,0.485-0.177,0.982-0.319,1.423c-0.033,0.122-0.044,0.166-0.089,0.166
		c-0.044,0-0.088-0.022-0.177-0.066c-0.109-0.044-0.287-0.088-0.396-0.11c0.375-1.004,0.507-2.008,0.552-2.857
		c0.021-0.221,0.011-0.419-0.011-0.618c0.188,0.022,0.43,0.055,0.596,0.088c0.099,0.022,0.132,0.066,0.132,0.099
		c0,0.055-0.011,0.077-0.044,0.144c-0.033,0.077-0.055,0.166-0.066,0.298l-0.088,0.849h0.872V3.179c0-0.783-0.011-1.081-0.077-1.511
		c0.276,0.011,0.485,0.022,0.706,0.055c0.077,0.011,0.122,0.044,0.122,0.099c0,0.066-0.021,0.11-0.044,0.199
		c-0.044,0.132-0.065,0.408-0.065,1.136v0.916h0.055c0.772,0,1.004-0.022,1.059-0.022c0.077,0,0.089,0.011,0.089,0.077v0.463H49.3z
		 M53.646,3.863c0.927,0,1.225-0.022,1.279-0.022c0.089,0,0.11,0.033,0.11,0.11c-0.011,0.254-0.021,0.507-0.021,0.75
		c-0.022,2.24-0.121,3.663-0.354,5.097c-0.176,1.092-0.529,1.677-1.412,1.677c-0.254,0-0.629-0.022-0.981-0.055
		c-0.209-0.022-0.209-0.022-0.253-0.254c-0.044-0.209-0.089-0.353-0.166-0.497c0.507,0.088,0.903,0.133,1.302,0.133
		c0.562,0,0.771-0.497,0.882-1.214c0.21-1.357,0.331-2.669,0.353-5.152h-0.573c-0.729,3.089-1.854,5.02-3.949,6.553
		c-0.077,0.055-0.132,0.088-0.166,0.088c-0.044,0-0.088-0.044-0.154-0.132c-0.122-0.154-0.243-0.253-0.375-0.331
		c2.151-1.457,3.365-3.332,4.005-6.178h-1.069c-0.574,1.942-1.324,3.023-2.526,4.027c-0.077,0.066-0.121,0.099-0.154,0.099
		c-0.044,0-0.088-0.044-0.153-0.121c-0.11-0.133-0.254-0.243-0.375-0.298c1.202-0.86,2.106-2.019,2.569-3.707h-1.015
		c-0.253,0.43-0.551,0.85-0.916,1.28c-0.077,0.088-0.11,0.132-0.154,0.132s-0.077-0.033-0.154-0.11
		c-0.121-0.121-0.222-0.188-0.354-0.243c0.905-0.949,1.423-1.941,1.732-2.913c0.109-0.353,0.176-0.629,0.197-0.927
		c0.255,0.044,0.431,0.088,0.641,0.144c0.077,0.022,0.121,0.055,0.121,0.11c0,0.066-0.033,0.11-0.088,0.177
		c-0.077,0.088-0.133,0.265-0.221,0.518c-0.144,0.419-0.298,0.839-0.508,1.258L53.646,3.863L53.646,3.863z"/>
	<path fill="#FFF9BF" stroke="#FFF9BF" stroke-width="0.25" stroke-miterlimit="10" d="M62.411,9.192
		c0,0.088-0.021,0.121-0.121,0.132c-0.109,0.022-0.331,0.044-0.475,0.044c-0.066,0-0.1-0.055-0.1-0.132c0-0.485,0-1.026,0.012-1.588
		c-1.213,0.606-1.81,1.169-1.81,1.831c0,0.651,0.607,0.916,1.887,0.916c0.916,0,1.819-0.11,2.626-0.221
		c0.055-0.011,0.099,0,0.12,0.077c0.033,0.166,0.066,0.386,0.066,0.541c0,0.099-0.044,0.144-0.088,0.154
		c-0.783,0.1-1.688,0.155-2.725,0.155c-1.544,0-2.549-0.397-2.549-1.578c0-0.927,0.607-1.677,2.438-2.571
		c-0.022-0.75-0.276-1.048-0.927-1.037c-0.476,0.011-1.104,0.287-1.811,0.894c-0.396,0.375-0.662,0.662-1.048,1.07
		c-0.066,0.077-0.11,0.077-0.166,0.022c-0.11-0.099-0.298-0.309-0.386-0.43c-0.033-0.066-0.044-0.088,0.021-0.154
		c1.004-0.872,1.92-1.942,2.561-3.067c-0.685,0.044-1.357,0.044-2.052,0.022c-0.089,0-0.11-0.033-0.122-0.11
		C57.743,4.03,57.71,3.787,57.699,3.61c0.805,0.044,1.666,0.044,2.559-0.011c0.133-0.331,0.287-0.695,0.397-1.104
		c0.055-0.188,0.099-0.353,0.088-0.596c0.32,0.055,0.64,0.155,0.828,0.243c0.11,0.055,0.11,0.165,0.021,0.243
		c-0.044,0.044-0.109,0.121-0.198,0.309c-0.132,0.276-0.231,0.507-0.375,0.838c0.771-0.077,1.566-0.198,2.328-0.364
		c0.088-0.022,0.109-0.022,0.132,0.044c0.021,0.154,0.055,0.309,0.065,0.485c0,0.077-0.021,0.11-0.143,0.132
		c-0.872,0.155-1.811,0.276-2.692,0.364c-0.375,0.673-0.729,1.191-1.125,1.644l0.012,0.022c0.463-0.331,0.948-0.475,1.379-0.475
		c0.815,0,1.302,0.43,1.39,1.291c0.541-0.243,1.169-0.53,1.721-0.794c0.32-0.155,0.607-0.331,0.838-0.563
		c0.255,0.221,0.476,0.508,0.541,0.64c0.089,0.166,0,0.231-0.109,0.254c-0.132,0.022-0.354,0.077-0.607,0.176
		c-0.838,0.353-1.534,0.607-2.339,0.949v1.855H62.411z"/>
	<path fill="#FFF9BF" stroke="#FFF9BF" stroke-width="0.25" stroke-miterlimit="10" d="M77.321,5.397
		c0,0.077-0.011,0.088-0.088,0.088c-0.055,0-0.408-0.022-1.435-0.022h-2.207c-0.573,0.441-1.158,0.828-1.765,1.169
		c-0.044,0.144-0.088,0.298-0.144,0.441c1.081-0.166,2.019-0.364,2.747-0.541c0.463-0.11,0.617-0.166,0.826-0.309
		c0.188,0.122,0.364,0.265,0.52,0.419c0.055,0.055,0.088,0.121,0.088,0.166c0,0.055-0.055,0.11-0.166,0.11
		c-0.154,0-0.397,0.044-0.519,0.066c-1.081,0.232-2.316,0.475-3.696,0.651c-0.077,0.199-0.144,0.397-0.22,0.585h3.021
		c0.96,0,1.28-0.022,1.335-0.022c0.077,0,0.1,0.022,0.1,0.1c-0.033,0.287-0.056,0.596-0.089,0.86
		c-0.109,0.905-0.242,1.511-0.407,1.787c-0.199,0.386-0.563,0.53-0.982,0.53c-0.287,0-0.53-0.011-0.927-0.044
		c-0.222-0.022-0.209-0.022-0.254-0.243c-0.044-0.188-0.11-0.353-0.198-0.485c0.474,0.077,0.849,0.11,1.191,0.11
		c0.298,0,0.484-0.055,0.629-0.342c0.088-0.166,0.242-0.993,0.287-1.677h-3.95c-0.1,0.243-0.221,0.474-0.331,0.706
		c-0.033,0.066-0.044,0.077-0.155,0.055l-0.441-0.099c-0.109-0.033-0.132-0.055-0.088-0.121c0.441-0.761,0.794-1.512,1.049-2.284
		c-0.949,0.474-1.941,0.86-3,1.225c-0.199,0.077-0.199,0.077-0.32-0.11c-0.088-0.144-0.21-0.254-0.342-0.353
		c2.041-0.596,3.772-1.324,5.229-2.35h-3.441c-1.037,0-1.38,0.022-1.435,0.022c-0.077,0-0.088-0.011-0.088-0.088V4.944
		c0-0.077,0.011-0.088,0.088-0.088c0.055,0,0.397,0.022,1.435,0.022h2.516v-1.18h-1.136c-1.016,0-1.347,0.022-1.412,0.022
		c-0.078,0-0.088-0.011-0.088-0.088V3.179c0-0.077,0.011-0.088,0.088-0.088c0.065,0,0.396,0.022,1.412,0.022h1.136v-0.21
		c0-0.584-0.011-0.894-0.088-1.247c0.287,0.011,0.519,0.033,0.739,0.066c0.076,0.011,0.143,0.055,0.143,0.099
		c0,0.066-0.022,0.11-0.055,0.199c-0.056,0.132-0.077,0.375-0.077,0.872v0.221h0.508c1.015,0,1.335-0.022,1.401-0.022
		c0.076,0,0.088,0.011,0.088,0.088v0.453c0,0.077-0.012,0.088-0.088,0.088c-0.066,0-0.387-0.022-1.401-0.022h-0.508v1.181h1.015
		c0.685-0.552,1.291-1.181,1.875-1.909c0.231-0.298,0.331-0.485,0.43-0.739c0.255,0.11,0.476,0.243,0.641,0.353
		c0.065,0.044,0.099,0.1,0.099,0.155c0,0.044-0.044,0.088-0.099,0.11c-0.155,0.066-0.31,0.209-0.508,0.441
		c-0.508,0.585-1.016,1.125-1.544,1.589h1.533c1.026,0,1.379-0.022,1.435-0.022c0.077,0,0.088,0.011,0.088,0.088v0.452H77.321z"/>
	<path fill="#FFF9BF" stroke="#FFF9BF" stroke-width="0.25" stroke-miterlimit="10" d="M82.345,5.088
		c0.882-0.144,1.544-0.276,2.052-0.397c0.166-0.044,0.254-0.078,0.342-0.132c0.044-0.033,0.077-0.044,0.132-0.044
		c0.044,0,0.066,0.022,0.121,0.055c0.133,0.099,0.287,0.221,0.408,0.353c0.055,0.055,0.078,0.132,0.078,0.166
		c0,0.066-0.044,0.144-0.122,0.177c-0.132,0.066-0.243,0.154-0.386,0.287c-0.795,0.805-1.545,1.611-2.328,2.438
		c0.221-0.099,0.407-0.154,0.65-0.154c0.574,0,1.016,0.43,1.169,1.225c0.209,1.037,0.419,1.202,1.611,1.202
		c0.562,0,1.07-0.066,1.632-0.165c0.088-0.022,0.122,0.011,0.133,0.11c0.022,0.132,0.044,0.353,0.044,0.541
		c0,0.077-0.044,0.11-0.144,0.121c-0.496,0.088-1.07,0.144-1.578,0.144c-1.588,0-2.074-0.353-2.294-1.457
		c-0.154-0.783-0.342-1.202-0.85-1.202c-0.354,0-0.816,0.209-1.247,0.64c-0.562,0.541-1.213,1.313-1.71,1.897
		c-0.044,0.044-0.11,0.055-0.177,0.011c-0.154-0.122-0.309-0.265-0.431-0.386c-0.055-0.055-0.033-0.144,0.022-0.199
		c0.815-0.827,1.609-1.644,2.106-2.151c0.695-0.729,1.511-1.633,2.592-2.802c-1.18,0.243-2.106,0.43-3.044,0.629
		c-0.231,0.055-0.363,0.121-0.453,0.154c-0.099,0.044-0.132,0.055-0.197,0.055c-0.056,0-0.101-0.044-0.145-0.132
		c-0.088-0.177-0.199-0.452-0.287-0.761C80.79,5.309,81.319,5.253,82.345,5.088z M85.015,2.804c0.099,0.022,0.109,0.055,0.088,0.166
		c-0.044,0.166-0.11,0.386-0.166,0.507c-0.022,0.055-0.077,0.088-0.144,0.078c-0.938-0.221-2.029-0.541-2.802-0.905
		c-0.055-0.022-0.088-0.066-0.066-0.144c0.045-0.166,0.133-0.375,0.222-0.596C83.084,2.297,84.077,2.595,85.015,2.804z"/>
	<path fill="#FFF9BF" stroke="#FFF9BF" stroke-width="0.25" stroke-miterlimit="10" d="M93.15,6.654
		c0.794-0.519,1.578-0.783,2.372-0.783c1.589,0,2.569,0.982,2.569,2.416c0,1.644-1.302,2.835-3.64,2.835
		c-1.324,0-1.92-0.596-1.92-1.302c0-0.574,0.508-1.125,1.291-1.125c0.993,0,1.666,0.64,1.875,1.578
		c0.949-0.309,1.61-0.927,1.61-2.008c0-1.125-0.86-1.809-1.908-1.809c-1.092,0-2.186,0.562-3.034,1.247
		c-0.353,0.276-0.64,0.574-0.971,0.904c-0.088,0.088-0.145,0.1-0.222,0.022c-0.132-0.132-0.298-0.298-0.407-0.441
		c-0.044-0.055-0.033-0.099,0.044-0.166c0.871-0.761,1.434-1.324,2.493-2.46c0.64-0.695,1.302-1.401,2.15-2.405
		c-0.916,0.144-1.775,0.309-2.758,0.497c-0.145,0.022-0.276,0.055-0.386,0.099c-0.077,0.033-0.166,0.055-0.209,0.055
		c-0.077,0-0.133-0.044-0.177-0.132c-0.1-0.199-0.177-0.408-0.265-0.761c0.364,0.044,0.673,0.044,0.971,0.011
		c0.871-0.088,1.776-0.21,2.747-0.397c0.134-0.022,0.266-0.055,0.343-0.099c0.044-0.033,0.109-0.077,0.153-0.077
		c0.056,0,0.11,0.022,0.199,0.088c0.209,0.165,0.375,0.331,0.474,0.463c0.056,0.066,0.077,0.133,0.077,0.188
		c0,0.088-0.055,0.165-0.165,0.209c-0.144,0.044-0.265,0.121-0.519,0.386c-0.982,1.037-1.721,1.809-2.824,2.935L93.15,6.654z
		 M93.846,9.291c-0.354,0-0.674,0.177-0.674,0.519c0,0.364,0.397,0.673,1.137,0.673c0.242,0,0.463-0.011,0.717-0.055
		C94.883,9.799,94.475,9.291,93.846,9.291z"/>
	<path fill="#FFF9BF" stroke="#FFF9BF" stroke-width="0.25" stroke-miterlimit="10" d="M106.317,3.764
		c0.088-0.022,0.122,0,0.132,0.077c0.022,0.132,0.044,0.32,0.055,0.452c0.012,0.11-0.011,0.144-0.109,0.166
		c-0.718,0.199-1.324,0.342-1.997,0.453c-0.662,2.239-1.335,4.159-2.118,5.946c-0.044,0.099-0.088,0.099-0.166,0.066
		c-0.088-0.033-0.375-0.166-0.519-0.243c-0.056-0.033-0.066-0.088-0.045-0.144c0.916-1.941,1.545-3.663,2.063-5.505
		c-0.717,0.077-1.479,0.122-2.229,0.132c-0.132,0-0.154-0.011-0.177-0.11c-0.021-0.154-0.055-0.386-0.088-0.606
		c0.21,0.022,0.397,0.022,0.695,0.022c0.519,0,1.28-0.044,1.985-0.132c0.154-0.585,0.243-0.982,0.32-1.39
		c0.055-0.309,0.11-0.673,0.088-1.037c0.31,0.055,0.651,0.154,0.882,0.254c0.056,0.022,0.089,0.066,0.089,0.121
		c0,0.055-0.033,0.11-0.089,0.177c-0.076,0.099-0.12,0.198-0.176,0.43c-0.132,0.452-0.231,0.905-0.353,1.324
		C105.082,4.128,105.699,3.962,106.317,3.764z M105.765,8.817c0.088,0,0.109,0.022,0.122,0.11c0.076,0.993,0.694,1.324,2.085,1.324
		c0.562,0,1.181-0.077,1.633-0.144c0.088-0.011,0.122-0.011,0.132,0.077c0.021,0.132,0.044,0.375,0.044,0.53
		c0,0.11-0.033,0.132-0.121,0.144c-0.342,0.055-0.916,0.11-1.445,0.11c-1.19,0-1.931-0.154-2.427-0.606
		c-0.386-0.331-0.53-0.828-0.541-1.489C105.435,8.839,105.644,8.817,105.765,8.817z M106.041,5.981c0-0.099,0.022-0.132,0.145-0.166
		c0.64-0.143,1.279-0.231,1.931-0.231c0.452,0,0.938,0.055,1.368,0.11c0.133,0.022,0.155,0.055,0.166,0.121
		c0.011,0.11,0.021,0.342,0.011,0.485c-0.011,0.132-0.044,0.166-0.144,0.144c-0.475-0.077-0.949-0.121-1.412-0.121
		c-0.685,0-1.368,0.099-2.03,0.243C106.052,6.379,106.041,6.114,106.041,5.981z"/>
	<path fill="#FFF9BF" stroke="#FFF9BF" stroke-width="0.25" stroke-miterlimit="10" d="M117.442,3.102
		c0.065-0.298,0.088-0.529,0.055-0.816c0.386,0.088,0.651,0.221,0.851,0.331c0.143,0.088,0.132,0.199,0.044,0.309
		c-0.11,0.132-0.145,0.221-0.222,0.43c-0.099,0.265-0.209,0.541-0.386,1.015c1.909,0.122,3.089,1.302,3.089,3.012
		c0,1.963-1.511,2.989-3.365,3.42c-0.153,0.033-0.209,0-0.286-0.11c-0.11-0.155-0.266-0.298-0.464-0.408
		c1.976-0.353,3.365-1.335,3.365-2.924c0-1.026-0.596-2.394-2.525-2.427c-0.541,1.357-1.104,2.427-1.71,3.365
		c0.166,0.253,0.363,0.485,0.617,0.761c-0.121,0.154-0.221,0.265-0.363,0.364c-0.056,0.044-0.133,0.055-0.21-0.022
		c-0.144-0.154-0.31-0.342-0.475-0.562c-0.694,0.816-1.312,1.225-1.909,1.225c-0.562,0-1.157-0.475-1.157-1.589
		c0-1.092,0.562-2.096,1.577-2.967c-0.109-0.431-0.242-1.004-0.353-1.49c-0.1-0.441-0.188-0.75-0.32-1.026
		c0.32,0.011,0.618,0.055,0.794,0.11c0.133,0.044,0.145,0.11,0.133,0.232c-0.012,0.154,0.011,0.298,0.044,0.519
		c0.088,0.474,0.188,0.938,0.275,1.291c0.706-0.408,1.677-0.728,2.526-0.783C117.222,3.952,117.343,3.543,117.442,3.102z
		 M113.051,8.419c0,0.574,0.243,0.916,0.541,0.916c0.397,0,0.86-0.265,1.479-1.07c-0.386-0.673-0.706-1.423-0.927-2.118
		C113.471,6.787,113.051,7.658,113.051,8.419z M115.512,7.713c0.396-0.606,0.927-1.688,1.346-2.758
		c-0.706,0.066-1.566,0.375-2.173,0.772C114.905,6.434,115.214,7.195,115.512,7.713z"/>
	<path fill="#FFF9BF" stroke="#FFF9BF" stroke-width="0.25" stroke-miterlimit="10" d="M128.082,3.83
		c-0.198,1.865-0.761,3.696-1.456,4.821c-0.474,0.805-0.971,1.136-1.622,1.136c-0.828,0-1.61-0.905-1.61-2.504
		c0-1.015,0.463-2.096,1.279-2.857c0.817-0.761,1.919-1.225,3.311-1.225c2.471,0,3.938,1.445,3.938,3.553
		c0,1.798-1.113,3.243-3.508,3.85c-0.132,0.033-0.209,0.011-0.287-0.122c-0.065-0.11-0.209-0.275-0.43-0.408
		c2.184-0.43,3.442-1.61,3.442-3.453c0-1.633-1.27-2.792-2.847-2.792L128.082,3.83L128.082,3.83z M125.159,4.889
		c-0.739,0.729-1.059,1.633-1.059,2.383c0,1.202,0.497,1.721,0.894,1.721c0.375,0,0.706-0.243,1.026-0.805
		c0.562-0.993,1.146-2.703,1.291-4.313C126.45,3.985,125.688,4.36,125.159,4.889z"/>
	<path fill="#FFF9BF" stroke="#FFF9BF" stroke-width="0.25" stroke-miterlimit="10" d="M137.299,4.194
		c0,0.088-0.011,0.099-0.088,0.099c-0.055,0-0.298-0.022-1.104-0.022h-1.081c-0.816,0-1.048,0.022-1.104,0.022
		c-0.076,0-0.088-0.011-0.088-0.099V3.731c0-0.077,0.012-0.077,0.088-0.077c0.056,0,0.287,0.022,1.104,0.022h1.081
		c0.806,0,1.048-0.022,1.104-0.022c0.077,0,0.088,0,0.088,0.077V4.194z M136.979,2.716c0,0.078-0.012,0.088-0.088,0.088
		c-0.056,0-0.254-0.022-0.928-0.022h-0.729c-0.673,0-0.871,0.022-0.926,0.022c-0.078,0-0.088-0.011-0.088-0.088v-0.43
		c0-0.077,0.011-0.088,0.088-0.088c0.055,0,0.253,0.022,0.926,0.022h0.729c0.674,0,0.872-0.022,0.928-0.022
		c0.076,0,0.088,0.011,0.088,0.088V2.716z M136.924,9.909c0,0.584,0.022,0.772,0.022,0.827c0,0.077-0.011,0.099-0.077,0.088
		c-0.065,0-0.265-0.022-0.894-0.022h-1.104v0.628c0,0.078-0.011,0.088-0.077,0.088h-0.453c-0.076,0-0.088-0.011-0.088-0.088
		c0-0.066,0.022-0.253,0.022-1.224V9.214c0-0.706-0.022-0.938-0.022-1.004c0-0.077,0.012-0.088,0.088-0.088
		c0.056,0,0.287,0.022,0.949,0.022h0.685c0.629,0,0.828-0.022,0.894-0.022c0.066,0,0.077,0.011,0.077,0.088
		c0,0.055-0.022,0.287-0.022,0.85V9.909L136.924,9.909z M136.836,5.684c0,0.077-0.011,0.088-0.1,0.088
		c-0.055,0-0.221-0.022-0.827-0.022h-0.64c-0.618,0-0.783,0.022-0.838,0.022c-0.077,0-0.089-0.011-0.089-0.088v-0.43
		c0-0.077,0.012-0.088,0.089-0.088c0.055,0,0.221,0.022,0.838,0.022h0.64c0.606,0,0.772-0.022,0.827-0.022
		c0.088,0,0.1,0.011,0.1,0.088V5.684z M136.836,7.184c0,0.066-0.011,0.077-0.1,0.077c-0.055,0-0.221-0.021-0.827-0.021h-0.64
		c-0.618,0-0.783,0.021-0.838,0.021c-0.077,0-0.089-0.011-0.089-0.077V6.743c0-0.077,0.012-0.088,0.089-0.088
		c0.055,0,0.221,0.022,0.838,0.022h0.64c0.606,0,0.772-0.022,0.827-0.022c0.088,0,0.1,0.011,0.1,0.088V7.184z M136.339,8.685h-1.467
		v1.588h1.467V8.685z M143.212,8.85c0,0.629,0.022,1.137,0.022,1.611c0,0.342-0.077,0.552-0.298,0.739
		c-0.154,0.132-0.375,0.199-1.303,0.188c-0.166,0-0.188-0.011-0.221-0.176c-0.044-0.199-0.122-0.386-0.209-0.519
		c0.342,0.033,0.629,0.055,1.004,0.044c0.276,0,0.375-0.144,0.375-0.497V2.683h-4.147v2.229c0,2.912-0.155,5.008-0.928,6.41
		c-0.044,0.099-0.088,0.143-0.132,0.143c-0.033,0-0.078-0.033-0.144-0.099c-0.11-0.11-0.243-0.199-0.364-0.254
		c0.861-1.335,0.949-3.563,0.949-6.266V3.621c0-0.96-0.022-1.39-0.022-1.456c0-0.077,0.012-0.088,0.088-0.088
		c0.056,0,0.408,0.022,1.435,0.022h2.383c1.037,0,1.39-0.022,1.445-0.022c0.077,0,0.088,0.011,0.088,0.088
		c0,0.066-0.022,0.496-0.022,1.456L143.212,8.85L143.212,8.85z M142.286,6.235c0,0.077-0.011,0.088-0.077,0.088
		c-0.065,0-0.319-0.022-1.069-0.022h-1.291c-0.685,0-0.949,0.022-1.005,0.022c-0.077,0-0.088-0.011-0.088-0.088V5.882
		c0-0.077,0.012-0.088,0.088-0.088c0.056,0,0.32,0.022,1.005,0.022h0.319V4.668h-0.177c-0.629,0-0.849,0.022-0.916,0.022
		c-0.077,0-0.077-0.011-0.077-0.088V4.238c0-0.077,0-0.088,0.077-0.088c0.066,0,0.287,0.022,0.916,0.022h0.177V4.018
		c0-0.452-0.011-0.684-0.065-0.993c0.21,0.011,0.43,0.033,0.618,0.066c0.076,0.011,0.12,0.044,0.12,0.099s-0.021,0.099-0.055,0.166
		c-0.044,0.088-0.055,0.221-0.055,0.64v0.177h0.275c0.685,0,0.905-0.022,0.972-0.022c0.077,0,0.088,0.011,0.088,0.088v0.364
		c0,0.077-0.011,0.088-0.088,0.088c-0.066,0-0.287-0.022-0.972-0.022h-0.275v1.147h0.408c0.75,0,1.004-0.022,1.069-0.022
		c0.066,0,0.077,0.011,0.077,0.088V6.235L142.286,6.235z M141.745,8.563c0,1.125,0.022,1.324,0.022,1.379
		c0,0.077-0.012,0.088-0.088,0.088h-0.387c-0.077,0-0.088-0.011-0.088-0.088V9.534h-1.534v0.53c0,0.077-0.011,0.088-0.088,0.088
		h-0.386c-0.078,0-0.088-0.011-0.088-0.088c0-0.066,0.021-0.254,0.021-1.445V8.056c0-0.574-0.021-0.783-0.021-0.838
		c0-0.078,0.011-0.088,0.088-0.088c0.066,0,0.253,0.022,0.882,0.022h0.729c0.617,0,0.806-0.022,0.872-0.022
		c0.076,0,0.088,0.011,0.088,0.088c0,0.055-0.022,0.265-0.022,0.717V8.563z M141.205,7.658h-1.534v1.368h1.534V7.658z"/>
	<path fill="#FFF9BF" stroke="#FFF9BF" stroke-width="0.25" stroke-miterlimit="10" d="M145.876,6.787
		c0.553-0.463,1.247-1.07,1.986-1.743c0.331-0.32,0.562-0.408,0.816-0.408c0.342,0,0.519,0.121,0.815,0.364
		c0.882,0.706,1.655,1.346,2.561,2.008c0.849,0.596,1.544,1.048,2.427,1.522c0.077,0.044,0.1,0.088,0.077,0.144
		c-0.077,0.199-0.209,0.441-0.32,0.607c-0.055,0.077-0.11,0.088-0.188,0.033c-0.64-0.397-1.588-1.026-2.339-1.588
		c-0.827-0.618-1.654-1.324-2.46-1.997c-0.221-0.198-0.386-0.309-0.562-0.309c-0.154,0-0.287,0.099-0.475,0.276
		c-0.65,0.618-1.456,1.379-1.997,1.886c-0.176,0.177-0.274,0.276-0.363,0.397c-0.077,0.11-0.166,0.11-0.254,0.022
		c-0.166-0.155-0.419-0.475-0.574-0.695C145.335,7.184,145.578,7.041,145.876,6.787z M151.789,3.599
		c0.033-0.022,0.066-0.022,0.11,0.011c0.44,0.309,0.927,0.85,1.247,1.335c0.033,0.044,0.021,0.088-0.022,0.122l-0.319,0.265
		c-0.056,0.044-0.11,0.033-0.145-0.022c-0.32-0.541-0.783-1.059-1.28-1.412L151.789,3.599z M152.705,2.881
		c0.044-0.033,0.077-0.044,0.121-0.011c0.441,0.342,0.938,0.827,1.258,1.291c0.033,0.055,0.022,0.088-0.033,0.132l-0.298,0.265
		c-0.044,0.044-0.088,0.044-0.132-0.022c-0.275-0.452-0.75-0.993-1.269-1.379L152.705,2.881z"/>
	<path fill="#FFF9BF" stroke="#FFF9BF" stroke-width="0.25" stroke-miterlimit="10" d="M159.572,8.938
		c0,1.125,0.596,1.512,1.71,1.512c1.191,0,2.207-0.541,2.207-1.699c0-0.584-0.188-1.147-1.015-1.975
		c0.265,0.022,0.44-0.011,0.684-0.044c0.077-0.011,0.132-0.011,0.188,0.033c0.673,0.662,0.916,1.346,0.916,1.997
		c0,1.489-1.258,2.394-2.857,2.394c-1.721,0-2.526-0.75-2.526-2.207c0-0.397,0.066-0.905,0.11-1.368
		c-0.706-0.088-1.225-0.188-1.754-0.342c-0.055-0.011-0.088-0.044-0.099-0.144c-0.022-0.199-0.022-0.419-0.012-0.618
		c0.673,0.243,1.226,0.342,1.953,0.419c0.101-0.684,0.188-1.324,0.254-1.897c-0.717-0.077-1.312-0.166-1.875-0.353
		c-0.077-0.022-0.088-0.033-0.099-0.143c-0.011-0.166-0.022-0.397-0.022-0.618c0.706,0.254,1.401,0.353,2.118,0.43
		c0.088-0.596,0.121-0.86,0.166-1.334c0.044-0.32,0.055-0.629,0.011-0.938c0.32,0.055,0.674,0.177,0.86,0.265
		c0.1,0.044,0.166,0.11,0.166,0.177c0,0.055-0.033,0.099-0.077,0.154c-0.088,0.1-0.144,0.221-0.198,0.519
		c-0.077,0.43-0.133,0.75-0.198,1.213c0.484,0.033,1.048,0.022,1.544-0.022c0.044,0,0.065,0.022,0.065,0.088
		c0,0.166,0,0.353-0.011,0.507c0,0.088-0.044,0.11-0.11,0.11c-0.519,0.033-1.136,0.033-1.61,0.011
		c-0.088,0.541-0.188,1.213-0.287,1.886c0.618,0.022,1.203,0.033,1.787-0.022c0.099-0.011,0.132,0.011,0.132,0.077
		c0,0.122-0.011,0.353-0.022,0.485c-0.011,0.1-0.044,0.122-0.099,0.122c-0.574,0.044-1.269,0.033-1.887,0.011
		C159.638,8.066,159.572,8.596,159.572,8.938z"/>
	<path fill="#FFF9BF" stroke="#FFF9BF" stroke-width="0.25" stroke-miterlimit="10" d="M172.23,3.83
		c-0.198,1.865-0.763,3.696-1.456,4.821c-0.475,0.805-0.971,1.136-1.622,1.136c-0.828,0-1.611-0.905-1.611-2.504
		c0-1.015,0.463-2.096,1.28-2.857c0.817-0.761,1.919-1.225,3.309-1.225c2.473,0,3.939,1.445,3.939,3.553
		c0,1.798-1.115,3.243-3.509,3.85c-0.132,0.033-0.21,0.011-0.286-0.122c-0.066-0.11-0.21-0.275-0.432-0.408
		c2.186-0.43,3.442-1.61,3.442-3.453c0-1.633-1.27-2.792-2.847-2.792L172.23,3.83L172.23,3.83z M169.307,4.889
		c-0.739,0.729-1.06,1.633-1.06,2.383c0,1.202,0.497,1.721,0.895,1.721c0.375,0,0.706-0.243,1.025-0.805
		c0.562-0.993,1.146-2.703,1.291-4.313C170.598,3.985,169.837,4.36,169.307,4.889z"/>
</g>
<g>
	<path fill="#FFF9BF" stroke="#FFF9BF" stroke-width="0.25" stroke-miterlimit="10" d="M1.981,18.774
		c0-0.108,0.031-0.194,0.094-0.258h0.012c0.017-0.017,0.027-0.026,0.035-0.035l0.012-0.013c0.031-0.022,0.064-0.04,0.101-0.053
		c0.036-0.012,0.072-0.018,0.111-0.018h3.62c0.039,0,0.078,0.008,0.117,0.023l1.195,0.41c0.016,0.008,0.035,0.016,0.059,0.022
		c0.024,0.007,0.045,0.021,0.064,0.035c0.019,0.015,0.033,0.026,0.041,0.034l0.387,0.388c0.023,0.022,0.047,0.051,0.07,0.082
		c0.008,0.008,0.012,0.017,0.012,0.022l0.387,0.773c0.031,0.062,0.048,0.125,0.048,0.188v0.81c0,0.056-0.017,0.108-0.048,0.164
		l-0.387,0.797c-0.008,0.017-0.02,0.033-0.035,0.054c-0.015,0.02-0.026,0.03-0.035,0.034c-0.008,0.005-0.016,0.011-0.022,0.019
		L7.43,22.653c-0.031,0.031-0.078,0.06-0.142,0.082l-1.194,0.397c-0.017,0.009-0.029,0.015-0.041,0.019
		C6.041,23.155,6.024,23.162,6,23.167c-0.016,0-0.026,0-0.035,0H5.836L8.297,27c0,0.008,0.004,0.017,0.013,0.023
		c0.022,0.055,0.035,0.121,0.035,0.199c0,0.102-0.037,0.189-0.111,0.264c-0.074,0.075-0.17,0.111-0.287,0.111
		c-0.125,0-0.227-0.066-0.305-0.199l-2.695-4.23H2.719v4.043c0,0.047-0.011,0.095-0.029,0.142c-0.02,0.047-0.047,0.088-0.082,0.123
		c-0.035,0.034-0.074,0.062-0.117,0.082s-0.092,0.028-0.146,0.028c-0.095,0-0.179-0.037-0.253-0.11
		c-0.073-0.074-0.11-0.162-0.11-0.265L1.981,18.774L1.981,18.774z M2.719,19.137v3.28h3.198l1.043-0.352l0.306-0.305l0.34-0.668
		V20.46l-0.34-0.668L6.961,19.5l-1.043-0.362H2.719z"/>
	<path fill="#FFF9BF" stroke="#FFF9BF" stroke-width="0.25" stroke-miterlimit="10" d="M11.964,21.21h1.207
		c0.062,0,0.121,0.021,0.177,0.06l0.797,0.388c0.03,0.016,0.062,0.038,0.094,0.069l0.398,0.397c0.022,0.023,0.047,0.051,0.069,0.082
		c0.008,0.008,0.012,0.017,0.012,0.023l0.388,0.797c0.022,0.039,0.037,0.068,0.041,0.088s0.006,0.045,0.006,0.076V24
		c0,0.103-0.037,0.189-0.111,0.265s-0.158,0.11-0.252,0.11h-4.453v0.375l0.353,1.043l0.703,0.715l0.668,0.341h1.03l0.668-0.341
		l0.773-0.762c0.008-0.008,0.018-0.018,0.029-0.029c0.011-0.01,0.022-0.021,0.035-0.028c0.012-0.008,0.024-0.015,0.041-0.019
		c0.016-0.004,0.028-0.01,0.04-0.018c0.013-0.008,0.025-0.014,0.041-0.018c0.017-0.004,0.031-0.006,0.048-0.006
		c0.055,0,0.104,0.012,0.151,0.035c0.047,0.022,0.086,0.051,0.117,0.082c0.031,0.03,0.059,0.069,0.082,0.116
		c0.023,0.048,0.035,0.095,0.035,0.142s-0.008,0.092-0.023,0.135c-0.015,0.043-0.039,0.084-0.069,0.123
		c0,0.008-0.004,0.012-0.013,0.012l-0.809,0.797c-0.031,0.031-0.062,0.055-0.094,0.07l-0.785,0.398
		c-0.062,0.03-0.125,0.047-0.188,0.047h-1.207c-0.055,0-0.112-0.017-0.176-0.047l-0.785-0.398c-0.016-0.008-0.03-0.018-0.047-0.029
		c-0.016-0.011-0.031-0.025-0.047-0.041l-0.809-0.797c-0.031-0.031-0.06-0.078-0.082-0.141v-0.012l-0.397-1.17
		c-0.022-0.062-0.035-0.105-0.035-0.13v-0.022V24c0-0.047,0.013-0.098,0.035-0.151l0.398-1.173c0.022-0.069,0.059-0.125,0.104-0.163
		l0.785-0.785c0.016-0.017,0.029-0.028,0.041-0.041s0.029-0.021,0.053-0.028l0.785-0.388c0.039-0.03,0.07-0.049,0.094-0.054
		C11.905,21.212,11.933,21.21,11.964,21.21z M12.058,21.96L11.39,22.3l-0.703,0.703l-0.211,0.621h3.938v-0.34l-0.34-0.668
		L13.758,22.3l-0.668-0.34H12.058z"/>
	<path fill="#FFF9BF" stroke="#FFF9BF" stroke-width="0.25" stroke-miterlimit="10" d="M18.044,18.399
		c0.095,0,0.181,0.037,0.258,0.11c0.078,0.074,0.117,0.162,0.117,0.265v2.438h1.242c0.103,0,0.188,0.039,0.258,0.117
		c0.07,0.078,0.105,0.164,0.105,0.258c0,0.102-0.037,0.188-0.111,0.264c-0.074,0.074-0.158,0.111-0.252,0.111h-1.242v3.598
		l0.328,0.996l0.599,0.293h0.715c0.102,0,0.188,0.037,0.264,0.111s0.111,0.16,0.111,0.258s-0.037,0.184-0.111,0.258
		s-0.162,0.111-0.264,0.111h-0.81c-0.055,0-0.112-0.017-0.176-0.047l-0.773-0.398c-0.108-0.055-0.176-0.125-0.198-0.211
		l-0.398-1.184c-0.016-0.056-0.022-0.095-0.022-0.117c0-0.008,0-0.017,0-0.023v-3.645H16.85c-0.103,0-0.189-0.037-0.265-0.111
		c-0.074-0.074-0.11-0.162-0.11-0.264c0-0.103,0.037-0.189,0.11-0.264c0.074-0.076,0.162-0.111,0.265-0.111h0.832v-2.438
		c0-0.047,0.01-0.094,0.028-0.142c0.02-0.047,0.047-0.088,0.082-0.123c0.035-0.034,0.074-0.061,0.117-0.082
		C17.953,18.408,17.997,18.399,18.044,18.399z"/>
	<path fill="#FFF9BF" stroke="#FFF9BF" stroke-width="0.25" stroke-miterlimit="10" d="M22.815,18.399
		c0.094,0,0.18,0.037,0.258,0.11c0.078,0.074,0.117,0.162,0.117,0.265V22.3l0.574-0.573c0.03-0.031,0.062-0.056,0.094-0.069
		l0.797-0.388c0.047-0.022,0.094-0.043,0.141-0.06c0.009,0,0.015,0,0.019,0s0.01,0,0.018,0h1.207c0.056,0,0.113,0.021,0.176,0.06
		L27,21.658c0.103,0.047,0.164,0.12,0.188,0.223l0.397,1.184c0.017,0.047,0.023,0.09,0.023,0.129v4.02
		c0,0.103-0.037,0.189-0.111,0.265s-0.16,0.11-0.258,0.11s-0.184-0.037-0.258-0.11c-0.074-0.074-0.111-0.162-0.111-0.265V23.24
		l-0.34-0.996l-0.586-0.281h-1.031l-0.668,0.341l-1.055,1.043v3.866c0,0.047-0.01,0.095-0.029,0.142
		c-0.019,0.047-0.047,0.088-0.082,0.123s-0.074,0.062-0.117,0.082s-0.092,0.028-0.146,0.028c-0.094,0-0.178-0.037-0.252-0.11
		c-0.074-0.074-0.111-0.162-0.111-0.265v-8.438c0-0.102,0.039-0.188,0.117-0.258c0.031-0.031,0.068-0.059,0.111-0.082
		S22.768,18.399,22.815,18.399z"/>
	<path fill="#FFF9BF" stroke="#FFF9BF" stroke-width="0.25" stroke-miterlimit="10" d="M30.844,19.08
		c0.016,0,0.03,0.004,0.047,0.012c0.016,0.008,0.03,0.016,0.047,0.023c0.016,0.006,0.031,0.016,0.047,0.022s0.029,0.016,0.041,0.022
		c0.012,0.008,0.021,0.019,0.029,0.029c0.008,0.012,0.016,0.021,0.022,0.029l0.363,0.375c0.031,0.031,0.059,0.07,0.082,0.117
		c0.022,0.047,0.035,0.094,0.035,0.141c0,0.094-0.039,0.18-0.117,0.258l-0.41,0.387c-0.078,0.086-0.164,0.129-0.258,0.129
		s-0.181-0.039-0.258-0.117l-0.388-0.387C30.043,20.042,30,19.957,30,19.858s0.039-0.187,0.117-0.265l0.363-0.375
		c0.055-0.061,0.125-0.108,0.211-0.141c0.016-0.008,0.031-0.008,0.047,0h0.082h0.012h0.013V19.08z M30.774,21.21
		c0.094,0,0.18,0.037,0.258,0.111s0.117,0.162,0.117,0.264v5.625c0,0.047-0.01,0.095-0.029,0.142
		c-0.019,0.047-0.047,0.088-0.082,0.123c-0.035,0.034-0.074,0.062-0.117,0.082s-0.092,0.028-0.146,0.028
		c-0.094,0-0.178-0.037-0.252-0.11c-0.074-0.074-0.111-0.162-0.111-0.265v-5.625c0-0.102,0.039-0.188,0.117-0.258
		c0.031-0.031,0.068-0.059,0.111-0.082C30.683,21.223,30.727,21.21,30.774,21.21z"/>
	<path fill="#FFF9BF" stroke="#FFF9BF" stroke-width="0.25" stroke-miterlimit="10" d="M34.155,21.21
		c0.094,0,0.18,0.037,0.258,0.111s0.117,0.162,0.117,0.264V22.3l0.574-0.573c0.03-0.031,0.062-0.056,0.094-0.069l0.797-0.388
		c0.047-0.022,0.094-0.043,0.142-0.06c0.008,0,0.014,0,0.018,0s0.01,0,0.018,0h1.207c0.056,0,0.113,0.021,0.177,0.06l0.784,0.388
		c0.103,0.047,0.164,0.12,0.188,0.223l0.397,1.184c0.017,0.047,0.023,0.09,0.023,0.129v4.02c0,0.103-0.037,0.189-0.111,0.265
		c-0.073,0.075-0.159,0.11-0.258,0.11c-0.098,0-0.184-0.037-0.258-0.11c-0.074-0.074-0.111-0.162-0.111-0.265V23.24l-0.34-0.996
		l-0.586-0.281h-1.031l-0.668,0.341l-1.055,1.043v3.866c0,0.047-0.01,0.095-0.029,0.142c-0.019,0.047-0.047,0.088-0.082,0.123
		s-0.073,0.062-0.116,0.082c-0.044,0.021-0.093,0.028-0.146,0.028c-0.094,0-0.178-0.037-0.252-0.11
		c-0.074-0.074-0.111-0.162-0.111-0.265v-5.625c0-0.102,0.039-0.188,0.117-0.258c0.031-0.031,0.068-0.059,0.111-0.082
		C34.065,21.225,34.108,21.21,34.155,21.21z"/>
	<path fill="#FFF9BF" stroke="#FFF9BF" stroke-width="0.25" stroke-miterlimit="10" d="M42.135,18.399
		c0.095,0,0.181,0.037,0.259,0.11c0.078,0.074,0.116,0.162,0.116,0.265v5.94l3.388-3.387c0.078-0.078,0.166-0.117,0.264-0.117
		s0.185,0.037,0.258,0.111c0.074,0.074,0.111,0.162,0.111,0.264c0,0.047-0.012,0.095-0.035,0.142
		c-0.022,0.047-0.055,0.09-0.094,0.129l-2.146,2.168l2.591,2.953c0.055,0.069,0.082,0.147,0.082,0.233
		c0,0.103-0.037,0.189-0.111,0.265s-0.166,0.11-0.275,0.11c-0.108,0-0.199-0.047-0.27-0.141l-2.556-2.906l-1.207,1.219v1.453
		c0,0.047-0.01,0.095-0.028,0.142c-0.02,0.047-0.047,0.088-0.082,0.123c-0.035,0.034-0.074,0.062-0.117,0.082
		s-0.092,0.028-0.146,0.028c-0.095,0-0.179-0.037-0.253-0.11c-0.073-0.074-0.11-0.162-0.11-0.265v-8.438
		c0-0.102,0.039-0.188,0.117-0.258c0.03-0.031,0.067-0.059,0.11-0.082S42.088,18.399,42.135,18.399z"/>
	<path fill="#FFF9BF" stroke="#FFF9BF" stroke-width="0.25" stroke-miterlimit="10" d="M49.016,19.08
		c0.016,0,0.03,0.004,0.047,0.012c0.016,0.008,0.03,0.016,0.047,0.023c0.016,0.006,0.031,0.016,0.047,0.022s0.029,0.016,0.041,0.022
		c0.012,0.008,0.021,0.019,0.029,0.029c0.008,0.012,0.016,0.021,0.022,0.029l0.363,0.375c0.031,0.031,0.059,0.07,0.082,0.117
		c0.022,0.047,0.035,0.094,0.035,0.141c0,0.094-0.039,0.18-0.117,0.258l-0.41,0.387c-0.078,0.086-0.164,0.129-0.258,0.129
		s-0.18-0.039-0.258-0.117L48.3,20.121c-0.086-0.078-0.129-0.166-0.129-0.264s0.039-0.186,0.117-0.264l0.363-0.375
		c0.055-0.062,0.125-0.109,0.211-0.141c0.016-0.009,0.031-0.009,0.047,0h0.082h0.012h0.014V19.08z M48.946,21.21
		c0.094,0,0.18,0.037,0.258,0.111s0.117,0.162,0.117,0.264v5.625c0,0.047-0.01,0.095-0.029,0.142
		c-0.019,0.047-0.047,0.088-0.082,0.123c-0.035,0.034-0.073,0.062-0.117,0.082c-0.043,0.021-0.093,0.028-0.146,0.028
		c-0.094,0-0.178-0.037-0.252-0.11c-0.074-0.074-0.111-0.162-0.111-0.265v-5.625c0-0.102,0.039-0.188,0.117-0.258
		c0.031-0.031,0.068-0.059,0.111-0.082C48.854,21.223,48.899,21.21,48.946,21.21z"/>
	<path fill="#FFF9BF" stroke="#FFF9BF" stroke-width="0.25" stroke-miterlimit="10" d="M52.327,21.21
		c0.094,0,0.18,0.037,0.258,0.111s0.117,0.162,0.117,0.264V22.3l0.574-0.573c0.031-0.031,0.062-0.056,0.094-0.069l0.797-0.388
		c0.047-0.022,0.095-0.043,0.142-0.06c0.008,0,0.014,0,0.018,0s0.01,0,0.019,0h1.206c0.056,0,0.113,0.021,0.177,0.06l0.785,0.388
		c0.102,0.047,0.163,0.12,0.188,0.223l0.398,1.184c0.016,0.047,0.022,0.09,0.022,0.129v4.02c0,0.103-0.037,0.189-0.111,0.265
		c-0.073,0.075-0.159,0.11-0.258,0.11c-0.098,0-0.184-0.037-0.258-0.11c-0.074-0.074-0.111-0.162-0.111-0.265V23.24l-0.34-0.996
		l-0.586-0.281h-1.031l-0.668,0.341l-1.055,1.043v3.866c0,0.047-0.01,0.095-0.029,0.142c-0.019,0.047-0.047,0.088-0.082,0.123
		c-0.034,0.035-0.073,0.062-0.116,0.082s-0.093,0.028-0.146,0.028c-0.094,0-0.178-0.037-0.252-0.11
		c-0.074-0.074-0.111-0.162-0.111-0.265v-5.625c0-0.102,0.039-0.188,0.117-0.258c0.031-0.031,0.068-0.059,0.111-0.082
		C52.237,21.225,52.28,21.21,52.327,21.21z"/>
	<path fill="#FFF9BF" stroke="#FFF9BF" stroke-width="0.25" stroke-miterlimit="10" d="M64.475,21.324
		c0.073-0.074,0.159-0.111,0.258-0.111c0.098,0,0.184,0.037,0.258,0.111c0.074,0.073,0.111,0.161,0.111,0.264v6.434
		c0,0.023-0.002,0.045-0.006,0.064c-0.005,0.019-0.011,0.041-0.019,0.063l-0.397,1.185c-0.023,0.069-0.062,0.129-0.117,0.176
		l-0.422,0.422c-0.017,0.016-0.031,0.027-0.047,0.035l-0.798,0.387c-0.062,0.031-0.121,0.047-0.176,0.047h-1.207
		c-0.055,0-0.113-0.016-0.176-0.047l-0.785-0.387c-0.156-0.062-0.229-0.168-0.223-0.316c0-0.125,0.039-0.223,0.117-0.293
		c0.077-0.07,0.164-0.102,0.258-0.094c0.031,0,0.063,0.004,0.1,0.012s0.064,0.02,0.088,0.035l0.715,0.352h1.031l0.668-0.34
		l0.306-0.305l0.352-1.043v-1.078l-0.176,0.176c-0.031,0.031-0.062,0.055-0.094,0.07l-0.785,0.398
		c-0.062,0.03-0.125,0.047-0.188,0.047h-1.207c-0.055,0-0.113-0.017-0.176-0.047l-0.785-0.398c-0.016-0.008-0.031-0.018-0.047-0.029
		c-0.016-0.011-0.031-0.025-0.047-0.041l-0.81-0.797c-0.03-0.031-0.059-0.078-0.082-0.141v-0.012l-0.397-1.172
		c-0.023-0.062-0.035-0.105-0.035-0.13v-0.022V24c0-0.039,0.008-0.082,0.023-0.129l0.409-1.195c0.023-0.069,0.06-0.125,0.105-0.163
		l0.785-0.785c0.016-0.017,0.029-0.028,0.041-0.041s0.029-0.021,0.053-0.028l0.797-0.388c0.039-0.022,0.078-0.043,0.117-0.06
		c0.016,0,0.031,0,0.047,0h1.207c0.062,0,0.121,0.021,0.176,0.06l0.797,0.388c0.031,0.016,0.062,0.038,0.095,0.069l0.176,0.176
		v-0.315C64.364,21.485,64.401,21.397,64.475,21.324z M62.008,21.96L61.34,22.3l-0.702,0.703l-0.353,1.043v0.703l0.353,1.043
		l0.702,0.715l0.668,0.341h1.031l0.668-0.341l0.656-0.645v-2.918L63.707,22.3l-0.668-0.34H62.008L62.008,21.96z"/>
	<path fill="#FFF9BF" stroke="#FFF9BF" stroke-width="0.25" stroke-miterlimit="10" d="M72.827,18.399
		c0.094,0,0.18,0.037,0.258,0.11c0.078,0.074,0.117,0.162,0.117,0.265v4.733l1.324-1.348c0.016-0.022,0.043-0.047,0.082-0.07
		c0.008,0,0.012-0.004,0.012-0.012l3.574-3.562c0.078-0.078,0.166-0.117,0.264-0.117c0.099,0,0.185,0.037,0.258,0.11
		c0.074,0.074,0.111,0.162,0.111,0.265c0,0.047-0.008,0.091-0.022,0.129c-0.016,0.039-0.039,0.078-0.07,0.117l-0.012,0.013
		l-3.388,3.397l3.422,4.547l0.013,0.013c0,0.008,0.004,0.016,0.012,0.022c0.031,0.069,0.047,0.141,0.047,0.211
		c0,0.094-0.037,0.178-0.111,0.252c-0.073,0.073-0.166,0.11-0.274,0.11c-0.109,0-0.203-0.047-0.281-0.141v-0.012l-3.363-4.488
		l-1.594,1.605v2.66c0,0.047-0.01,0.094-0.029,0.141c-0.019,0.047-0.047,0.088-0.082,0.123c-0.034,0.035-0.073,0.062-0.116,0.082
		s-0.093,0.029-0.146,0.029c-0.094,0-0.178-0.037-0.252-0.111s-0.111-0.162-0.111-0.264v-8.438c0-0.103,0.039-0.188,0.117-0.258
		c0.031-0.031,0.068-0.06,0.111-0.082S72.78,18.399,72.827,18.399z"/>
	<path fill="#FFF9BF" stroke="#FFF9BF" stroke-width="0.25" stroke-miterlimit="10" d="M81.26,19.08
		c0.017,0,0.031,0.004,0.048,0.012c0.016,0.008,0.03,0.016,0.047,0.023c0.016,0.006,0.03,0.016,0.047,0.022
		c0.016,0.007,0.029,0.016,0.041,0.022c0.012,0.008,0.021,0.019,0.029,0.029c0.008,0.012,0.016,0.021,0.022,0.029l0.363,0.375
		c0.031,0.031,0.059,0.07,0.082,0.117c0.022,0.047,0.035,0.094,0.035,0.141c0,0.094-0.039,0.18-0.117,0.258l-0.41,0.387
		c-0.078,0.086-0.164,0.129-0.258,0.129s-0.181-0.039-0.258-0.117l-0.388-0.387c-0.086-0.078-0.129-0.166-0.129-0.264
		s0.039-0.186,0.117-0.264l0.363-0.375c0.055-0.062,0.125-0.109,0.211-0.141c0.016-0.009,0.031-0.009,0.047,0h0.082h0.012h0.013
		V19.08z M81.19,21.21c0.094,0,0.18,0.037,0.258,0.111s0.117,0.162,0.117,0.264v5.625c0,0.047-0.01,0.095-0.029,0.142
		c-0.019,0.047-0.047,0.088-0.082,0.123c-0.035,0.034-0.074,0.062-0.117,0.082s-0.092,0.028-0.146,0.028
		c-0.094,0-0.178-0.037-0.252-0.11c-0.074-0.074-0.111-0.162-0.111-0.265v-5.625c0-0.102,0.039-0.188,0.117-0.258
		c0.031-0.031,0.068-0.059,0.111-0.082C81.099,21.223,81.143,21.21,81.19,21.21z"/>
	<path fill="#FFF9BF" stroke="#FFF9BF" stroke-width="0.25" stroke-miterlimit="10" d="M84.571,21.21
		c0.094,0,0.18,0.037,0.258,0.111s0.117,0.162,0.117,0.264V22.3l0.574-0.573c0.03-0.031,0.062-0.056,0.094-0.069l0.797-0.388
		c0.047-0.022,0.094-0.043,0.141-0.06c0.009,0,0.015,0,0.019,0s0.01,0,0.018,0h1.207c0.056,0,0.113,0.021,0.177,0.06l0.784,0.388
		c0.039,0.022,0.078,0.055,0.117,0.094s0.062,0.082,0.07,0.129l0.211,0.621l0.785-0.773c0.031-0.031,0.069-0.055,0.117-0.07
		l0.772-0.387c0.031-0.016,0.055-0.027,0.07-0.035c0.015-0.008,0.039-0.016,0.069-0.023c0.009,0,0.021,0,0.035,0h1.207
		c0.017,0,0.033,0.002,0.054,0.006c0.02,0.005,0.036,0.011,0.053,0.019c0.016,0.009,0.029,0.015,0.041,0.019s0.021,0.01,0.029,0.018
		l0.784,0.387c0.031,0.016,0.068,0.047,0.111,0.094s0.064,0.078,0.064,0.095l0.409,1.207c0.023,0.055,0.035,0.103,0.035,0.141v4.021
		c0,0.102-0.037,0.188-0.11,0.264c-0.074,0.075-0.162,0.111-0.265,0.111c-0.102,0-0.188-0.037-0.264-0.111s-0.111-0.162-0.111-0.264
		v-3.973l-0.34-0.996l-0.574-0.281h-1.03l-0.668,0.34l-1.066,1.043v3.867c0,0.102-0.037,0.188-0.111,0.264
		c-0.073,0.075-0.16,0.111-0.258,0.111s-0.184-0.037-0.258-0.111s-0.111-0.162-0.111-0.264v-3.973l-0.34-0.996L87.7,21.96h-1.031
		l-0.668,0.34l-1.055,1.043v3.867c0,0.047-0.01,0.095-0.029,0.142c-0.019,0.047-0.047,0.088-0.082,0.123
		c-0.035,0.034-0.073,0.062-0.117,0.082c-0.043,0.021-0.092,0.028-0.146,0.028c-0.094,0-0.178-0.037-0.252-0.11
		c-0.074-0.074-0.111-0.162-0.111-0.265v-5.625c0-0.102,0.039-0.188,0.117-0.258c0.031-0.031,0.068-0.059,0.111-0.082
		C84.48,21.223,84.524,21.21,84.571,21.21z"/>
	<path fill="#FFF9BF" stroke="#FFF9BF" stroke-width="0.25" stroke-miterlimit="10" d="M98.335,21.21h1.254
		c0.062,0,0.121,0.021,0.177,0.06l0.797,0.388c0.03,0.016,0.062,0.038,0.094,0.069l0.809,0.81c0.031,0.03,0.056,0.069,0.07,0.116
		l0.012,0.013l0.398,1.184c0.022,0.062,0.035,0.105,0.035,0.129c0,0.008,0,0.016,0,0.023v0.797c0,0.039-0.008,0.078-0.023,0.117
		l-0.41,1.207c-0.022,0.069-0.055,0.125-0.094,0.164l-0.797,0.784c-0.031,0.031-0.062,0.056-0.094,0.07l-0.785,0.397
		c-0.062,0.031-0.125,0.047-0.188,0.047h-1.207c-0.055,0-0.112-0.016-0.176-0.047l-0.785-0.397c-0.016-0.009-0.03-0.019-0.047-0.029
		c-0.016-0.011-0.031-0.024-0.047-0.041l-0.809-0.797c-0.031-0.03-0.06-0.078-0.082-0.142v-0.012l-0.398-1.172
		c-0.022-0.062-0.035-0.105-0.035-0.129v-0.023V24c0-0.039,0.008-0.082,0.023-0.129l0.41-1.195c0.022-0.069,0.059-0.125,0.104-0.163
		l0.785-0.785l0.094-0.069l0.763-0.388l0.069-0.035C98.277,21.218,98.304,21.21,98.335,21.21z M98.476,21.96l-0.668,0.34
		l-0.703,0.703l-0.353,1.043v0.703l0.353,1.043l0.703,0.715l0.668,0.341h1.03l0.668-0.341l0.703-0.715l0.353-1.043v-0.703
		l-0.353-1.043l-0.703-0.703l-0.668-0.34H98.476z"/>
	<path fill="#FFF9BF" stroke="#FFF9BF" stroke-width="0.25" stroke-miterlimit="10" d="M104.781,21.21
		c0.094,0,0.18,0.037,0.258,0.111s0.117,0.162,0.117,0.264V22.3l0.574-0.573c0.03-0.031,0.062-0.056,0.094-0.069l0.797-0.388
		c0.047-0.022,0.094-0.043,0.142-0.06c0.008,0,0.014,0,0.018,0s0.01,0,0.018,0h1.207c0.056,0,0.113,0.021,0.177,0.06l0.784,0.388
		c0.103,0.047,0.164,0.12,0.188,0.223l0.397,1.184c0.017,0.047,0.023,0.09,0.023,0.129v4.02c0,0.103-0.037,0.189-0.111,0.265
		c-0.073,0.075-0.159,0.11-0.258,0.11c-0.098,0-0.184-0.037-0.258-0.11c-0.074-0.074-0.111-0.162-0.111-0.265V23.24l-0.34-0.996
		l-0.586-0.281h-1.031l-0.668,0.341l-1.055,1.043v3.866c0,0.047-0.01,0.095-0.029,0.142c-0.019,0.047-0.047,0.088-0.082,0.123
		c-0.034,0.035-0.073,0.062-0.116,0.082s-0.093,0.028-0.146,0.028c-0.094,0-0.178-0.037-0.252-0.11
		c-0.074-0.074-0.111-0.162-0.111-0.265v-5.625c0-0.102,0.039-0.188,0.117-0.258c0.031-0.031,0.068-0.059,0.111-0.082
		C104.691,21.225,104.734,21.21,104.781,21.21z"/>
	<path fill="#FFF9BF" stroke="#FFF9BF" stroke-width="0.25" stroke-miterlimit="10" d="M114.079,21.21h1.254
		c0.062,0,0.121,0.021,0.176,0.06l0.798,0.388c0.03,0.016,0.062,0.038,0.094,0.069l0.809,0.81c0.031,0.03,0.056,0.069,0.07,0.116
		l0.012,0.013l0.398,1.184c0.022,0.062,0.035,0.105,0.035,0.129c0,0.008,0,0.016,0,0.023v0.797c0,0.039-0.009,0.078-0.023,0.117
		l-0.41,1.207c-0.022,0.069-0.055,0.125-0.094,0.164l-0.797,0.784c-0.031,0.031-0.062,0.056-0.094,0.07l-0.785,0.397
		c-0.062,0.031-0.125,0.047-0.188,0.047h-1.207c-0.055,0-0.112-0.016-0.176-0.047l-0.785-0.397
		c-0.016-0.009-0.031-0.019-0.047-0.029s-0.031-0.024-0.047-0.041l-0.809-0.797c-0.031-0.03-0.06-0.078-0.082-0.142v-0.012
		l-0.398-1.172c-0.023-0.062-0.035-0.105-0.035-0.129v-0.023V24c0-0.039,0.008-0.082,0.023-0.129l0.41-1.195
		c0.022-0.069,0.059-0.125,0.104-0.163l0.785-0.785l0.094-0.069l0.762-0.388l0.07-0.035C114.021,21.218,114.048,21.21,114.079,21.21
		z M114.22,21.96l-0.669,0.34l-0.702,0.703l-0.353,1.043v0.703l0.353,1.043l0.702,0.715l0.669,0.341h1.03l0.668-0.341l0.703-0.715
		l0.353-1.043v-0.703l-0.353-1.043l-0.703-0.703l-0.668-0.34H114.22z"/>
	<path fill="#FFF9BF" stroke="#FFF9BF" stroke-width="0.25" stroke-miterlimit="10" d="M126.404,18.399h0.809
		c0.103,0,0.189,0.037,0.265,0.11c0.074,0.074,0.11,0.16,0.11,0.259s-0.037,0.185-0.11,0.258c-0.074,0.074-0.162,0.111-0.265,0.111
		h-0.715L125.9,19.43l-0.328,0.995v0.785h1.242c0.102,0,0.188,0.039,0.258,0.117s0.104,0.164,0.104,0.258
		c0,0.103-0.036,0.189-0.11,0.265s-0.158,0.11-0.252,0.11h-1.242v5.25c0,0.047-0.01,0.095-0.029,0.142
		c-0.019,0.047-0.047,0.088-0.082,0.123c-0.035,0.034-0.073,0.062-0.116,0.082c-0.044,0.021-0.093,0.028-0.146,0.028
		c-0.094,0-0.178-0.037-0.252-0.11c-0.074-0.074-0.111-0.162-0.111-0.265v-5.25h-0.832c-0.102,0-0.188-0.037-0.264-0.11
		c-0.075-0.074-0.111-0.162-0.111-0.265c0-0.102,0.037-0.188,0.111-0.264c0.074-0.074,0.162-0.111,0.264-0.111h0.832v-0.832
		l0.023-0.129l0.397-1.184c0.023-0.094,0.095-0.172,0.211-0.234l0.763-0.387C126.291,18.416,126.349,18.399,126.404,18.399z"/>
	<path fill="#FFF9BF" stroke="#FFF9BF" stroke-width="0.25" stroke-miterlimit="10" d="M130.38,22.3l0.574-0.573
		c0.031-0.031,0.062-0.056,0.094-0.069l0.798-0.388c0.047-0.022,0.094-0.043,0.141-0.06c0.008,0,0.014,0,0.018,0s0.011,0,0.019,0
		h1.207c0.102,0,0.188,0.039,0.258,0.117s0.104,0.164,0.104,0.258c0,0.103-0.036,0.189-0.11,0.265s-0.158,0.11-0.252,0.11h-1.125
		l-0.668,0.34l-0.703,0.703l-0.353,1.043v3.164c0,0.047-0.01,0.095-0.028,0.142c-0.02,0.047-0.047,0.088-0.082,0.123
		c-0.035,0.034-0.074,0.062-0.117,0.082s-0.092,0.028-0.146,0.028c-0.094,0-0.178-0.037-0.252-0.11
		c-0.073-0.074-0.11-0.162-0.11-0.265v-5.625c0-0.102,0.039-0.188,0.117-0.258c0.03-0.031,0.067-0.059,0.11-0.082
		c0.043-0.022,0.088-0.035,0.135-0.035c0.095,0,0.181,0.037,0.259,0.111c0.077,0.074,0.116,0.162,0.116,0.264V22.3H130.38z"/>
	<path fill="#FFF9BF" stroke="#FFF9BF" stroke-width="0.25" stroke-miterlimit="10" d="M136.66,21.21h1.254
		c0.062,0,0.121,0.021,0.176,0.06l0.798,0.388c0.03,0.016,0.062,0.038,0.094,0.069l0.809,0.81c0.031,0.03,0.056,0.069,0.07,0.116
		l0.012,0.013l0.398,1.184c0.022,0.062,0.035,0.105,0.035,0.129c0,0.008,0,0.016,0,0.023v0.797c0,0.039-0.009,0.078-0.023,0.117
		l-0.41,1.207c-0.022,0.069-0.055,0.125-0.094,0.164l-0.797,0.784c-0.031,0.031-0.062,0.056-0.094,0.07l-0.785,0.397
		c-0.062,0.031-0.125,0.047-0.188,0.047h-1.207c-0.055,0-0.113-0.016-0.176-0.047l-0.785-0.397
		c-0.016-0.009-0.031-0.019-0.047-0.029s-0.031-0.024-0.047-0.041l-0.81-0.797c-0.03-0.03-0.059-0.078-0.081-0.142v-0.012
		l-0.398-1.172c-0.023-0.062-0.035-0.105-0.035-0.129v-0.023V24c0-0.039,0.008-0.082,0.023-0.129l0.41-1.195
		c0.022-0.069,0.059-0.125,0.104-0.163l0.785-0.785l0.094-0.069l0.762-0.388l0.07-0.035C136.601,21.218,136.628,21.21,136.66,21.21z
		 M136.8,21.96l-0.668,0.34l-0.702,0.703l-0.353,1.043v0.703l0.353,1.043l0.702,0.715l0.668,0.341h1.031l0.668-0.341l0.703-0.715
		l0.353-1.043v-0.703l-0.353-1.043l-0.703-0.703l-0.668-0.34H136.8z"/>
	<path fill="#FFF9BF" stroke="#FFF9BF" stroke-width="0.25" stroke-miterlimit="10" d="M143.105,21.21
		c0.094,0,0.18,0.037,0.258,0.111s0.117,0.162,0.117,0.264V22.3l0.574-0.573c0.03-0.031,0.062-0.056,0.094-0.069l0.797-0.388
		c0.047-0.022,0.094-0.043,0.141-0.06c0.008,0,0.015,0,0.019,0s0.01,0,0.018,0h1.207c0.055,0,0.113,0.021,0.176,0.06l0.785,0.388
		c0.039,0.022,0.078,0.055,0.117,0.094s0.062,0.082,0.07,0.129l0.211,0.621l0.785-0.773c0.03-0.031,0.069-0.055,0.116-0.07
		l0.773-0.387c0.031-0.016,0.055-0.027,0.07-0.035c0.015-0.008,0.039-0.016,0.069-0.023c0.009,0,0.021,0,0.035,0h1.207
		c0.017,0,0.033,0.002,0.053,0.006c0.021,0.005,0.037,0.011,0.054,0.019c0.016,0.009,0.028,0.015,0.041,0.019
		c0.012,0.004,0.021,0.01,0.028,0.018l0.785,0.387c0.031,0.016,0.068,0.047,0.111,0.094s0.063,0.078,0.063,0.095l0.41,1.207
		c0.023,0.055,0.035,0.103,0.035,0.141v4.021c0,0.102-0.037,0.188-0.111,0.264c-0.073,0.075-0.161,0.111-0.264,0.111
		c-0.102,0-0.188-0.037-0.264-0.111s-0.111-0.162-0.111-0.264v-3.973l-0.34-0.996l-0.574-0.281h-1.031l-0.668,0.34l-1.065,1.043
		v3.867c0,0.102-0.037,0.188-0.111,0.264s-0.16,0.111-0.258,0.111s-0.184-0.037-0.258-0.111s-0.111-0.162-0.111-0.264v-3.973
		l-0.34-0.996l-0.586-0.281h-1.031l-0.668,0.34l-1.055,1.043v3.867c0,0.047-0.01,0.094-0.029,0.141
		c-0.019,0.047-0.047,0.088-0.082,0.123s-0.074,0.062-0.117,0.082s-0.092,0.029-0.146,0.029c-0.094,0-0.178-0.037-0.252-0.111
		s-0.111-0.162-0.111-0.264v-5.625c0-0.102,0.039-0.188,0.117-0.258c0.031-0.031,0.068-0.06,0.111-0.082
		C143.013,21.228,143.059,21.21,143.105,21.21z"/>
	<path fill="#FFF9BF" stroke="#FFF9BF" stroke-width="0.25" stroke-miterlimit="10" d="M163.098,18.399h1.604
		c0.055,0,0.109,0.013,0.164,0.035l0.797,0.409c0.008,0.009,0.021,0.017,0.035,0.023c0.015,0.008,0.031,0.016,0.047,0.023
		c0.008,0.008,0.017,0.016,0.023,0.023c0.53,0.539,0.812,0.823,0.844,0.854c0.008,0.008,0.014,0.017,0.018,0.022
		c0.004,0.008,0.011,0.017,0.019,0.023l0.387,0.785c0.031,0.062,0.047,0.129,0.047,0.199c0,0.094-0.037,0.178-0.11,0.252
		c-0.074,0.074-0.171,0.111-0.287,0.111c-0.142,0-0.242-0.074-0.306-0.224l-0.375-0.737l-0.715-0.728l-0.668-0.341h-1.44
		l-0.668,0.341l-0.716,0.728l-0.362,0.715l-0.375,1.125v1.91l0.375,1.112l0.362,0.715l0.716,0.728l0.668,0.34h1.44l0.668-0.34
		l0.715-0.728l0.375-0.737c0.031-0.07,0.072-0.125,0.123-0.164c0.052-0.039,0.111-0.06,0.183-0.06c0.125,0,0.223,0.039,0.293,0.117
		c0.069,0.078,0.104,0.159,0.104,0.246c0,0.069-0.016,0.137-0.047,0.198l-0.387,0.785c-0.017,0.031-0.043,0.066-0.082,0.105
		l-0.797,0.797c-0.008,0.008-0.021,0.018-0.035,0.029c-0.015,0.011-0.031,0.021-0.047,0.029c-0.017,0.008-0.027,0.012-0.035,0.012
		l-0.762,0.387c-0.07,0.039-0.134,0.059-0.188,0.059h-1.604c-0.056,0-0.109-0.016-0.164-0.047l-0.81-0.397
		c-0.03-0.017-0.062-0.039-0.094-0.07l-0.809-0.797c-0.031-0.03-0.056-0.069-0.07-0.117l-0.398-0.784
		c0-0.009-0.004-0.017-0.012-0.023v-0.012c0-0.008,0-0.017,0-0.023l-0.41-1.172c-0.016-0.047-0.022-0.074-0.022-0.082
		s0-0.027,0-0.059v-2.017c0-0.008,0-0.019,0-0.028c0-0.012,0.002-0.023,0.006-0.035c0.004-0.013,0.008-0.023,0.012-0.035
		s0.006-0.025,0.006-0.041l0.41-1.184c0-0.009,0.004-0.017,0.012-0.023v-0.012l0.398-0.81c0.016-0.03,0.039-0.062,0.07-0.095
		l0.809-0.809c0.031-0.031,0.062-0.055,0.094-0.07l0.81-0.409c0.022-0.017,0.049-0.025,0.076-0.029
		C163.038,18.397,163.067,18.399,163.098,18.399z"/>
	<path fill="#FFF9BF" stroke="#FFF9BF" stroke-width="0.25" stroke-miterlimit="10" d="M171.35,21.21h1.254
		c0.062,0,0.121,0.021,0.176,0.06l0.797,0.388c0.031,0.016,0.062,0.038,0.094,0.069l0.81,0.81c0.031,0.03,0.055,0.069,0.069,0.116
		l0.013,0.013l0.397,1.184c0.023,0.062,0.035,0.105,0.035,0.129c0,0.008,0,0.016,0,0.023v0.797c0,0.039-0.008,0.078-0.022,0.117
		l-0.41,1.207c-0.023,0.069-0.056,0.125-0.095,0.164l-0.797,0.784c-0.03,0.031-0.062,0.056-0.094,0.07l-0.785,0.397
		c-0.062,0.031-0.125,0.047-0.188,0.047h-1.207c-0.056,0-0.113-0.016-0.176-0.047l-0.785-0.397
		c-0.017-0.009-0.031-0.019-0.047-0.029c-0.017-0.011-0.031-0.024-0.048-0.041l-0.808-0.797c-0.031-0.03-0.059-0.078-0.082-0.142
		v-0.012l-0.397-1.172c-0.023-0.062-0.035-0.105-0.035-0.129v-0.023V24c0-0.039,0.008-0.082,0.022-0.129l0.41-1.195
		c0.023-0.069,0.06-0.125,0.105-0.163l0.784-0.785l0.095-0.069l0.762-0.388l0.07-0.035C171.291,21.218,171.318,21.21,171.35,21.21z
		 M171.49,21.96l-0.668,0.34l-0.703,0.703l-0.351,1.043v0.703l0.351,1.043l0.703,0.715l0.668,0.341h1.031l0.668-0.341l0.703-0.715
		l0.352-1.043v-0.703l-0.352-1.043l-0.703-0.703l-0.668-0.34H171.49z"/>
	<path fill="#FFF9BF" stroke="#FFF9BF" stroke-width="0.25" stroke-miterlimit="10" d="M177.314,21.21
		c0.094,0,0.18,0.037,0.258,0.111s0.117,0.162,0.117,0.264V22.3l0.574-0.573c0.03-0.031,0.062-0.056,0.094-0.069l0.797-0.388
		c0.047-0.022,0.094-0.043,0.141-0.06c0.009,0,0.015,0,0.019,0s0.01,0,0.018,0h1.207c0.055,0,0.113,0.021,0.176,0.06l0.785,0.388
		c0.103,0.047,0.164,0.12,0.188,0.223l0.397,1.184c0.017,0.047,0.023,0.09,0.023,0.129v4.02c0,0.103-0.037,0.189-0.111,0.265
		s-0.16,0.11-0.258,0.11s-0.184-0.037-0.258-0.11c-0.074-0.074-0.111-0.162-0.111-0.265V23.24l-0.34-0.996l-0.586-0.281h-1.031
		l-0.668,0.341l-1.055,1.043v3.866c0,0.047-0.01,0.095-0.029,0.142c-0.019,0.047-0.047,0.088-0.082,0.123s-0.074,0.062-0.117,0.082
		s-0.092,0.028-0.146,0.028c-0.094,0-0.178-0.037-0.252-0.11c-0.074-0.074-0.111-0.162-0.111-0.265v-5.625
		c0-0.102,0.039-0.188,0.117-0.258c0.031-0.031,0.068-0.059,0.111-0.082C177.224,21.225,177.268,21.21,177.314,21.21z"/>
	<path fill="#FFF9BF" stroke="#FFF9BF" stroke-width="0.25" stroke-miterlimit="10" d="M185.045,18.399
		c0.095,0,0.181,0.037,0.259,0.11c0.077,0.074,0.116,0.162,0.116,0.265v2.438h1.242c0.103,0,0.188,0.039,0.258,0.117
		c0.07,0.078,0.105,0.164,0.105,0.258c0,0.102-0.037,0.188-0.111,0.264c-0.074,0.074-0.158,0.111-0.252,0.111h-1.242v3.598
		l0.328,0.996l0.599,0.293h0.715c0.102,0,0.188,0.037,0.264,0.111s0.111,0.16,0.111,0.258s-0.037,0.184-0.111,0.258
		s-0.162,0.111-0.264,0.111h-0.81c-0.055,0-0.112-0.017-0.176-0.047l-0.772-0.398c-0.109-0.055-0.177-0.125-0.199-0.211
		l-0.398-1.184c-0.016-0.056-0.022-0.095-0.022-0.117c0-0.008,0-0.017,0-0.023v-3.645h-0.832c-0.103,0-0.189-0.037-0.265-0.111
		c-0.074-0.074-0.11-0.162-0.11-0.264c0-0.103,0.037-0.189,0.11-0.264c0.074-0.076,0.162-0.111,0.265-0.111h0.832v-2.438
		c0-0.047,0.01-0.094,0.028-0.142c0.02-0.047,0.047-0.088,0.082-0.123c0.035-0.034,0.074-0.061,0.117-0.082
		C184.954,18.408,184.998,18.399,185.045,18.399z"/>
	<path fill="#FFF9BF" stroke="#FFF9BF" stroke-width="0.25" stroke-miterlimit="10" d="M191.355,21.21h1.207
		c0.062,0,0.121,0.021,0.176,0.06l0.797,0.388c0.031,0.016,0.062,0.038,0.094,0.069l0.398,0.397c0.022,0.023,0.047,0.051,0.07,0.082
		c0.008,0.008,0.012,0.017,0.012,0.023l0.387,0.797c0.023,0.039,0.037,0.068,0.041,0.088s0.006,0.045,0.006,0.076V24
		c0,0.103-0.037,0.189-0.11,0.265c-0.074,0.075-0.158,0.11-0.252,0.11h-4.453v0.375l0.352,1.043l0.703,0.715l0.668,0.341h1.031
		l0.668-0.341l0.772-0.762c0.009-0.008,0.019-0.018,0.029-0.029c0.011-0.01,0.023-0.021,0.035-0.028s0.024-0.015,0.041-0.019
		c0.016-0.004,0.029-0.01,0.041-0.018s0.024-0.014,0.041-0.018c0.016-0.004,0.031-0.006,0.047-0.006
		c0.055,0,0.104,0.012,0.152,0.035c0.047,0.022,0.086,0.051,0.116,0.082c0.031,0.03,0.06,0.069,0.082,0.116
		c0.023,0.048,0.035,0.095,0.035,0.142s-0.008,0.092-0.022,0.135c-0.016,0.043-0.039,0.084-0.07,0.123
		c0,0.008-0.004,0.012-0.012,0.012l-0.81,0.797c-0.03,0.031-0.062,0.055-0.094,0.07l-0.785,0.398
		c-0.062,0.03-0.125,0.047-0.188,0.047h-1.207c-0.056,0-0.113-0.017-0.176-0.047l-0.785-0.398c-0.017-0.008-0.031-0.018-0.047-0.029
		c-0.017-0.011-0.031-0.025-0.048-0.041l-0.809-0.797c-0.031-0.031-0.059-0.078-0.082-0.141v-0.012l-0.398-1.172
		c-0.022-0.062-0.034-0.105-0.034-0.13v-0.022V24c0-0.047,0.012-0.098,0.034-0.151l0.398-1.173c0.023-0.069,0.059-0.125,0.105-0.163
		l0.784-0.785c0.017-0.017,0.029-0.028,0.041-0.041c0.013-0.013,0.029-0.021,0.054-0.028l0.784-0.388
		c0.039-0.03,0.07-0.049,0.095-0.054C191.295,21.212,191.324,21.21,191.355,21.21z M191.449,21.96l-0.668,0.34l-0.703,0.703
		l-0.211,0.621h3.938v-0.34l-0.341-0.668l-0.315-0.316l-0.668-0.34H191.449z"/>
	<path fill="#FFF9BF" stroke="#FFF9BF" stroke-width="0.25" stroke-miterlimit="10" d="M197.206,21.21
		c0.094,0,0.18,0.037,0.258,0.111s0.117,0.162,0.117,0.264V22.3l0.574-0.573c0.031-0.031,0.062-0.056,0.094-0.069l0.797-0.388
		c0.047-0.022,0.095-0.043,0.142-0.06c0.008,0,0.014,0,0.018,0s0.01,0,0.019,0h1.207c0.055,0,0.112,0.021,0.176,0.06l0.785,0.388
		c0.039,0.022,0.077,0.055,0.116,0.094s0.062,0.082,0.07,0.129l0.211,0.621l0.785-0.773c0.031-0.031,0.07-0.055,0.117-0.07
		l0.772-0.387c0.031-0.016,0.056-0.027,0.07-0.035s0.039-0.016,0.07-0.023c0.008,0,0.02,0,0.035,0h1.207
		c0.016,0,0.032,0.002,0.053,0.006c0.02,0.005,0.037,0.011,0.053,0.019c0.016,0.009,0.029,0.015,0.041,0.019s0.021,0.01,0.029,0.018
		l0.785,0.387c0.03,0.016,0.067,0.047,0.11,0.094s0.064,0.078,0.064,0.095l0.41,1.207c0.022,0.055,0.035,0.103,0.035,0.141v4.021
		c0,0.102-0.037,0.188-0.111,0.264s-0.162,0.111-0.264,0.111c-0.103,0-0.189-0.037-0.265-0.111s-0.11-0.162-0.11-0.264v-3.973
		l-0.341-0.996l-0.573-0.281h-1.031l-0.668,0.34l-1.066,1.043v3.867c0,0.102-0.037,0.188-0.11,0.264
		c-0.074,0.075-0.16,0.111-0.259,0.111c-0.098,0-0.184-0.037-0.258-0.111s-0.11-0.162-0.11-0.264v-3.973l-0.341-0.996l-0.586-0.281
		h-1.03l-0.668,0.34l-1.056,1.043v3.867c0,0.047-0.01,0.094-0.028,0.141c-0.02,0.047-0.048,0.088-0.082,0.123
		c-0.035,0.035-0.074,0.062-0.117,0.082s-0.092,0.029-0.146,0.029c-0.094,0-0.178-0.037-0.252-0.111s-0.11-0.162-0.11-0.264v-5.625
		c0-0.102,0.038-0.188,0.116-0.258c0.031-0.031,0.068-0.06,0.111-0.082C197.114,21.228,197.159,21.21,197.206,21.21z"/>
	<path fill="#FFF9BF" stroke="#FFF9BF" stroke-width="0.25" stroke-miterlimit="10" d="M209.408,21.21
		c0.094,0,0.18,0.037,0.258,0.111s0.117,0.162,0.117,0.264v0.316l0.176-0.176c0.017-0.016,0.029-0.029,0.041-0.041
		c0.013-0.012,0.029-0.021,0.053-0.029l0.798-0.387c0.039-0.023,0.077-0.043,0.116-0.059c0.017,0,0.031,0,0.048,0h1.207
		c0.062,0,0.12,0.02,0.176,0.059l0.797,0.387c0.031,0.016,0.062,0.039,0.094,0.07l0.81,0.809c0.03,0.031,0.055,0.07,0.069,0.117
		l0.013,0.012l0.397,1.185c0.023,0.062,0.035,0.104,0.035,0.129c0,0.008,0,0.017,0,0.022v0.797c0,0.039-0.008,0.078-0.023,0.117
		l-0.409,1.207c-0.023,0.07-0.056,0.125-0.095,0.164l-0.797,0.785c-0.031,0.031-0.062,0.055-0.094,0.07l-0.785,0.398
		c-0.062,0.03-0.125,0.047-0.188,0.047h-1.207c-0.056,0-0.113-0.017-0.177-0.047l-0.785-0.398c-0.016-0.008-0.03-0.018-0.047-0.029
		c-0.016-0.011-0.03-0.025-0.047-0.041l-0.176-0.176v3.141c0,0.103-0.039,0.188-0.117,0.258c-0.078,0.07-0.164,0.105-0.258,0.105
		c-0.023,0-0.047-0.002-0.07-0.006c-0.022-0.004-0.045-0.012-0.063-0.023c-0.02-0.011-0.039-0.025-0.06-0.041
		c-0.02-0.016-0.037-0.031-0.053-0.047c-0.031-0.031-0.059-0.068-0.082-0.111c-0.022-0.043-0.035-0.088-0.035-0.135v-8.449
		c0-0.102,0.039-0.188,0.117-0.258c0.031-0.031,0.068-0.059,0.111-0.082C209.316,21.223,209.361,21.21,209.408,21.21z
		 M211.107,21.96l-0.668,0.34l-0.656,0.646v2.919l0.656,0.645l0.668,0.34h1.031l0.668-0.34l0.702-0.715l0.353-1.043v-0.703
		l-0.353-1.043l-0.702-0.703l-0.668-0.34h-1.031V21.96z"/>
	<path fill="#FFF9BF" stroke="#FFF9BF" stroke-width="0.25" stroke-miterlimit="10" d="M218.59,21.21h1.254
		c0.062,0,0.121,0.021,0.177,0.06l0.797,0.388c0.031,0.016,0.062,0.038,0.094,0.069l0.809,0.81c0.031,0.03,0.056,0.069,0.07,0.116
		l0.012,0.013l0.398,1.184c0.023,0.062,0.035,0.105,0.035,0.129c0,0.008,0,0.016,0,0.023v0.797c0,0.039-0.008,0.078-0.023,0.117
		l-0.41,1.207c-0.022,0.069-0.055,0.125-0.094,0.164l-0.797,0.784c-0.031,0.031-0.062,0.056-0.094,0.07l-0.785,0.397
		c-0.062,0.031-0.125,0.047-0.188,0.047h-1.206c-0.056,0-0.113-0.016-0.177-0.047l-0.785-0.397c-0.016-0.009-0.03-0.019-0.047-0.029
		c-0.016-0.011-0.03-0.024-0.047-0.041l-0.809-0.797c-0.031-0.03-0.06-0.078-0.082-0.142v-0.012l-0.398-1.172
		c-0.022-0.062-0.035-0.105-0.035-0.129v-0.023V24c0-0.039,0.009-0.082,0.023-0.129l0.41-1.195c0.022-0.069,0.059-0.125,0.104-0.163
		l0.785-0.785l0.094-0.069l0.763-0.388l0.069-0.035C218.531,21.218,218.559,21.21,218.59,21.21z M218.73,21.96l-0.668,0.34
		l-0.703,0.703l-0.353,1.043v0.703l0.353,1.043l0.703,0.715l0.668,0.341h1.03l0.669-0.341l0.702-0.715l0.353-1.043v-0.703
		l-0.353-1.043l-0.702-0.703l-0.669-0.34H218.73z"/>
	<path fill="#FFF9BF" stroke="#FFF9BF" stroke-width="0.25" stroke-miterlimit="10" d="M225.412,22.3l0.574-0.573
		c0.031-0.031,0.062-0.056,0.094-0.069l0.797-0.388c0.047-0.022,0.095-0.043,0.142-0.06c0.008,0,0.014,0,0.018,0s0.01,0,0.019,0
		h1.207c0.102,0,0.188,0.039,0.258,0.117c0.069,0.078,0.104,0.164,0.104,0.258c0,0.103-0.037,0.189-0.11,0.265
		c-0.074,0.075-0.158,0.11-0.252,0.11h-1.125l-0.669,0.34l-0.702,0.703l-0.353,1.043v3.164c0,0.047-0.01,0.095-0.029,0.142
		c-0.019,0.047-0.047,0.088-0.082,0.123c-0.034,0.034-0.073,0.062-0.116,0.082s-0.093,0.028-0.146,0.028
		c-0.094,0-0.178-0.037-0.252-0.11c-0.074-0.074-0.111-0.162-0.111-0.265v-5.625c0-0.102,0.039-0.188,0.117-0.258
		c0.031-0.031,0.068-0.059,0.111-0.082c0.043-0.022,0.088-0.035,0.135-0.035c0.094,0,0.18,0.037,0.258,0.111
		s0.117,0.162,0.117,0.264V22.3H225.412z"/>
	<path fill="#FFF9BF" stroke="#FFF9BF" stroke-width="0.25" stroke-miterlimit="10" d="M234.299,21.324
		c0.074-0.074,0.111-0.111,0.111-0.111s0.049,0,0.146,0c0.097,0,0.184,0.037,0.258,0.111c0.074,0.073,0.11,0.161,0.11,0.264v5.625
		c0,0.102-0.036,0.188-0.11,0.264c-0.074,0.074-0.16,0.111-0.258,0.111c-0.099,0-0.185-0.037-0.259-0.111
		c-0.073-0.074-0.11-0.162-0.11-0.264v-0.316l-0.177,0.176c-0.03,0.031-0.062,0.055-0.094,0.07l-0.785,0.398
		c-0.062,0.03-0.125,0.047-0.188,0.047h-1.207c-0.055,0-0.113-0.017-0.176-0.047l-0.785-0.398c-0.017-0.008-0.031-0.018-0.047-0.029
		c-0.017-0.011-0.031-0.025-0.047-0.041l-0.81-0.797c-0.031-0.031-0.059-0.078-0.082-0.141v-0.012l-0.397-1.172
		c-0.023-0.062-0.035-0.105-0.035-0.13v-0.022V24c0-0.039,0.008-0.082,0.022-0.129l0.41-1.195c0.023-0.069,0.06-0.125,0.105-0.163
		l0.785-0.785c0.016-0.017,0.028-0.028,0.041-0.041c0.012-0.013,0.028-0.021,0.053-0.028l0.797-0.388
		c0.039-0.022,0.078-0.043,0.117-0.06c0.016,0,0.031,0,0.047,0h1.207c0.062,0,0.121,0.021,0.176,0.06l0.797,0.388
		c0.031,0.016,0.062,0.038,0.094,0.069l0.177,0.176v-0.315C234.188,21.485,234.225,21.397,234.299,21.324z M231.832,21.96
		l-0.668,0.34l-0.703,0.703l-0.352,1.043v0.703l0.352,1.043l0.703,0.715l0.668,0.341h1.031l0.668-0.341l0.656-0.645v-2.918
		l-0.656-0.645l-0.668-0.34H231.832L231.832,21.96z"/>
	<path fill="#FFF9BF" stroke="#FFF9BF" stroke-width="0.25" stroke-miterlimit="10" d="M237.779,22.3l0.574-0.573
		c0.03-0.031,0.062-0.056,0.094-0.069l0.797-0.388c0.047-0.022,0.094-0.043,0.141-0.06c0.009,0,0.015,0,0.019,0s0.01,0,0.018,0
		h1.207c0.103,0,0.188,0.039,0.259,0.117c0.069,0.078,0.104,0.164,0.104,0.258c0,0.103-0.037,0.189-0.111,0.265
		c-0.073,0.075-0.157,0.11-0.252,0.11h-1.125l-0.668,0.34l-0.703,0.703l-0.352,1.043v3.164c0,0.047-0.01,0.095-0.029,0.142
		c-0.019,0.047-0.047,0.088-0.082,0.123c-0.035,0.034-0.073,0.062-0.117,0.082c-0.043,0.021-0.092,0.028-0.146,0.028
		c-0.094,0-0.178-0.037-0.252-0.11c-0.074-0.074-0.111-0.162-0.111-0.265v-5.625c0-0.102,0.039-0.188,0.117-0.258
		c0.031-0.031,0.068-0.059,0.111-0.082c0.043-0.022,0.088-0.035,0.135-0.035c0.094,0,0.18,0.037,0.258,0.111
		s0.117,0.162,0.117,0.264V22.3H237.779z"/>
	<path fill="#FFF9BF" stroke="#FFF9BF" stroke-width="0.25" stroke-miterlimit="10" d="M247.488,21.201
		c0.102,0,0.188,0.039,0.258,0.116c0.07,0.078,0.105,0.16,0.105,0.246c0,0.062-0.013,0.117-0.035,0.164l-2.392,5.578
		c0,0.008-0.004,0.021-0.012,0.034c0,0.023-0.008,0.048-0.022,0.07l-0.798,1.57c-0.008,0.023-0.022,0.051-0.047,0.082
		c-0.008,0.008-0.016,0.016-0.022,0.023c-0.539,0.531-0.824,0.812-0.855,0.844c-0.016,0.016-0.03,0.027-0.047,0.035l-0.797,0.387
		c-0.055,0.031-0.109,0.047-0.164,0.047h-0.41c-0.102,0-0.188-0.039-0.258-0.117s-0.104-0.164-0.104-0.258s0.036-0.178,0.11-0.252
		s0.158-0.111,0.252-0.111h0.316l0.668-0.34l0.727-0.715l0.691-1.406l-2.332-5.449c-0.031-0.055-0.043-0.112-0.035-0.176
		c0-0.086,0.035-0.168,0.105-0.246c0.069-0.078,0.155-0.117,0.258-0.117h0.012c0.156,0,0.271,0.082,0.34,0.246l2.062,4.806
		l2.086-4.828c0-0.009,0.004-0.013,0.012-0.013c0.07-0.133,0.168-0.207,0.293-0.223c0.008,0,0.016,0,0.023,0h0.012V21.201z"/>
	<path fill="#FFF9BF" stroke="#FFF9BF" stroke-width="0.25" stroke-miterlimit="10" d="M256.156,18.399
		c0.039,0,0.08,0.009,0.123,0.022c0.043,0.016,0.078,0.035,0.104,0.06c0.027,0.024,0.052,0.054,0.07,0.088
		c0.02,0.035,0.033,0.072,0.041,0.111l3.211,8.413c0.008,0.017,0.012,0.035,0.012,0.06s0,0.052,0,0.082
		c0,0.095-0.036,0.179-0.11,0.252c-0.074,0.074-0.174,0.111-0.299,0.111c-0.056,0-0.105-0.015-0.152-0.041
		c-0.047-0.027-0.084-0.062-0.111-0.101c-0.026-0.039-0.045-0.078-0.053-0.117l-0.973-2.565h-3.785l-0.961,2.565
		c-0.017,0.078-0.054,0.142-0.111,0.188c-0.058,0.048-0.127,0.07-0.205,0.07c-0.133,0-0.233-0.039-0.305-0.117
		s-0.105-0.164-0.105-0.258c0-0.07,0.009-0.121,0.023-0.152l3.199-8.401c0.016-0.055,0.032-0.099,0.053-0.129
		c0.02-0.031,0.049-0.06,0.088-0.082c0.062-0.039,0.113-0.06,0.152-0.06H256.156z M256.133,19.817l-1.594,4.22h3.188L256.133,19.817
		z"/>
	<path fill="#FFF9BF" stroke="#FFF9BF" stroke-width="0.25" stroke-miterlimit="10" d="M261.633,21.21
		c0.095,0,0.181,0.037,0.259,0.111c0.077,0.074,0.116,0.162,0.116,0.264V22.3l0.574-0.573c0.031-0.031,0.062-0.056,0.094-0.069
		l0.798-0.388c0.047-0.022,0.094-0.043,0.141-0.06c0.008,0,0.014,0,0.018,0s0.011,0,0.019,0h1.207c0.055,0,0.113,0.021,0.176,0.06
		l0.785,0.388c0.102,0.047,0.164,0.12,0.188,0.223l0.398,1.184c0.016,0.047,0.022,0.09,0.022,0.129v4.02
		c0,0.103-0.036,0.189-0.11,0.265s-0.16,0.11-0.258,0.11c-0.099,0-0.185-0.037-0.259-0.11c-0.073-0.074-0.11-0.162-0.11-0.265V23.24
		l-0.34-0.996l-0.586-0.281h-1.031l-0.668,0.341l-1.056,1.043v3.866c0,0.047-0.01,0.095-0.028,0.142
		c-0.02,0.047-0.047,0.088-0.082,0.123s-0.074,0.062-0.117,0.082s-0.092,0.028-0.146,0.028c-0.095,0-0.179-0.037-0.253-0.11
		c-0.073-0.074-0.11-0.162-0.11-0.265v-5.625c0-0.102,0.039-0.188,0.117-0.258c0.03-0.031,0.067-0.059,0.11-0.082
		C261.543,21.225,261.586,21.21,261.633,21.21z"/>
	<path fill="#FFF9BF" stroke="#FFF9BF" stroke-width="0.25" stroke-miterlimit="10" d="M273.059,21.324
		c0.073-0.074,0.159-0.111,0.258-0.111c0.098,0,0.184,0.037,0.258,0.111c0.074,0.073,0.111,0.161,0.111,0.264v6.434
		c0,0.023-0.002,0.045-0.006,0.064c-0.005,0.019-0.011,0.041-0.019,0.063l-0.397,1.185c-0.023,0.069-0.062,0.129-0.117,0.176
		l-0.422,0.422c-0.017,0.016-0.031,0.027-0.048,0.035l-0.797,0.387c-0.062,0.031-0.121,0.047-0.176,0.047h-1.207
		c-0.055,0-0.113-0.016-0.176-0.047l-0.785-0.387c-0.156-0.062-0.229-0.168-0.223-0.316c0-0.125,0.039-0.223,0.117-0.293
		c0.077-0.07,0.163-0.102,0.258-0.094c0.03,0,0.063,0.004,0.1,0.012s0.064,0.02,0.088,0.035l0.715,0.352h1.031l0.668-0.34
		l0.306-0.305l0.352-1.043v-1.078l-0.176,0.176c-0.031,0.031-0.062,0.055-0.095,0.07l-0.784,0.398
		c-0.062,0.03-0.125,0.047-0.188,0.047h-1.207c-0.055,0-0.113-0.017-0.176-0.047l-0.785-0.398c-0.016-0.008-0.031-0.018-0.047-0.029
		c-0.016-0.011-0.031-0.025-0.047-0.041l-0.81-0.797c-0.03-0.031-0.059-0.078-0.082-0.141v-0.012l-0.397-1.172
		c-0.023-0.062-0.035-0.105-0.035-0.13v-0.022V24c0-0.039,0.008-0.082,0.023-0.129l0.409-1.195c0.023-0.069,0.06-0.125,0.105-0.163
		l0.785-0.785c0.016-0.017,0.029-0.028,0.041-0.041s0.029-0.021,0.053-0.028l0.797-0.388c0.039-0.022,0.078-0.043,0.117-0.06
		c0.016,0,0.031,0,0.047,0h1.207c0.062,0,0.121,0.021,0.176,0.06l0.797,0.388c0.031,0.016,0.062,0.038,0.095,0.069l0.176,0.176
		v-0.315C272.947,21.485,272.984,21.397,273.059,21.324z M270.592,21.96l-0.668,0.34l-0.702,0.703l-0.353,1.043v0.703l0.353,1.043
		l0.702,0.715l0.668,0.341h1.031l0.668-0.341l0.656-0.645v-2.918l-0.656-0.645l-0.668-0.34H270.592L270.592,21.96z"/>
	<path fill="#FFF9BF" stroke="#FFF9BF" stroke-width="0.25" stroke-miterlimit="10" d="M276.91,18.399
		c0.094,0,0.18,0.037,0.258,0.11c0.078,0.074,0.117,0.162,0.117,0.265v8.438c0,0.047-0.01,0.094-0.029,0.141
		c-0.019,0.047-0.047,0.088-0.082,0.123c-0.034,0.035-0.073,0.062-0.116,0.082s-0.093,0.029-0.146,0.029
		c-0.094,0-0.178-0.037-0.252-0.111s-0.111-0.162-0.111-0.264v-8.438c0-0.103,0.035-0.188,0.105-0.258
		c0.031-0.031,0.07-0.06,0.117-0.082S276.863,18.399,276.91,18.399z"/>
	<path fill="#FFF9BF" stroke="#FFF9BF" stroke-width="0.25" stroke-miterlimit="10" d="M281.913,21.21h1.207
		c0.062,0,0.121,0.021,0.176,0.06l0.797,0.388c0.031,0.016,0.062,0.038,0.095,0.069l0.397,0.397c0.023,0.023,0.047,0.051,0.07,0.082
		c0.008,0.008,0.012,0.017,0.012,0.023l0.388,0.797c0.022,0.039,0.036,0.068,0.04,0.088c0.005,0.02,0.007,0.045,0.007,0.076V24
		c0,0.103-0.037,0.189-0.111,0.265s-0.158,0.11-0.252,0.11h-4.453v0.375l0.352,1.043l0.703,0.715l0.668,0.341h1.031l0.668-0.341
		l0.773-0.762c0.008-0.008,0.018-0.018,0.028-0.029c0.012-0.01,0.023-0.021,0.035-0.028c0.013-0.008,0.025-0.015,0.041-0.019
		c0.017-0.004,0.029-0.01,0.041-0.018s0.025-0.014,0.041-0.018c0.017-0.004,0.031-0.006,0.047-0.006
		c0.056,0,0.105,0.012,0.152,0.035c0.047,0.022,0.086,0.051,0.117,0.082c0.031,0.03,0.059,0.069,0.082,0.116
		c0.022,0.048,0.035,0.095,0.035,0.142s-0.009,0.092-0.023,0.135s-0.039,0.084-0.07,0.123c0,0.008-0.004,0.012-0.012,0.012
		l-0.809,0.797c-0.031,0.031-0.062,0.055-0.095,0.07l-0.784,0.398c-0.062,0.03-0.125,0.047-0.188,0.047h-1.207
		c-0.055,0-0.113-0.017-0.176-0.047l-0.785-0.398c-0.016-0.008-0.031-0.018-0.047-0.029c-0.016-0.011-0.031-0.025-0.047-0.041
		l-0.81-0.797c-0.03-0.031-0.059-0.078-0.082-0.141v-0.012l-0.397-1.172c-0.023-0.062-0.035-0.105-0.035-0.13v-0.022V24
		c0-0.047,0.012-0.098,0.035-0.151l0.397-1.173c0.023-0.069,0.06-0.125,0.105-0.163l0.785-0.785
		c0.016-0.017,0.028-0.028,0.041-0.041c0.012-0.013,0.028-0.021,0.053-0.028l0.785-0.388c0.039-0.03,0.07-0.049,0.094-0.054
		C281.853,21.212,281.882,21.21,281.913,21.21z M282.007,21.96l-0.668,0.34l-0.703,0.703l-0.211,0.621h3.938v-0.34l-0.34-0.668
		l-0.316-0.316l-0.668-0.34H282.007z"/>
	<path fill="#FFF9BF" stroke="#FFF9BF" stroke-width="0.25" stroke-miterlimit="10" d="M288.97,21.21h1.206
		c0.023,0,0.046,0.002,0.064,0.006c0.019,0.005,0.049,0.015,0.088,0.029l1.172,0.398c0.086,0.031,0.156,0.098,0.211,0.199
		l0.398,0.762c0.039,0.07,0.055,0.129,0.047,0.176c0,0.008,0,0.016,0,0.023c0,0.094-0.037,0.18-0.111,0.258
		c-0.073,0.078-0.17,0.117-0.287,0.117c-0.141,0-0.241-0.074-0.305-0.223l-0.328-0.668l-0.996-0.328h-1.112l-0.996,0.328
		l-0.234,0.504l0.258,0.526l0.656,0.328l1.992,0.397l0.07,0.035l0.784,0.387l0.048,0.035c0.016,0.017,0.03,0.033,0.047,0.054
		c0.016,0.021,0.03,0.036,0.047,0.053c0.008,0.009,0.012,0.021,0.012,0.035l0.41,0.797c0.031,0.056,0.047,0.108,0.047,0.164v0.397
		c0,0.062-0.016,0.125-0.047,0.188l-0.398,0.772c-0.016,0.031-0.032,0.062-0.053,0.095c-0.02,0.032-0.043,0.055-0.07,0.069
		c-0.026,0.016-0.057,0.027-0.088,0.035l-1.207,0.398c-0.039,0.016-0.078,0.023-0.117,0.023h-1.206c-0.039,0-0.082-0.008-0.13-0.023
		l-1.184-0.398c-0.094-0.022-0.172-0.094-0.234-0.211l-0.387-0.762c-0.031-0.062-0.047-0.129-0.047-0.199
		c0-0.094,0.037-0.178,0.111-0.252c0.073-0.074,0.17-0.111,0.287-0.111c0.141,0,0.241,0.074,0.305,0.224l0.328,0.655l0.996,0.341
		h1.112l0.996-0.341l0.293-0.586v-0.219l-0.315-0.621l-0.656-0.328l-1.945-0.375c-0.008,0-0.016-0.004-0.022-0.012
		c-0.017-0.009-0.027-0.015-0.035-0.019c-0.008-0.005-0.019-0.009-0.029-0.013s-0.024-0.014-0.041-0.028l-0.762-0.375
		c-0.008-0.009-0.021-0.017-0.035-0.022c-0.047-0.039-0.086-0.078-0.117-0.117l-0.022-0.035l-0.41-0.797
		c-0.031-0.056-0.043-0.113-0.035-0.176c0-0.031,0.004-0.062,0.012-0.089c0.008-0.026,0.021-0.057,0.035-0.088l0.398-0.763
		c0.022-0.038,0.049-0.073,0.075-0.104c0.027-0.031,0.05-0.054,0.064-0.064c0.015-0.012,0.031-0.018,0.047-0.018l1.207-0.423
		C288.884,21.218,288.931,21.21,288.97,21.21z"/>
</g>
</svg>
