<?xml version="1.0" encoding="utf-8"?>
<!-- Generator: Adobe Illustrator 16.0.0, SVG Export Plug-In . SVG Version: 6.00 Build 0)  -->
<!DOCTYPE svg PUBLIC "-//W3C//DTD SVG 1.1//EN" "http://www.w3.org/Graphics/SVG/1.1/DTD/svg11.dtd">
<svg version="1.1" id="レイヤー_1" xmlns="http://www.w3.org/2000/svg" xmlns:xlink="http://www.w3.org/1999/xlink" x="0px"
	 y="0px" width="452px" height="200px" viewBox="0 0 452 200" enable-background="new 0 0 452 200" xml:space="preserve">
<path fill="#949494" d="M98.445,109.516c-9.667-11.417-23.696-13.271-36.091-4.979c5.319,5.201,10.7,10.906,16.029,17.201
	c7.678,9.066,14.011,17.631,18.036,26.498C107.208,137.822,108.835,121.786,98.445,109.516 M99.962,159.339
	c1.955,9.886,0.969,20.616-4.561,33.354l-11.031-0.918c4.699-10.024,6.191-18.436,5.168-26.355
	c-7.085,2.883-14.868,3.43-24.243,1.657l-4.166-10.763c10.297,2.643,18.49,1.931,25.604-1.346
	c-3.481-8.229-9.455-16.357-17.128-25.432c-5.333-6.295-10.625-11.895-15.958-16.896c-9.875,12.567-11.765,31.758-5.271,53.918
	c0.735,3.041,2.048,5.232,3.308,6.729c1.93,1.845,4.271,3.527,7.702,5.206l-5.062,9.598c-11.544-4.333-18.813-9.896-26.316-18.754
	c-8.578-10.135-15.466-20.433-23.044-35.442l9.782-5.537c6.569,14.039,12.531,23.459,19.038,31.146
	c2.075,2.454,2.809,3.31,3.827,4.083c-5.853-22.699-2.856-43.188,8.469-57.727c-5.479-4.522-11.012-8.448-16.763-12.002l7.196-9.026
	c6.332,3.8,12.232,7.962,17.891,12.698c17.759-14.301,38.539-12.477,52.902,4.491c14.272,16.856,11.953,41.168-5.117,55.623
	C101.44,158.271,100.798,158.818,99.962,159.339"/>
<path fill="#949494" d="M187.767,63.236c20.295-5.802,33.877,1.514,37.984,15.891c4.956,17.342-5.85,37.006-43.311,50.913
	l-7.104-7.565c33.23-12.408,42.927-26.812,39.271-39.582c-2.608-9.136-11.177-13.665-25.56-9.554
	c-13.168,3.762-28.876,14.938-46.46,24.625l-6.938-8.485C154.975,79.735,174.192,67.118,187.767,63.236"/>
<path fill="#949494" d="M326.92,14.271C312.267,29.63,294.553,44.67,275.98,58.5c-2.581,1.841-3.669,2.854-3.796,4.105
	c-0.12,1.109,0.743,2.328,2.923,4.375c20.059,19.497,33.6,36.776,44.488,55.186l-11.646,6.671
	c-10.427-18.925-22.489-35.485-43.614-56.919c-4.573-4.688-6.005-7.225-5.689-10.286c0.288-2.78,2.259-5.528,7.586-9.476
	c17.977-13.474,36.231-29.722,50.875-46.344L326.92,14.271z"/>
<path fill="#949494" d="M446.729,56.96c-3.659,15.594-8.265,27.951-13.645,39.328c-11.83,25.021-26.559,46.358-65.409,51.345
	l-4.871-10.961c35.872-3.918,47.925-21.882,58.979-45.266c5.441-11.5,9.562-23.161,13.239-37.815L446.729,56.96z M393.523,88.714
	c-7.087,4.851-14.288,10.259-20.604,15.774l-10.495-2.334c-0.515-11.993,1.86-23.241,6.765-33.604
	c5.021-10.618,11.773-21.962,23.132-37.163l9.913,6.854c-10.77,13.931-17.222,24.645-21.823,34.375
	c-2.81,5.938-5.038,12.619-5.718,18.639c5.537-4.189,11.315-8.57,17.777-13.396L393.523,88.714z"/>
</svg>
