<?xml version="1.0" encoding="utf-8"?>
<!-- Generator: Adobe Illustrator 16.0.0, SVG Export Plug-In . SVG Version: 6.00 Build 0)  -->
<!DOCTYPE svg PUBLIC "-//W3C//DTD SVG 1.1//EN" "http://www.w3.org/Graphics/SVG/1.1/DTD/svg11.dtd">
<svg version="1.1" id="レイヤー_1" xmlns="http://www.w3.org/2000/svg" xmlns:xlink="http://www.w3.org/1999/xlink" x="0px"
	 y="0px" width="38.062px" height="31.495px" viewBox="0 0 38.062 31.495" enable-background="new 0 0 38.062 31.495"
	 xml:space="preserve">
<g>
	<path fill="#949494" d="M7.792,4.283c0,0.684,0.022,0.959,0.022,1.015c0,0.077-0.011,0.088-0.088,0.088
		c-0.055,0-0.331-0.022-1.104-0.022H4.637v3.839c0,1.577,0.022,2.228,0.022,2.294c0,0.077-0.011,0.088-0.088,0.088H4.052
		c-0.077,0-0.088-0.011-0.088-0.088c0-0.066,0.022-0.717,0.022-2.294V4.415c0-1.578-0.022-2.25-0.022-2.317
		c0-0.077,0.011-0.088,0.088-0.088c0.066,0,0.43,0.022,1.247,0.022h1.324c0.772,0,1.048-0.022,1.104-0.022
		c0.077,0,0.088,0.011,0.088,0.088c0,0.066-0.022,0.342-0.022,1.015V4.283z M7.163,2.573H4.637v0.849h2.526V2.573z M7.163,3.952
		H4.637v0.882h2.526V3.952z M11.3,7.416c0,0.077-0.011,0.088-0.088,0.088c-0.055,0-0.397-0.022-1.456-0.022H9.425l0.022,1.191
		C9.458,9.368,9.48,9.898,9.48,10.218c0,0.298-0.033,0.519-0.231,0.673c-0.166,0.144-0.486,0.21-1.302,0.21
		c-0.199,0-0.199,0-0.254-0.21c-0.044-0.154-0.11-0.309-0.188-0.43c0.243,0.022,0.441,0.033,0.816,0.033
		c0.452,0,0.529-0.11,0.529-0.419L8.84,8.673V7.758c-0.806,1.136-1.743,1.908-3.034,2.559c-0.077,0.033-0.132,0.066-0.166,0.066
		c-0.044,0-0.066-0.044-0.132-0.144C5.409,10.085,5.321,9.986,5.2,9.898c1.401-0.629,2.471-1.412,3.199-2.416H7.141
		c-1.059,0-1.401,0.011-1.456,0.011c-0.077,0-0.088,0-0.088-0.077V6.997c0-0.077,0.011-0.088,0.088-0.088
		c0.055,0,0.397,0.022,1.456,0.022h1.655c0-0.441-0.022-0.916-0.066-1.169c0.253,0.011,0.463,0.033,0.673,0.066
		c0.088,0.011,0.132,0.055,0.132,0.099c0,0.077-0.033,0.122-0.066,0.199C9.425,6.224,9.403,6.445,9.403,6.93h0.353
		c1.059,0,1.401-0.022,1.456-0.022c0.077,0,0.088,0.011,0.088,0.088V7.416z M12.834,8.685c0,0.695,0.033,1.269,0.033,1.688
		c0,0.486-0.077,0.673-0.287,0.839c-0.209,0.176-0.452,0.22-1.335,0.22c-0.199,0-0.199,0-0.254-0.209s-0.11-0.342-0.198-0.485
		c0.287,0.033,0.541,0.044,0.805,0.044c0.485,0,0.585-0.088,0.585-0.529V5.364h-2.041c-0.861,0-1.136,0.022-1.191,0.022
		c-0.088,0-0.1-0.011-0.1-0.088c0-0.055,0.022-0.265,0.022-0.949V3.047c0-0.673-0.022-0.882-0.022-0.949
		c0-0.077,0.011-0.088,0.1-0.088c0.055,0,0.331,0.022,1.191,0.022h1.434c0.85,0,1.136-0.022,1.191-0.022
		c0.077,0,0.088,0.011,0.088,0.088c0,0.066-0.022,0.507-0.022,1.578V8.685z M12.183,2.573H9.502v0.849h2.681V2.573z M12.183,3.952
		H9.502v0.882h2.681V3.952z"/>
	<path fill="#949494" d="M17.759,2.451c0.121,0.033,0.176,0.088,0.176,0.166c0,0.088-0.044,0.177-0.088,0.287
		c-0.044,0.133-0.088,0.475-0.132,1.137c-0.099,1.666-0.166,3.133-0.166,4.622c0,1.346,0.342,1.688,1.302,1.688
		c1.401,0,2.835-0.849,3.972-2.107c0.033,0.254,0.122,0.474,0.188,0.64c0.022,0.066,0.044,0.11,0.044,0.155
		c0,0.066-0.033,0.121-0.133,0.209c-1.158,1.114-2.625,1.854-4.203,1.854c-1.247,0-1.919-0.596-1.919-2.218
		c0-1.566,0.099-3.365,0.154-4.92c0.022-0.684,0.033-1.158-0.088-1.666C17.196,2.33,17.539,2.374,17.759,2.451z M21.201,3.234
		c0.044-0.033,0.066-0.022,0.11,0.011c0.441,0.309,0.927,0.85,1.247,1.335c0.033,0.044,0.022,0.088-0.022,0.121l-0.32,0.265
		C22.161,5.011,22.106,5,22.073,4.944c-0.32-0.541-0.783-1.059-1.28-1.412L21.201,3.234z M22.117,2.518
		c0.044-0.033,0.077-0.044,0.122-0.011c0.441,0.342,0.938,0.828,1.257,1.291c0.033,0.055,0.022,0.088-0.033,0.132l-0.298,0.265
		c-0.044,0.044-0.088,0.044-0.133-0.022c-0.275-0.453-0.75-0.993-1.269-1.379L22.117,2.518z"/>
	<path fill="#949494" d="M29.072,6.654c0.794-0.519,1.578-0.783,2.372-0.783c1.589,0,2.57,0.982,2.57,2.416
		c0,1.644-1.302,2.835-3.64,2.835c-1.324,0-1.92-0.596-1.92-1.302c0-0.574,0.508-1.125,1.291-1.125c0.993,0,1.666,0.64,1.875,1.578
		c0.949-0.309,1.61-0.927,1.61-2.008c0-1.125-0.86-1.809-1.908-1.809c-1.092,0-2.185,0.562-3.034,1.247
		c-0.353,0.276-0.64,0.574-0.971,0.904c-0.088,0.088-0.144,0.1-0.221,0.022c-0.132-0.132-0.298-0.298-0.408-0.441
		c-0.044-0.055-0.033-0.099,0.044-0.166c0.871-0.761,1.434-1.324,2.493-2.46c0.64-0.695,1.302-1.401,2.151-2.405
		c-0.916,0.144-1.776,0.309-2.758,0.497c-0.144,0.022-0.276,0.055-0.386,0.099c-0.077,0.033-0.166,0.055-0.209,0.055
		c-0.077,0-0.132-0.044-0.176-0.132c-0.1-0.199-0.177-0.408-0.265-0.761c0.364,0.044,0.673,0.044,0.971,0.011
		c0.871-0.088,1.776-0.21,2.747-0.397c0.133-0.022,0.265-0.055,0.342-0.099c0.044-0.033,0.11-0.077,0.154-0.077
		c0.055,0,0.11,0.022,0.199,0.088c0.209,0.165,0.375,0.331,0.474,0.463c0.055,0.066,0.077,0.133,0.077,0.188
		c0,0.088-0.055,0.165-0.165,0.209c-0.144,0.044-0.265,0.121-0.519,0.386c-0.982,1.037-1.721,1.809-2.824,2.935L29.072,6.654z
		 M29.767,9.291c-0.353,0-0.673,0.177-0.673,0.519c0,0.364,0.397,0.673,1.136,0.673c0.243,0,0.463-0.011,0.717-0.055
		C30.804,9.799,30.396,9.291,29.767,9.291z"/>
</g>
<g>
	<path fill="#949494" d="M5.887,16.399h1.605c0.055,0,0.109,0.012,0.164,0.035l0.797,0.41c0.008,0.008,0.02,0.016,0.035,0.023
		s0.031,0.016,0.047,0.023c0.008,0.008,0.016,0.016,0.023,0.023c0.531,0.539,0.812,0.824,0.844,0.855
		c0.008,0.008,0.014,0.016,0.018,0.023s0.01,0.016,0.018,0.023l0.387,0.785c0.031,0.062,0.047,0.129,0.047,0.199
		c0,0.094-0.037,0.178-0.111,0.252s-0.17,0.111-0.287,0.111c-0.141,0-0.242-0.074-0.305-0.223l-0.375-0.738l-0.715-0.727
		l-0.668-0.34H5.969l-0.668,0.34l-0.715,0.727l-0.363,0.715l-0.375,1.125v1.91l0.375,1.113l0.363,0.715l0.715,0.727l0.668,0.34H7.41
		l0.668-0.34l0.715-0.727l0.375-0.738c0.031-0.07,0.072-0.125,0.123-0.164s0.111-0.059,0.182-0.059c0.125,0,0.223,0.039,0.293,0.117
		s0.105,0.16,0.105,0.246c0,0.07-0.016,0.137-0.047,0.199l-0.387,0.785c-0.016,0.031-0.043,0.066-0.082,0.105l-0.797,0.797
		c-0.008,0.008-0.02,0.018-0.035,0.029s-0.031,0.021-0.047,0.029s-0.027,0.012-0.035,0.012L7.68,25.528
		c-0.07,0.039-0.133,0.059-0.188,0.059H5.887c-0.055,0-0.109-0.016-0.164-0.047l-0.809-0.398c-0.031-0.016-0.062-0.039-0.094-0.07
		l-0.809-0.797c-0.031-0.031-0.055-0.07-0.07-0.117l-0.398-0.785c0-0.008-0.004-0.016-0.012-0.023v-0.012c0-0.008,0-0.016,0-0.023
		l-0.41-1.172c-0.016-0.047-0.023-0.074-0.023-0.082s0-0.027,0-0.059v-2.016c0-0.008,0-0.018,0-0.029S3.1,19.932,3.104,19.92
		s0.008-0.023,0.012-0.035s0.006-0.025,0.006-0.041l0.41-1.184c0-0.008,0.004-0.016,0.012-0.023v-0.012l0.398-0.809
		c0.016-0.031,0.039-0.062,0.07-0.094l0.809-0.809c0.031-0.031,0.062-0.055,0.094-0.07l0.809-0.41
		c0.023-0.016,0.049-0.025,0.076-0.029S5.855,16.399,5.887,16.399z"/>
	<path fill="#949494" d="M12.412,16.399c0.094,0,0.18,0.037,0.258,0.111s0.117,0.162,0.117,0.264v8.438
		c0,0.047-0.01,0.094-0.029,0.141s-0.047,0.088-0.082,0.123s-0.074,0.062-0.117,0.082s-0.092,0.029-0.146,0.029
		c-0.094,0-0.178-0.037-0.252-0.111s-0.111-0.162-0.111-0.264v-8.438c0-0.102,0.035-0.188,0.105-0.258
		c0.031-0.031,0.07-0.059,0.117-0.082S12.365,16.399,12.412,16.399z"/>
	<path fill="#949494" d="M17.368,19.211h1.254c0.062,0,0.121,0.02,0.176,0.059l0.797,0.387c0.031,0.016,0.062,0.039,0.094,0.07
		l0.809,0.809c0.031,0.031,0.055,0.07,0.07,0.117l0.012,0.012l0.398,1.184c0.023,0.062,0.035,0.105,0.035,0.129
		c0,0.008,0,0.016,0,0.023v0.797c0,0.039-0.008,0.078-0.023,0.117l-0.41,1.207c-0.023,0.07-0.055,0.125-0.094,0.164l-0.797,0.785
		c-0.031,0.031-0.062,0.055-0.094,0.07L18.81,25.54c-0.062,0.031-0.125,0.047-0.188,0.047h-1.207c-0.055,0-0.113-0.016-0.176-0.047
		l-0.785-0.398c-0.016-0.008-0.031-0.018-0.047-0.029s-0.031-0.025-0.047-0.041l-0.809-0.797c-0.031-0.031-0.059-0.078-0.082-0.141
		v-0.012l-0.398-1.172c-0.023-0.062-0.035-0.105-0.035-0.129v-0.023V22c0-0.039,0.008-0.082,0.023-0.129l0.41-1.195
		c0.023-0.07,0.059-0.125,0.105-0.164l0.785-0.785l0.094-0.07l0.762-0.387l0.07-0.035C17.31,19.219,17.337,19.211,17.368,19.211z
		 M17.509,19.961l-0.668,0.34l-0.703,0.703l-0.352,1.043v0.703l0.352,1.043l0.703,0.715l0.668,0.34h1.031l0.668-0.34l0.703-0.715
		l0.352-1.043v-0.703l-0.352-1.043l-0.703-0.703l-0.668-0.34H17.509z"/>
	<path fill="#949494" d="M24.986,19.211h1.207c0.023,0,0.045,0.002,0.064,0.006s0.049,0.014,0.088,0.029l1.172,0.398
		c0.086,0.031,0.156,0.098,0.211,0.199l0.398,0.762c0.039,0.07,0.055,0.129,0.047,0.176c0,0.008,0,0.016,0,0.023
		c0,0.094-0.037,0.18-0.111,0.258s-0.17,0.117-0.287,0.117c-0.141,0-0.242-0.074-0.305-0.223l-0.328-0.668l-0.996-0.328h-1.113
		l-0.996,0.328l-0.234,0.504l0.258,0.527l0.656,0.328l1.992,0.398l0.07,0.035l0.785,0.387l0.047,0.035
		c0.016,0.016,0.031,0.033,0.047,0.053s0.031,0.037,0.047,0.053c0.008,0.008,0.012,0.02,0.012,0.035l0.41,0.797
		c0.031,0.055,0.047,0.109,0.047,0.164v0.398c0,0.062-0.016,0.125-0.047,0.188l-0.398,0.773c-0.016,0.031-0.033,0.062-0.053,0.094
		s-0.043,0.055-0.07,0.07s-0.057,0.027-0.088,0.035l-1.207,0.398c-0.039,0.016-0.078,0.023-0.117,0.023h-1.207
		c-0.039,0-0.082-0.008-0.129-0.023l-1.184-0.398c-0.094-0.023-0.172-0.094-0.234-0.211l-0.387-0.762
		c-0.031-0.062-0.047-0.129-0.047-0.199c0-0.094,0.037-0.178,0.111-0.252s0.17-0.111,0.287-0.111c0.141,0,0.242,0.074,0.305,0.223
		l0.328,0.656l0.996,0.34h1.113l0.996-0.34l0.293-0.586V23.7l-0.316-0.621l-0.656-0.328l-1.945-0.375
		c-0.008,0-0.016-0.004-0.023-0.012c-0.016-0.008-0.027-0.014-0.035-0.018s-0.018-0.008-0.029-0.012s-0.025-0.014-0.041-0.029
		l-0.762-0.375c-0.008-0.008-0.02-0.016-0.035-0.023c-0.047-0.039-0.086-0.078-0.117-0.117l-0.023-0.035l-0.41-0.797
		c-0.031-0.055-0.043-0.113-0.035-0.176c0-0.031,0.004-0.061,0.012-0.088s0.02-0.057,0.035-0.088l0.398-0.762
		c0.023-0.039,0.049-0.074,0.076-0.105s0.049-0.053,0.064-0.064s0.031-0.018,0.047-0.018l1.207-0.422
		C24.9,19.219,24.947,19.211,24.986,19.211z"/>
	<path fill="#949494" d="M32.604,19.211h1.207c0.062,0,0.121,0.02,0.176,0.059l0.797,0.387c0.031,0.016,0.062,0.039,0.094,0.07
		l0.398,0.398c0.023,0.023,0.047,0.051,0.07,0.082c0.008,0.008,0.012,0.016,0.012,0.023l0.387,0.797
		c0.023,0.039,0.037,0.068,0.041,0.088s0.006,0.045,0.006,0.076V22c0,0.102-0.037,0.189-0.111,0.264s-0.158,0.111-0.252,0.111
		h-4.453v0.375l0.352,1.043l0.703,0.715l0.668,0.34h1.031l0.668-0.34l0.773-0.762c0.008-0.008,0.018-0.018,0.029-0.029
		s0.023-0.021,0.035-0.029s0.025-0.014,0.041-0.018s0.029-0.01,0.041-0.018s0.025-0.014,0.041-0.018s0.031-0.006,0.047-0.006
		c0.055,0,0.105,0.012,0.152,0.035s0.086,0.051,0.117,0.082s0.059,0.07,0.082,0.117s0.035,0.094,0.035,0.141
		s-0.008,0.092-0.023,0.135s-0.039,0.084-0.07,0.123c0,0.008-0.004,0.012-0.012,0.012l-0.809,0.797
		c-0.031,0.031-0.062,0.055-0.094,0.07l-0.785,0.398c-0.062,0.031-0.125,0.047-0.188,0.047h-1.207c-0.055,0-0.113-0.016-0.176-0.047
		l-0.785-0.398c-0.016-0.008-0.031-0.018-0.047-0.029s-0.031-0.025-0.047-0.041l-0.809-0.797c-0.031-0.031-0.059-0.078-0.082-0.141
		v-0.012L30.26,22.95c-0.023-0.062-0.035-0.105-0.035-0.129v-0.023V22c0-0.047,0.012-0.098,0.035-0.152l0.398-1.172
		c0.023-0.07,0.059-0.125,0.105-0.164l0.785-0.785c0.016-0.016,0.029-0.029,0.041-0.041s0.029-0.021,0.053-0.029l0.785-0.387
		c0.039-0.031,0.07-0.049,0.094-0.053S32.572,19.211,32.604,19.211z M32.697,19.961l-0.668,0.34l-0.703,0.703l-0.211,0.621h3.938
		v-0.34l-0.34-0.668l-0.316-0.316l-0.668-0.34H32.697z"/>
</g>
</svg>
