<?xml version="1.0" encoding="utf-8"?>
<!-- Generator: Adobe Illustrator 16.0.0, SVG Export Plug-In . SVG Version: 6.00 Build 0)  -->
<!DOCTYPE svg PUBLIC "-//W3C//DTD SVG 1.1//EN" "http://www.w3.org/Graphics/SVG/1.1/DTD/svg11.dtd">
<svg version="1.1" id="レイヤー_1" xmlns="http://www.w3.org/2000/svg" xmlns:xlink="http://www.w3.org/1999/xlink" x="0px"
	 y="0px" width="125.214px" height="31.495px" viewBox="0 0 125.214 31.495" enable-background="new 0 0 125.214 31.495"
	 xml:space="preserve">
<g>
	<path fill="#FFF9BF" d="M4.926,5.353c1.269,0.364,2.493,0.883,3.596,1.534C8.61,6.93,8.632,6.985,8.599,7.062
		C8.522,7.261,8.423,7.46,8.334,7.603c-0.066,0.088-0.11,0.11-0.209,0.044c-1.026-0.673-2.207-1.191-3.21-1.479v2.56
		c0,0.673,0.022,1.533,0.033,2.25c0.011,0.11-0.022,0.144-0.144,0.144c-0.166,0.011-0.386,0.011-0.562,0
		c-0.122,0-0.154-0.033-0.154-0.155c0.033-0.706,0.044-1.566,0.044-2.239V3.819c0-0.828-0.044-1.39-0.121-1.765
		c0.386,0.033,0.717,0.077,0.916,0.143c0.176,0.044,0.132,0.166,0.077,0.331C4.937,2.716,4.926,3.047,4.926,3.753V5.353z"/>
	<path fill="#FFF9BF" d="M11.56,5.342c0.088-0.044,0.132-0.022,0.198,0.055c0.364,0.463,0.662,0.949,0.905,1.544
		c0.044,0.11,0.044,0.132-0.055,0.198c-0.144,0.088-0.276,0.144-0.419,0.199c-0.099,0.044-0.143,0-0.176-0.088
		c-0.231-0.551-0.562-1.169-0.949-1.644C11.262,5.496,11.427,5.408,11.56,5.342z M17.451,5.353c0.099,0.077,0.11,0.177,0.011,0.265
		c-0.11,0.099-0.188,0.243-0.32,0.529c-0.474,1.081-1.004,2.063-1.622,2.846c-0.684,0.883-1.324,1.489-2.229,2.096
		c-0.077,0.055-0.177,0.077-0.243,0.011c-0.166-0.133-0.342-0.221-0.574-0.276c1.147-0.75,1.787-1.324,2.471-2.195
		c0.596-0.761,1.147-1.765,1.5-2.714c0.099-0.287,0.143-0.53,0.188-0.905C16.911,5.088,17.274,5.22,17.451,5.353z M13.722,4.834
		c0.077-0.033,0.132-0.022,0.188,0.066c0.309,0.419,0.618,0.982,0.828,1.533c0.033,0.088,0.011,0.133-0.078,0.177
		c-0.121,0.066-0.275,0.144-0.441,0.209c-0.077,0.033-0.11,0-0.155-0.099c-0.231-0.607-0.474-1.125-0.849-1.633
		C13.446,4.967,13.59,4.889,13.722,4.834z"/>
	<path fill="#FFF9BF" d="M22.167,4.293c-0.651,0-1.258,0.022-1.854,0.066c-0.132,0.011-0.177-0.033-0.199-0.177
		C20.104,4.029,20.07,3.687,20.059,3.5c0.684,0.066,1.302,0.088,2.118,0.088h3.905c0.32,0,0.431-0.033,0.552-0.099
		c0.088-0.055,0.199-0.044,0.287,0.011c0.188,0.132,0.364,0.298,0.496,0.452c0.088,0.121,0.077,0.243-0.033,0.342
		c-0.1,0.088-0.166,0.199-0.243,0.375c-0.53,1.401-1.302,2.648-2.163,3.619c-0.894,1.004-1.909,1.909-3.276,2.659
		c-0.132,0.088-0.276,0.088-0.375-0.022c-0.133-0.132-0.342-0.276-0.574-0.375c1.688-0.838,2.637-1.666,3.563-2.725
		c0.827-0.927,1.61-2.151,2.074-3.53H22.167z M29.37,2.528c0,0.618-0.496,1.114-1.114,1.114c-0.618,0-1.114-0.496-1.114-1.114
		c0-0.618,0.496-1.114,1.114-1.114C28.874,1.414,29.37,1.911,29.37,2.528z M27.561,2.528c0,0.386,0.309,0.695,0.695,0.695
		c0.386,0,0.695-0.309,0.695-0.695c0-0.386-0.309-0.695-0.695-0.695C27.87,1.833,27.561,2.143,27.561,2.528z"/>
	<path fill="#FFF9BF" d="M31.637,6.379c0.386-0.386,0.971-0.982,1.567-1.589c0.265-0.265,0.419-0.353,0.651-0.353
		c0.221,0,0.397,0.066,0.673,0.298c1.412,1.203,3.244,2.504,5.064,3.619c0.099,0.055,0.11,0.121,0.066,0.209
		c-0.11,0.221-0.231,0.408-0.342,0.552c-0.055,0.077-0.11,0.099-0.199,0.033c-1.754-1.203-3.442-2.46-4.998-3.751
		c-0.066-0.055-0.132-0.122-0.221-0.122c-0.099,0-0.154,0.044-0.209,0.099c-0.497,0.497-1.104,1.137-1.854,1.942
		c-0.254,0.276-0.375,0.441-0.474,0.596c-0.066,0.11-0.155,0.122-0.254,0.044c-0.177-0.132-0.419-0.353-0.64-0.584
		C30.732,7.206,31.185,6.831,31.637,6.379z M38.885,4.117c0,0.618-0.497,1.114-1.114,1.114c-0.618,0-1.114-0.497-1.114-1.114
		s0.496-1.114,1.114-1.114C38.389,3.003,38.885,3.5,38.885,4.117z M37.076,4.117c0,0.386,0.309,0.695,0.695,0.695
		c0.386,0,0.695-0.309,0.695-0.695s-0.309-0.695-0.695-0.695C37.385,3.422,37.076,3.731,37.076,4.117z"/>
	<path fill="#FFF9BF" d="M43.656,7.096c-0.959,0-1.423,0.11-1.489,0.11c-0.099,0-0.154-0.044-0.188-0.154
		c-0.044-0.188-0.088-0.541-0.11-0.838c0.673,0.088,1.522,0.099,2.438,0.099h3.387c0.761,0,1.577-0.011,2.416-0.033
		c0.132-0.011,0.165,0.011,0.165,0.132c0.011,0.166,0.011,0.397,0,0.574c0,0.122-0.033,0.144-0.165,0.132
		c-0.828-0.022-1.644-0.022-2.383-0.022H43.656z"/>
	<path fill="#FFF9BF" d="M53.314,5.364c0.044-0.077,0.099-0.099,0.188-0.077c0.717,0.265,1.346,0.596,1.942,1.004
		c0.11,0.077,0.099,0.143,0.055,0.231c-0.078,0.155-0.188,0.342-0.287,0.475c-0.066,0.088-0.121,0.099-0.209,0.022
		c-0.607-0.475-1.302-0.838-2.03-1.114C53.115,5.695,53.237,5.474,53.314,5.364z M55.024,9.589c1.015-0.529,1.997-1.103,3.034-1.897
		c0.949-0.739,2.151-1.809,3.145-3.056c0.044,0.287,0.099,0.463,0.209,0.717c0.055,0.11,0.033,0.199-0.055,0.298
		c-0.927,1.081-1.887,1.92-2.913,2.703c-0.982,0.761-2.063,1.412-3.221,2.063c-0.243,0.132-0.419,0.253-0.53,0.375
		c-0.099,0.099-0.209,0.077-0.309-0.033c-0.144-0.166-0.353-0.474-0.519-0.739C54.251,9.931,54.594,9.81,55.024,9.589z
		 M54.616,2.849c0.066-0.1,0.099-0.1,0.199-0.055c0.684,0.287,1.324,0.695,1.919,1.147c0.099,0.077,0.088,0.122,0.033,0.221
		c-0.088,0.144-0.209,0.353-0.32,0.475c-0.066,0.077-0.11,0.055-0.199-0.022c-0.541-0.496-1.258-0.938-1.975-1.247
		C54.384,3.212,54.505,3.003,54.616,2.849z M59.415,2.374c0.044-0.033,0.078-0.033,0.122,0c0.441,0.309,0.927,0.85,1.247,1.335
		c0.033,0.044,0.022,0.088-0.022,0.121l-0.32,0.265c-0.055,0.044-0.11,0.033-0.144-0.022c-0.32-0.541-0.783-1.059-1.28-1.412
		L59.415,2.374z M60.341,1.646c0.044-0.033,0.077-0.044,0.122-0.011c0.441,0.342,0.938,0.828,1.257,1.291
		c0.033,0.055,0.022,0.088-0.033,0.132L61.39,3.323c-0.044,0.044-0.088,0.044-0.132-0.022c-0.276-0.452-0.75-0.993-1.269-1.379
		L60.341,1.646z"/>
	<path fill="#FFF9BF" d="M64.296,6.5c0.552-0.463,1.247-1.07,1.986-1.743c0.331-0.32,0.562-0.408,0.816-0.408
		c0.342,0,0.519,0.122,0.816,0.364c0.882,0.706,1.655,1.346,2.56,2.008c0.849,0.596,1.544,1.048,2.427,1.522
		c0.077,0.044,0.1,0.088,0.077,0.144c-0.077,0.198-0.209,0.441-0.32,0.606c-0.055,0.077-0.11,0.088-0.188,0.033
		C71.831,8.629,70.882,8,70.132,7.438c-0.827-0.618-1.655-1.324-2.46-1.997c-0.221-0.199-0.386-0.309-0.563-0.309
		c-0.154,0-0.287,0.1-0.474,0.276c-0.651,0.618-1.456,1.379-1.997,1.887c-0.176,0.176-0.275,0.276-0.364,0.397
		c-0.077,0.11-0.166,0.11-0.254,0.022c-0.166-0.154-0.419-0.474-0.574-0.695C63.755,6.897,63.998,6.754,64.296,6.5z"/>
	<path fill="#FFF9BF" d="M77.992,8.938c0,1.125,0.596,1.512,1.71,1.512c1.191,0,2.207-0.541,2.207-1.699
		c0-0.584-0.188-1.147-1.015-1.975c0.265,0.022,0.441-0.011,0.684-0.044c0.077-0.011,0.132-0.011,0.188,0.033
		c0.673,0.662,0.916,1.346,0.916,1.997c0,1.489-1.257,2.394-2.857,2.394c-1.721,0-2.526-0.75-2.526-2.207
		c0-0.397,0.066-0.905,0.11-1.368c-0.706-0.088-1.225-0.188-1.754-0.342c-0.055-0.011-0.088-0.044-0.099-0.144
		c-0.022-0.199-0.022-0.419-0.011-0.618c0.673,0.243,1.225,0.342,1.953,0.419c0.1-0.684,0.188-1.324,0.254-1.897
		c-0.717-0.077-1.313-0.166-1.875-0.353c-0.077-0.022-0.088-0.033-0.099-0.143c-0.011-0.166-0.022-0.397-0.022-0.618
		c0.706,0.254,1.401,0.353,2.118,0.43c0.088-0.596,0.121-0.86,0.166-1.334c0.044-0.32,0.055-0.629,0.011-0.938
		c0.32,0.055,0.673,0.177,0.86,0.265c0.1,0.044,0.166,0.11,0.166,0.177c0,0.055-0.033,0.099-0.077,0.154
		c-0.088,0.1-0.144,0.221-0.198,0.519c-0.078,0.43-0.133,0.75-0.199,1.213c0.485,0.033,1.048,0.022,1.544-0.022
		c0.044,0,0.066,0.022,0.066,0.088c0,0.166,0,0.353-0.011,0.507c0,0.088-0.044,0.11-0.11,0.11c-0.519,0.033-1.136,0.033-1.611,0.011
		c-0.088,0.541-0.188,1.213-0.287,1.886c0.618,0.022,1.203,0.033,1.787-0.022c0.099-0.011,0.132,0.011,0.132,0.077
		c0,0.122-0.011,0.353-0.022,0.485c-0.011,0.1-0.044,0.122-0.099,0.122c-0.574,0.044-1.269,0.033-1.887,0.011
		C78.058,8.066,77.992,8.596,77.992,8.938z"/>
	<path fill="#FFF9BF" d="M89.15,2.473c0.088,0.022,0.132,0.088,0.132,0.144c0,0.11-0.055,0.209-0.055,0.386
		c0.011,0.243,0.033,0.463,0.066,0.706c0.1,0.794,0.232,1.533,0.431,2.229c0.651-0.32,1.312-0.629,1.963-0.993
		c0.353-0.198,0.485-0.309,0.64-0.507c0.221,0.209,0.419,0.419,0.562,0.618c0.088,0.132,0.066,0.287-0.132,0.309
		c-0.276,0.044-0.64,0.199-0.971,0.353c-0.806,0.375-1.754,0.827-2.504,1.258c-1.114,0.651-1.633,1.224-1.633,1.997
		c0,0.982,0.927,1.225,2.592,1.213c1.026-0.011,2.019-0.11,2.835-0.231c0.099-0.011,0.132,0.011,0.154,0.099
		c0.033,0.177,0.055,0.386,0.066,0.574c0.011,0.099-0.033,0.144-0.154,0.154c-0.905,0.1-1.699,0.155-2.935,0.155
		c-1.909,0-3.288-0.419-3.288-1.931c0-1.059,0.75-1.875,2.151-2.725c-0.243-0.816-0.475-1.953-0.585-2.824
		c-0.066-0.507-0.121-0.783-0.243-1.081C88.577,2.385,88.918,2.418,89.15,2.473z M92.835,2.518c0.044-0.033,0.077-0.022,0.122,0.011
		c0.441,0.309,0.926,0.85,1.247,1.335c0.033,0.044,0.022,0.088-0.022,0.122l-0.32,0.265c-0.055,0.044-0.11,0.033-0.144-0.022
		c-0.32-0.541-0.783-1.059-1.279-1.412L92.835,2.518z M93.762,1.8c0.044-0.033,0.077-0.044,0.121-0.011
		c0.441,0.342,0.938,0.828,1.258,1.291c0.033,0.055,0.022,0.088-0.033,0.132L94.81,3.477c-0.044,0.044-0.088,0.044-0.132-0.022
		c-0.276-0.452-0.75-0.993-1.269-1.379L93.762,1.8z"/>
	<path fill="#FFF9BF" d="M99.867,6.654c0.794-0.519,1.578-0.783,2.372-0.783c1.589,0,2.57,0.982,2.57,2.416
		c0,1.644-1.302,2.835-3.64,2.835c-1.324,0-1.92-0.596-1.92-1.302c0-0.574,0.508-1.125,1.291-1.125c0.993,0,1.666,0.64,1.875,1.578
		c0.949-0.309,1.61-0.927,1.61-2.008c0-1.125-0.86-1.809-1.908-1.809c-1.092,0-2.185,0.562-3.034,1.247
		c-0.353,0.276-0.64,0.574-0.971,0.904c-0.088,0.088-0.144,0.1-0.221,0.022c-0.132-0.132-0.298-0.298-0.408-0.441
		c-0.044-0.055-0.033-0.099,0.044-0.166c0.871-0.761,1.434-1.324,2.493-2.46c0.64-0.695,1.302-1.401,2.151-2.405
		c-0.916,0.144-1.776,0.309-2.758,0.497c-0.144,0.022-0.276,0.055-0.386,0.099c-0.077,0.033-0.166,0.055-0.209,0.055
		c-0.077,0-0.132-0.044-0.176-0.132c-0.1-0.199-0.177-0.408-0.265-0.761c0.364,0.044,0.673,0.044,0.971,0.011
		c0.871-0.088,1.776-0.21,2.747-0.397c0.133-0.022,0.265-0.055,0.342-0.099c0.044-0.033,0.11-0.077,0.154-0.077
		c0.055,0,0.11,0.022,0.199,0.088c0.209,0.165,0.375,0.331,0.474,0.463c0.055,0.066,0.077,0.133,0.077,0.188
		c0,0.088-0.055,0.165-0.165,0.209c-0.144,0.044-0.265,0.121-0.519,0.386c-0.982,1.037-1.721,1.809-2.824,2.935L99.867,6.654z
		 M100.562,9.291c-0.353,0-0.673,0.177-0.673,0.519c0,0.364,0.397,0.673,1.136,0.673c0.243,0,0.463-0.011,0.717-0.055
		C101.6,9.799,101.191,9.291,100.562,9.291z"/>
</g>
<g>
	<path fill="#FFF9BF" d="M3.811,16.774c0-0.109,0.031-0.195,0.094-0.258h0.012c0.016-0.016,0.027-0.027,0.035-0.035l0.012-0.012
		c0.031-0.023,0.064-0.041,0.1-0.053s0.072-0.018,0.111-0.018h3.621c0.039,0,0.078,0.008,0.117,0.023l1.195,0.41
		c0.016,0.008,0.035,0.016,0.059,0.023s0.045,0.02,0.064,0.035s0.033,0.027,0.041,0.035l0.387,0.387
		c0.023,0.023,0.047,0.051,0.07,0.082c0.008,0.008,0.012,0.016,0.012,0.023l0.387,0.773c0.031,0.062,0.047,0.125,0.047,0.188v0.809
		c0,0.055-0.016,0.109-0.047,0.164l-0.387,0.797c-0.008,0.016-0.02,0.033-0.035,0.053s-0.027,0.031-0.035,0.035
		s-0.016,0.01-0.023,0.018L9.26,20.653c-0.031,0.031-0.078,0.059-0.141,0.082l-0.164,0.059l0.152,0.059
		c0.07,0.023,0.125,0.055,0.164,0.094l0.387,0.387c0.023,0.023,0.047,0.051,0.07,0.082c0.008,0.008,0.012,0.016,0.012,0.023
		l0.387,0.773c0.031,0.062,0.047,0.125,0.047,0.188v1.207c0,0.055-0.012,0.109-0.035,0.164l-0.398,0.797
		c-0.016,0.031-0.043,0.066-0.082,0.105L9.26,25.071c-0.023,0.023-0.062,0.051-0.117,0.082c-0.008,0-0.014,0.002-0.018,0.006
		s-0.01,0.006-0.018,0.006l-1.172,0.398c-0.055,0.016-0.102,0.023-0.141,0.023H4.174c-0.109,0-0.195-0.031-0.258-0.094
		c-0.016-0.016-0.031-0.039-0.047-0.07c-0.031-0.047-0.049-0.084-0.053-0.111s-0.006-0.061-0.006-0.1V16.774z M4.549,17.137v3.281
		h3.199l1.043-0.352l0.305-0.305l0.34-0.668v-0.633l-0.34-0.668L8.792,17.5l-1.043-0.363H4.549z M4.549,21.168v3.68h3.199
		l1.043-0.352l0.305-0.305l0.34-0.668v-1.031l-0.34-0.668L8.792,21.52l-1.043-0.352H4.549z"/>
	<path fill="#FFF9BF" d="M16.692,19.323c0.074-0.074,0.111-0.111,0.111-0.111s0.049,0,0.146,0s0.184,0.037,0.258,0.111
		s0.111,0.162,0.111,0.264v5.625c0,0.102-0.037,0.189-0.111,0.264s-0.16,0.111-0.258,0.111s-0.184-0.037-0.258-0.111
		s-0.111-0.162-0.111-0.264v-0.316l-0.176,0.176c-0.031,0.031-0.062,0.055-0.094,0.07l-0.785,0.398
		c-0.062,0.031-0.125,0.047-0.188,0.047h-1.207c-0.055,0-0.113-0.016-0.176-0.047l-0.785-0.398
		c-0.016-0.008-0.031-0.018-0.047-0.029s-0.031-0.025-0.047-0.041l-0.809-0.797c-0.031-0.031-0.059-0.078-0.082-0.141v-0.012
		l-0.398-1.172c-0.023-0.062-0.035-0.105-0.035-0.129v-0.023V22c0-0.039,0.008-0.082,0.023-0.129l0.41-1.195
		c0.023-0.07,0.059-0.125,0.105-0.164l0.785-0.785c0.016-0.016,0.029-0.029,0.041-0.041s0.029-0.021,0.053-0.029l0.797-0.387
		c0.039-0.023,0.078-0.043,0.117-0.059c0.016,0,0.031,0,0.047,0h1.207c0.062,0,0.121,0.02,0.176,0.059l0.797,0.387
		c0.031,0.016,0.062,0.039,0.094,0.07l0.176,0.176v-0.316C16.581,19.485,16.618,19.397,16.692,19.323z M14.225,19.961l-0.668,0.34
		l-0.703,0.703l-0.352,1.043v0.703l0.352,1.043l0.703,0.715l0.668,0.34h1.031l0.668-0.34l0.656-0.645v-2.918l-0.656-0.645
		l-0.668-0.34H14.225z"/>
	<path fill="#FFF9BF" d="M22.136,19.211h1.207c0.062,0,0.121,0.02,0.176,0.059l0.797,0.387c0.031,0.016,0.062,0.039,0.094,0.07
		l0.809,0.809c0.078,0.078,0.117,0.164,0.117,0.258s-0.043,0.18-0.129,0.258c-0.078,0.078-0.164,0.117-0.258,0.117
		c-0.023,0-0.045-0.002-0.064-0.006s-0.037-0.01-0.053-0.018s-0.033-0.018-0.053-0.029s-0.035-0.023-0.047-0.035
		s-0.025-0.025-0.041-0.041l-0.762-0.738l-0.668-0.34h-1.031l-0.668,0.34l-0.703,0.703l-0.352,1.043v0.703l0.352,1.043l0.703,0.715
		l0.668,0.34h1.031l0.668-0.34l0.773-0.762c0.008-0.008,0.018-0.018,0.029-0.029s0.023-0.021,0.035-0.029s0.025-0.014,0.041-0.018
		s0.029-0.01,0.041-0.018s0.025-0.014,0.041-0.018s0.031-0.006,0.047-0.006c0.055,0,0.105,0.012,0.152,0.035
		s0.086,0.051,0.117,0.082s0.059,0.07,0.082,0.117s0.035,0.094,0.035,0.141s-0.008,0.092-0.023,0.135s-0.039,0.084-0.07,0.123
		c0,0.008-0.004,0.012-0.012,0.012l-0.809,0.797c-0.031,0.031-0.062,0.055-0.094,0.07L23.53,25.54
		c-0.062,0.031-0.125,0.047-0.188,0.047h-1.207c-0.055,0-0.113-0.016-0.176-0.047l-0.785-0.398
		c-0.016-0.008-0.031-0.018-0.047-0.029s-0.031-0.025-0.047-0.041l-0.809-0.797c-0.031-0.031-0.059-0.078-0.082-0.141v-0.012
		l-0.398-1.172c-0.023-0.062-0.035-0.105-0.035-0.129v-0.023V22c0-0.039,0.008-0.082,0.023-0.129l0.41-1.195
		c0.023-0.07,0.059-0.125,0.105-0.164l0.785-0.785c0.016-0.016,0.029-0.029,0.041-0.041s0.029-0.021,0.053-0.029l0.785-0.387
		c0.039-0.031,0.07-0.049,0.094-0.053S22.104,19.211,22.136,19.211z"/>
	<path fill="#FFF9BF" d="M27.91,16.399c0.094,0,0.18,0.037,0.258,0.111s0.117,0.162,0.117,0.264v5.941l3.387-3.387
		c0.078-0.078,0.166-0.117,0.264-0.117s0.184,0.037,0.258,0.111s0.111,0.162,0.111,0.264c0,0.047-0.012,0.094-0.035,0.141
		s-0.055,0.09-0.094,0.129l-2.145,2.168l2.59,2.953c0.055,0.07,0.082,0.148,0.082,0.234c0,0.102-0.037,0.189-0.111,0.264
		s-0.166,0.111-0.275,0.111s-0.199-0.047-0.27-0.141l-2.555-2.906l-1.207,1.219v1.453c0,0.047-0.01,0.094-0.029,0.141
		s-0.047,0.088-0.082,0.123s-0.074,0.062-0.117,0.082s-0.092,0.029-0.146,0.029c-0.094,0-0.178-0.037-0.252-0.111
		s-0.111-0.162-0.111-0.264v-8.438c0-0.102,0.039-0.188,0.117-0.258c0.031-0.031,0.068-0.059,0.111-0.082
		S27.863,16.399,27.91,16.399z"/>
	<path fill="#FFF9BF" d="M39.449,16.399c0.094,0,0.18,0.037,0.258,0.111s0.117,0.162,0.117,0.264v2.438h1.242
		c0.102,0,0.188,0.039,0.258,0.117s0.105,0.164,0.105,0.258c0,0.102-0.037,0.189-0.111,0.264s-0.158,0.111-0.252,0.111h-1.242v3.598
		l0.328,0.996l0.598,0.293h0.715c0.102,0,0.189,0.037,0.264,0.111s0.111,0.16,0.111,0.258s-0.037,0.184-0.111,0.258
		s-0.162,0.111-0.264,0.111h-0.809c-0.055,0-0.113-0.016-0.176-0.047l-0.773-0.398c-0.109-0.055-0.176-0.125-0.199-0.211
		l-0.398-1.184c-0.016-0.055-0.023-0.094-0.023-0.117c0-0.008,0-0.016,0-0.023v-3.645h-0.832c-0.102,0-0.189-0.037-0.264-0.111
		s-0.111-0.162-0.111-0.264s0.037-0.189,0.111-0.264s0.162-0.111,0.264-0.111h0.832v-2.438c0-0.047,0.01-0.094,0.029-0.141
		s0.047-0.088,0.082-0.123s0.074-0.062,0.117-0.082S39.402,16.399,39.449,16.399z"/>
	<path fill="#FFF9BF" d="M45.713,19.211h1.254c0.062,0,0.121,0.02,0.176,0.059l0.797,0.387c0.031,0.016,0.062,0.039,0.094,0.07
		l0.809,0.809c0.031,0.031,0.055,0.07,0.07,0.117l0.012,0.012l0.398,1.184c0.023,0.062,0.035,0.105,0.035,0.129
		c0,0.008,0,0.016,0,0.023v0.797c0,0.039-0.008,0.078-0.023,0.117l-0.41,1.207c-0.023,0.07-0.055,0.125-0.094,0.164l-0.797,0.785
		c-0.031,0.031-0.062,0.055-0.094,0.07l-0.785,0.398c-0.062,0.031-0.125,0.047-0.188,0.047H45.76c-0.055,0-0.113-0.016-0.176-0.047
		l-0.785-0.398c-0.016-0.008-0.031-0.018-0.047-0.029s-0.031-0.025-0.047-0.041l-0.809-0.797c-0.031-0.031-0.059-0.078-0.082-0.141
		v-0.012l-0.398-1.172c-0.023-0.062-0.035-0.105-0.035-0.129v-0.023V22c0-0.039,0.008-0.082,0.023-0.129l0.41-1.195
		c0.023-0.07,0.059-0.125,0.105-0.164l0.785-0.785l0.094-0.07l0.762-0.387l0.07-0.035C45.655,19.219,45.682,19.211,45.713,19.211z
		 M45.854,19.961l-0.668,0.34l-0.703,0.703l-0.352,1.043v0.703l0.352,1.043l0.703,0.715l0.668,0.34h1.031l0.668-0.34l0.703-0.715
		l0.352-1.043v-0.703l-0.352-1.043l-0.703-0.703l-0.668-0.34H45.854z"/>
	<path fill="#FFF9BF" d="M54.025,16.399h5.637c0.102,0,0.188,0.039,0.258,0.117s0.105,0.164,0.105,0.258s-0.037,0.178-0.111,0.252
		s-0.158,0.111-0.252,0.111h-2.449v8.074c0,0.102-0.037,0.189-0.111,0.264s-0.16,0.111-0.258,0.111s-0.184-0.037-0.258-0.111
		s-0.111-0.162-0.111-0.264v-8.074h-2.449c-0.102,0-0.188-0.039-0.258-0.117s-0.105-0.16-0.105-0.246
		c0-0.094,0.037-0.18,0.111-0.258S53.931,16.399,54.025,16.399z"/>
	<path fill="#FFF9BF" d="M62.428,19.211h1.254c0.062,0,0.121,0.02,0.176,0.059l0.797,0.387c0.031,0.016,0.062,0.039,0.094,0.07
		l0.809,0.809c0.031,0.031,0.055,0.07,0.07,0.117l0.012,0.012l0.398,1.184c0.023,0.062,0.035,0.105,0.035,0.129
		c0,0.008,0,0.016,0,0.023v0.797c0,0.039-0.008,0.078-0.023,0.117l-0.41,1.207c-0.023,0.07-0.055,0.125-0.094,0.164l-0.797,0.785
		c-0.031,0.031-0.062,0.055-0.094,0.07L63.87,25.54c-0.062,0.031-0.125,0.047-0.188,0.047h-1.207c-0.055,0-0.113-0.016-0.176-0.047
		l-0.785-0.398c-0.016-0.008-0.031-0.018-0.047-0.029s-0.031-0.025-0.047-0.041l-0.809-0.797c-0.031-0.031-0.059-0.078-0.082-0.141
		v-0.012l-0.398-1.172c-0.023-0.062-0.035-0.105-0.035-0.129v-0.023V22c0-0.039,0.008-0.082,0.023-0.129l0.41-1.195
		c0.023-0.07,0.059-0.125,0.105-0.164l0.785-0.785l0.094-0.07l0.762-0.387l0.07-0.035C62.37,19.219,62.397,19.211,62.428,19.211z
		 M62.569,19.961l-0.668,0.34l-0.703,0.703l-0.352,1.043v0.703l0.352,1.043l0.703,0.715l0.668,0.34H63.6l0.668-0.34l0.703-0.715
		l0.352-1.043v-0.703l-0.352-1.043l-0.703-0.703l-0.668-0.34H62.569z"/>
	<path fill="#FFF9BF" d="M68.874,19.211c0.094,0,0.18,0.037,0.258,0.111s0.117,0.162,0.117,0.264v0.316l0.176-0.176
		c0.016-0.016,0.029-0.029,0.041-0.041s0.029-0.021,0.053-0.029l0.797-0.387c0.039-0.023,0.078-0.043,0.117-0.059
		c0.016,0,0.031,0,0.047,0h1.207c0.062,0,0.121,0.02,0.176,0.059l0.797,0.387c0.031,0.016,0.062,0.039,0.094,0.07l0.809,0.809
		c0.031,0.031,0.055,0.07,0.07,0.117l0.012,0.012l0.398,1.184c0.023,0.062,0.035,0.105,0.035,0.129c0,0.008,0,0.016,0,0.023v0.797
		c0,0.039-0.008,0.078-0.023,0.117l-0.41,1.207c-0.023,0.07-0.055,0.125-0.094,0.164l-0.797,0.785
		c-0.031,0.031-0.062,0.055-0.094,0.07l-0.785,0.398c-0.062,0.031-0.125,0.047-0.188,0.047h-1.207c-0.055,0-0.113-0.016-0.176-0.047
		l-0.785-0.398c-0.016-0.008-0.031-0.018-0.047-0.029s-0.031-0.025-0.047-0.041l-0.176-0.176v3.141c0,0.102-0.039,0.188-0.117,0.258
		s-0.164,0.105-0.258,0.105c-0.023,0-0.047-0.002-0.07-0.006s-0.045-0.012-0.064-0.023s-0.039-0.025-0.059-0.041
		s-0.037-0.031-0.053-0.047c-0.031-0.031-0.059-0.068-0.082-0.111s-0.035-0.088-0.035-0.135v-8.449c0-0.102,0.039-0.188,0.117-0.258
		c0.031-0.031,0.068-0.059,0.111-0.082S68.827,19.211,68.874,19.211z M70.573,19.961l-0.668,0.34l-0.656,0.645v2.918l0.656,0.645
		l0.668,0.34h1.031l0.668-0.34l0.703-0.715l0.352-1.043v-0.703l-0.352-1.043l-0.703-0.703l-0.668-0.34H70.573z"/>
</g>
</svg>
