<?xml version="1.0" encoding="utf-8"?>
<!-- Generator: Adobe Illustrator 16.0.0, SVG Export Plug-In . SVG Version: 6.00 Build 0)  -->
<!DOCTYPE svg PUBLIC "-//W3C//DTD SVG 1.1//EN" "http://www.w3.org/Graphics/SVG/1.1/DTD/svg11.dtd">
<svg version="1.1" id="レイヤー_1" xmlns="http://www.w3.org/2000/svg" xmlns:xlink="http://www.w3.org/1999/xlink" x="0px"
	 y="0px" width="488.16px" height="170.079px" viewBox="0 0 488.16 170.079" enable-background="new 0 0 488.16 170.079"
	 xml:space="preserve">
<path fill="#949494" d="M47.906,144.052C39.999,133.101,19.17,103.788,5,83.935l9.942-7.179
	c14.153,20.537,33.24,47.206,43.003,60.723c9.844,13.623,18.062,14.654,29.234,6.589c10.947-7.906,18.323-21.219,19.699-42.611
	l10.28,6.006c-1.929,21.785-9.996,36.278-23.4,45.957C76.564,165.843,62.023,163.599,47.906,144.052"/>
<path fill="#949494" d="M180.309,46.667c20.326-4.479,33.244,3.539,36.418,17.941c3.825,17.364-8.004,36.06-45.708,47.477
	l-6.535-7.873c33.461-10.199,43.87-23.785,41.054-36.571c-2.017-9.152-10.172-14.128-24.57-10.954
	c-13.193,2.905-29.323,12.956-47.214,21.41l-6.307-8.768C147.039,60.919,166.715,49.667,180.309,46.667"/>
<path fill="#949494" d="M347.166,44.812l10.059-4.021c12.094,17.766,15.494,33.366,13.463,57.067l-12.428-0.462
	C360.571,75.34,357.829,60.491,347.166,44.812 M279.885,100.904l3.753-9.269c6.33,5.679,10.77,8.285,14.765,9.355
	c3.464,0.92,5.708,0.518,9.636-2.993c5.836-5.294,12.674-19.728,16.968-35.842c2.413-9.056,0.387-12.158-8.529-14.538
	c-2.268-0.604-5.138-1.084-8.272-1.626c-14.144,22.041-30.666,42.31-47.644,57.328l-8.704-8.029
	c15.749-13.057,31.066-30.944,44.109-50.999c-8.178-0.892-17.392-1.636-26.34-2.309l-0.267-10.769
	c11.708,1.553,22.779,2.789,32.257,4.174c6.106-10.069,11.48-20.615,16.159-31.211l10.991,4.79
	c-4.521,9.486-9.654,19.096-15.244,28.306c2.566,0.541,4.728,0.974,6.728,1.511c16.644,4.43,20.247,11.239,16.172,26.556
	c-4.541,17.046-11.898,32.343-19.504,40.019c-6.654,6.777-12.761,8.286-19.156,6.585
	C292.442,110.525,287.135,107.399,279.885,100.904"/>
<path fill="#949494" d="M425.398,114.182c-7.921,2.973-16.086,6.469-23.428,10.271l-9.501-4.699
	c2.323-11.6,7.241-21.817,14.362-30.582c7.298-8.99,16.422-18.265,30.858-30.146l7.877,8.875
	c-13.57,10.814-22.263,19.554-28.95,27.793c-4.081,5.026-7.786,10.896-9.846,16.501c6.285-2.708,12.839-5.552,20.162-8.658
	L425.398,114.182z M483.785,96.267c-7.166,14.065-14.472,24.814-22.288,34.445c-17.196,21.179-36.305,38.149-74.662,33.807
	l-2.09-11.635c35.255,4.664,51.011-9.706,67.079-29.496c7.903-9.737,14.585-19.934,21.542-33.095L483.785,96.267z"/>
</svg>
