<?xml version="1.0" encoding="utf-8"?>
<!-- Generator: Adobe Illustrator 16.0.0, SVG Export Plug-In . SVG Version: 6.00 Build 0)  -->
<!DOCTYPE svg PUBLIC "-//W3C//DTD SVG 1.1//EN" "http://www.w3.org/Graphics/SVG/1.1/DTD/svg11.dtd">
<svg version="1.1" id="レイヤー_1" xmlns="http://www.w3.org/2000/svg" xmlns:xlink="http://www.w3.org/1999/xlink" x="0px"
	 y="0px" width="510.5px" height="596px" viewBox="0 0 510.5 596" enable-background="new 0 0 510.5 596" xml:space="preserve">
<polygon fill="#FFF9BF" points="403.76,429.524 403.76,535.186 323.657,429.524 303.682,429.524 303.682,560.42 321.482,560.42 
	321.482,454.758 401.582,560.42 421.559,560.42 421.559,429.524 "/>
<polygon fill="#FFF9BF" points="87.865,102.49 49.031,36.848 29.515,36.848 78.797,119.049 78.797,167.739 96.539,167.739 
	96.539,119.049 145.82,36.848 126.896,36.848 "/>
<path fill="#FFF9BF" d="M386.146,265.094c5.525,16.202,20.816,33.537,53.059,33.537c32.06,0,48.452-19.029,48.452-37.684
	c0-18.465-13.449-31.654-35.925-34.104l-23.028-2.449c-14.368-1.508-22.658-7.537-22.658-19.03
	c0-11.305,10.869-20.915,30.026-20.915c15.845,0,29.293,7.349,34.083,17.711h18.058c-5.159-15.261-21.558-33.538-51.586-33.538
	c-29.106,0-47.162,15.45-47.162,37.495c0,17.712,10.134,31.089,34.267,33.729l21.371,2.261c17.502,1.884,25.978,7.914,25.978,19.784
	c0,12.059-13.265,20.914-31.87,20.914c-16.213,0-29.479-6.973-35.002-17.711H386.146z"/>
</svg>
