<?xml version="1.0" encoding="UTF-8" standalone="no"?>
<!DOCTYPE svg PUBLIC "-//W3C//DTD SVG 1.1//EN" "http://www.w3.org/Graphics/SVG/1.1/DTD/svg11.dtd">
<svg width="100%" height="100%" viewBox="0 0 645 964" version="1.1" xmlns="http://www.w3.org/2000/svg" xmlns:xlink="http://www.w3.org/1999/xlink" xml:space="preserve" xmlns:serif="http://www.serif.com/" style="fill-rule:evenodd;clip-rule:evenodd;stroke-linejoin:round;stroke-miterlimit:2;">
    <g id="Artboard2" transform="matrix(0.617816,0,0,2.98452,699.985632,-44.767802)">
        <rect x="-1133" y="15" width="1044" height="323" style="fill:none;"/>
        <g transform="matrix(0.769107,0,0,0.182135,-1306.496661,-79.084893)">
            <path d="M355.224,546L648.706,546C651.584,546 654.461,546.539 657.338,547.617C660.215,548.695 662.682,550.132 664.737,551.929C666.792,553.725 668.334,555.791 669.361,558.126C670.389,560.462 670.903,562.887 670.903,565.402C670.903,567.199 670.594,568.906 669.978,570.522C669.361,572.139 668.539,573.666 667.511,575.104C666.484,576.541 665.353,577.798 664.12,578.876C662.065,580.673 659.702,582.11 657.03,583.188C654.358,584.266 651.584,584.805 648.706,584.805L524.161,584.805L524.161,949.677C524.161,955.067 521.901,959.738 517.379,963.69C512.858,967.643 507.72,969.619 501.965,969.619C496.211,969.619 491.073,967.643 486.551,963.69C482.03,959.738 479.769,955.067 479.769,949.677L479.769,584.805L355.224,584.805C349.058,584.805 343.715,582.649 339.193,578.337C335.083,574.385 333.028,570.073 333.028,565.402C333.028,562.887 333.644,560.462 334.877,558.126C336.111,555.791 337.755,553.725 339.81,551.929C341.865,550.132 344.229,548.695 346.9,547.617C349.572,546.539 352.347,546 355.224,546Z" style="fill:rgb(255,249,191);fill-rule:nonzero;"/>
            <path d="M982.882,673.732C984.526,673.732 985.965,673.912 987.198,674.271C988.431,674.631 989.767,675.08 991.205,675.619C992.644,676.158 993.877,676.786 994.905,677.505C995.932,678.224 997.063,678.942 998.296,679.661C1000.351,681.457 1001.995,683.613 1003.228,686.128C1004.461,688.643 1005.078,691.159 1005.078,693.674L1005.078,949.677C1005.078,955.067 1002.817,959.738 998.296,963.69C993.774,967.643 988.636,969.619 982.882,969.619C980.004,969.619 977.127,969.08 974.25,968.002C971.373,966.924 968.906,965.487 966.851,963.69C962.33,959.738 960.275,955.067 960.686,949.677L960.686,941.593L956.37,945.366C954.726,946.803 952.876,947.881 950.821,948.599L910.128,966.924C906.428,968.72 902.523,969.619 898.413,969.619L835.524,969.619C833.88,969.619 832.133,969.349 830.283,968.81C828.434,968.271 826.687,967.643 825.042,966.924L784.35,948.599L778.8,945.366L736.874,909.256C734.819,907.459 732.97,904.944 731.325,901.71L731.325,901.171L710.362,847.815C709.129,844.94 708.513,842.246 708.513,839.731L708.513,803.621C708.513,802.543 708.615,801.465 708.821,800.387C709.026,799.309 709.335,798.231 709.746,797.153L731.325,742.18C731.736,740.742 732.558,739.215 733.792,737.599C735.025,735.982 736.463,734.634 738.108,733.556L778.8,698.524C780.445,697.087 782.294,695.83 784.35,694.752L825.659,676.966C828.125,675.888 830.592,674.99 833.058,674.271C833.88,673.912 834.702,673.732 835.524,673.732L898.413,673.732C902.112,673.732 905.812,674.81 909.511,676.966L950.821,694.752C952.876,695.47 954.726,696.728 956.37,698.524L960.686,701.758L960.686,693.674C960.686,691.159 961.199,688.643 962.227,686.128C963.255,683.613 964.796,681.457 966.851,679.661C968.906,677.864 971.373,676.427 974.25,675.349C977.127,674.271 980.004,673.732 982.882,673.732ZM841.69,713.615L807.779,728.167L772.018,759.426L754.138,806.315L754.138,837.036L772.018,883.925L807.779,915.723L841.69,930.814L893.481,930.814L927.391,915.723L960.686,887.698L960.686,756.731L927.391,728.167L893.481,713.615L841.69,713.615Z" style="fill:rgb(255,249,191);fill-rule:nonzero;"/>
            <path d="M1189.873,673.732C1195.628,673.732 1200.766,675.709 1205.287,679.661C1209.809,683.613 1212.069,688.284 1212.069,693.674L1212.069,701.758L1216.385,698.524C1218.029,697.087 1219.879,695.83 1221.934,694.752L1263.244,676.966C1265.71,675.888 1268.176,674.99 1270.643,674.271C1271.465,673.912 1272.287,673.732 1273.109,673.732L1335.998,673.732C1339.697,673.732 1343.397,674.81 1347.096,676.966L1388.406,694.752C1390.461,695.47 1392.31,696.728 1393.955,698.524L1435.881,735.173C1437.525,736.61 1439.169,738.587 1440.813,741.102C1441.224,741.461 1441.43,741.82 1441.43,742.18L1461.776,795.536C1463.009,798.411 1463.626,801.105 1463.626,803.621L1463.626,843.234C1463.626,843.773 1463.523,844.312 1463.318,844.851C1463.112,845.39 1462.804,845.839 1462.393,846.198L1441.43,901.171C1440.197,904.764 1438.141,907.639 1435.264,909.795L1393.955,945.366C1393.543,945.725 1393.03,946.084 1392.413,946.444C1391.797,946.803 1391.18,947.252 1390.563,947.791C1389.947,948.33 1389.228,948.599 1388.406,948.599L1347.713,966.924C1344.013,968.72 1340.108,969.619 1335.998,969.619L1273.109,969.619C1271.465,969.619 1269.718,969.349 1267.868,968.81C1266.018,968.271 1264.271,967.643 1262.627,966.924L1221.934,948.599L1216.385,945.366L1212.069,941.593L1212.069,1078.488C1212.069,1083.877 1209.809,1088.548 1205.287,1092.5C1200.766,1096.094 1195.628,1097.89 1189.873,1097.89C1184.119,1097.89 1178.981,1095.914 1174.459,1091.962C1169.938,1088.009 1167.677,1083.518 1167.677,1078.488L1167.677,693.674C1167.677,691.159 1168.294,688.643 1169.527,686.128C1170.76,683.613 1172.404,681.457 1174.459,679.661C1175.281,678.942 1176.309,678.224 1177.542,677.505C1178.775,676.786 1180.008,676.158 1181.241,675.619C1182.475,675.08 1183.81,674.631 1185.249,674.271C1186.688,673.912 1188.229,673.732 1189.873,673.732ZM1279.274,713.615L1245.364,728.167L1212.069,756.731L1212.069,887.698L1245.364,915.723L1279.274,930.814L1331.065,930.814L1364.976,915.723L1400.737,883.925L1418.617,837.036L1418.617,806.315L1400.737,759.426L1364.976,728.167L1331.065,713.615L1279.274,713.615Z" style="fill:rgb(255,249,191);fill-rule:nonzero;"/>
            <path d="M660.717,1128.551C666.471,1128.551 671.609,1130.527 676.131,1134.479C680.652,1138.431 682.913,1142.923 682.913,1147.953L682.913,1256.283L744.569,1256.283C750.735,1256.283 756.078,1258.439 760.6,1262.75C764.71,1266.703 766.765,1271.194 766.765,1276.224C766.765,1281.614 764.505,1286.285 759.983,1290.237C755.462,1294.189 750.324,1296.166 744.569,1296.166L682.913,1296.166L682.913,1456.774L699.56,1500.43L729.155,1513.365L765.532,1513.365C771.698,1513.365 776.938,1515.341 781.254,1519.293C785.57,1523.245 787.728,1527.737 787.728,1532.767C787.728,1537.797 785.468,1542.288 780.946,1546.241C776.425,1550.193 771.287,1552.169 765.532,1552.169L722.989,1552.169C721.345,1552.169 719.598,1551.9 717.749,1551.361C715.899,1550.822 714.152,1550.193 712.508,1549.475L672.432,1531.689C665.855,1528.815 661.745,1525.222 660.1,1520.91L639.754,1466.475C638.521,1463.96 638.11,1461.625 638.521,1459.469L638.521,1296.166L597.828,1296.166C591.662,1296.166 586.421,1294.189 582.106,1290.237C577.79,1286.285 575.632,1281.614 575.632,1276.224C575.632,1273.709 576.248,1271.194 577.481,1268.679C578.714,1266.164 580.359,1264.008 582.414,1262.211C584.469,1260.415 586.833,1258.978 589.504,1257.9C592.176,1256.822 594.951,1256.283 597.828,1256.283L638.521,1256.283L638.521,1147.953C638.521,1145.438 639.137,1143.013 640.37,1140.677C641.604,1138.342 643.248,1136.276 645.303,1134.479C646.125,1133.76 647.153,1132.952 648.386,1132.054C649.619,1131.156 650.852,1130.437 652.085,1129.898C653.318,1129.359 654.654,1129 656.093,1128.82C657.531,1128.64 659.073,1128.551 660.717,1128.551Z" style="fill:rgb(255,249,191);fill-rule:nonzero;"/>
            <path d="M1007.692,1256.283L1072.431,1256.283C1076.13,1256.283 1079.83,1257.361 1083.529,1259.517L1124.839,1277.302C1126.894,1278.021 1128.743,1279.278 1130.388,1281.075L1172.314,1317.724C1173.958,1319.161 1175.602,1321.137 1177.246,1323.652C1177.657,1324.012 1177.863,1324.371 1177.863,1324.73L1198.209,1378.087C1199.442,1380.961 1200.059,1383.656 1200.059,1386.171L1200.059,1425.784C1200.059,1426.323 1199.956,1426.862 1199.751,1427.401C1199.545,1427.94 1199.237,1428.389 1198.826,1428.749L1177.863,1483.722C1176.63,1487.315 1174.574,1490.189 1171.697,1492.345L1130.388,1527.916C1129.977,1528.276 1129.463,1528.635 1128.846,1528.994C1128.23,1529.354 1127.613,1529.803 1126.996,1530.342C1126.38,1530.881 1125.661,1531.15 1124.839,1531.15L1084.146,1549.475C1080.446,1551.271 1076.541,1552.169 1072.431,1552.169L1009.542,1552.169C1007.898,1552.169 1006.151,1551.9 1004.301,1551.361C1002.451,1550.822 1000.704,1550.193 999.06,1549.475L958.367,1531.15L952.818,1527.916L910.892,1491.806C908.837,1490.01 906.987,1487.495 905.343,1484.261L905.343,1483.722L884.38,1430.365C883.147,1427.491 882.531,1424.796 882.531,1422.281L882.531,1386.171C882.531,1385.093 882.633,1384.015 882.839,1382.937C883.044,1381.859 883.353,1380.782 883.764,1379.704L905.343,1324.73C905.754,1323.293 906.576,1321.766 907.809,1320.149C909.043,1318.532 910.481,1317.185 912.125,1316.107L952.818,1281.075C953.229,1280.716 953.743,1280.266 954.36,1279.728C954.976,1279.189 955.593,1278.739 956.209,1278.38C956.826,1278.021 957.545,1277.662 958.367,1277.302L997.827,1259.517L1001.527,1257.9C1001.938,1257.541 1002.862,1257.181 1004.301,1256.822C1005.74,1256.463 1006.87,1256.283 1007.692,1256.283ZM1015.707,1296.166L981.797,1310.717L946.036,1341.977L928.156,1388.866L928.156,1419.586L946.036,1466.475L981.797,1498.274L1015.707,1513.365L1067.498,1513.365L1101.409,1498.274L1137.17,1466.475L1155.05,1419.586L1155.05,1388.866L1137.17,1341.977L1101.409,1310.717L1067.498,1296.166L1015.707,1296.166Z" style="fill:rgb(255,249,191);fill-rule:nonzero;"/>
            <path d="M544.064,1711.101L586.606,1711.101C592.772,1711.101 598.013,1713.077 602.329,1717.03C606.645,1720.982 608.803,1725.473 608.803,1730.504C608.803,1733.019 608.186,1735.444 606.953,1737.779C605.72,1740.115 604.076,1742.181 602.02,1743.977C599.965,1745.774 597.602,1747.211 594.93,1748.289C592.258,1749.367 589.484,1749.906 586.606,1749.906L550.229,1749.906L520.635,1762.302L503.987,1806.496L503.987,1838.834L565.643,1838.834C571.809,1838.834 577.153,1840.989 581.674,1845.301C585.784,1849.253 587.84,1853.745 587.84,1858.775C587.84,1864.164 585.579,1868.835 581.057,1872.788C576.536,1876.74 571.398,1878.716 565.643,1878.716L503.987,1878.716L503.987,2114.779C503.987,2120.168 501.727,2124.839 497.205,2128.791C492.684,2132.744 487.546,2134.72 481.791,2134.72C476.037,2134.72 470.899,2132.744 466.377,2128.791C461.856,2124.839 459.595,2120.168 459.595,2114.779L459.595,1878.716L418.902,1878.716C412.737,1878.716 407.496,1876.74 403.18,1872.788C398.864,1868.835 396.706,1864.164 396.706,1858.775C396.706,1856.26 397.323,1853.745 398.556,1851.23C399.789,1848.714 401.433,1846.559 403.488,1844.762C405.543,1842.966 407.907,1841.528 410.579,1840.45C413.25,1839.373 416.025,1838.834 418.902,1838.834L459.595,1838.834L459.595,1803.801C459.595,1801.646 460.006,1799.31 460.828,1796.795L481.175,1742.9C482.819,1737.869 487.135,1733.917 494.122,1731.043L533.582,1713.796C536.049,1712.718 537.898,1711.999 539.131,1711.64C540.364,1711.281 542.009,1711.101 544.064,1711.101Z" style="fill:rgb(255,249,191);fill-rule:nonzero;"/>
            <path d="M749.847,1711.101C755.601,1711.101 760.739,1713.077 765.261,1717.03C769.782,1720.982 772.043,1725.473 772.043,1730.504L772.043,2114.779C772.043,2120.168 769.782,2124.839 765.261,2128.791C760.739,2132.744 755.601,2134.72 749.847,2134.72C744.092,2134.72 738.954,2132.744 734.433,2128.791C729.911,2124.839 727.651,2120.168 727.651,2114.779L727.651,1730.504C727.651,1727.988 728.267,1725.563 729.5,1723.228C730.733,1720.892 732.378,1718.826 734.433,1717.03C736.488,1715.233 738.852,1713.796 741.523,1712.718C744.195,1711.64 746.97,1711.101 749.847,1711.101Z" style="fill:rgb(255,249,191);fill-rule:nonzero;"/>
            <path d="M952.202,1742.361C957.545,1743.079 962.272,1745.594 966.383,1749.906L985.496,1766.614C987.551,1768.41 989.195,1770.386 990.428,1772.542C991.662,1774.698 992.278,1777.123 992.278,1779.818C992.278,1782.513 991.662,1785.028 990.428,1787.363C989.195,1789.699 987.346,1791.765 984.879,1793.561L963.916,1811.347C959.395,1815.658 954.257,1817.814 948.502,1817.814C942.748,1817.814 937.61,1815.838 933.088,1811.886L912.742,1794.1C911.098,1792.663 909.659,1791.226 908.426,1789.789C907.193,1788.351 906.268,1786.824 905.651,1785.208C905.035,1783.591 904.727,1781.884 904.727,1780.087C904.727,1775.057 907.193,1770.566 912.125,1766.614L931.239,1749.367C934.527,1746.133 938.637,1743.798 943.57,1742.361C944.803,1742.001 945.831,1741.822 946.653,1741.822L950.969,1741.822C951.38,1741.822 951.585,1741.911 951.585,1742.091C951.585,1742.271 951.791,1742.361 952.202,1742.361ZM948.502,1838.834C954.257,1838.834 959.395,1840.81 963.916,1844.762C968.438,1848.714 970.699,1853.385 970.699,1858.775L970.699,2114.779C970.699,2120.168 968.438,2124.839 963.916,2128.791C959.395,2132.744 954.257,2134.72 948.502,2134.72C942.748,2134.72 937.61,2132.744 933.088,2128.791C928.567,2124.839 926.306,2120.168 926.306,2114.779L926.306,1858.775C926.306,1856.26 926.923,1853.745 928.156,1851.23C929.389,1848.714 931.033,1846.559 933.088,1844.762C933.91,1844.043 934.938,1843.325 936.171,1842.606C937.404,1841.888 938.637,1841.259 939.871,1840.72C941.104,1840.181 942.44,1839.732 943.878,1839.373C945.317,1839.013 946.858,1838.834 948.502,1838.834Z" style="fill:rgb(255,249,191);fill-rule:nonzero;"/>
            <path d="M1147.158,1838.834C1152.913,1838.834 1158.051,1840.81 1162.572,1844.762C1167.093,1848.714 1169.354,1853.385 1169.354,1858.775L1169.354,1866.859L1173.67,1863.625C1175.314,1862.188 1177.164,1860.931 1179.219,1859.853L1220.529,1842.067C1222.995,1840.989 1225.461,1840.091 1227.927,1839.373C1228.749,1839.013 1229.571,1838.834 1230.394,1838.834L1293.283,1838.834C1296.982,1838.834 1300.681,1839.911 1304.381,1842.067L1345.69,1859.853C1347.745,1860.571 1349.595,1861.829 1351.239,1863.625L1393.165,1900.274C1394.81,1901.712 1396.454,1903.688 1398.098,1906.203C1398.509,1906.562 1398.714,1906.922 1398.714,1907.281L1419.061,1960.637C1420.294,1963.512 1420.911,1966.207 1420.911,1968.722L1420.911,2008.335C1420.911,2008.874 1420.808,2009.413 1420.602,2009.952C1420.397,2010.491 1420.088,2010.94 1419.677,2011.299L1398.714,2066.273C1397.481,2069.866 1395.426,2072.74 1392.549,2074.896L1351.239,2110.467C1350.828,2110.826 1350.314,2111.186 1349.698,2111.545C1349.081,2111.904 1348.465,2112.353 1347.848,2112.892C1347.232,2113.431 1346.512,2113.701 1345.69,2113.701L1304.997,2132.025C1301.298,2133.822 1297.393,2134.72 1293.283,2134.72L1230.394,2134.72C1228.749,2134.72 1227.002,2134.45 1225.153,2133.911C1223.303,2133.373 1221.556,2132.744 1219.912,2132.025L1179.219,2113.701L1173.67,2110.467L1169.354,2106.694L1169.354,2243.589C1169.354,2248.978 1167.093,2253.649 1162.572,2257.602C1158.051,2261.195 1152.913,2262.991 1147.158,2262.991C1141.403,2262.991 1136.265,2261.015 1131.744,2257.063C1127.223,2253.11 1124.962,2248.619 1124.962,2243.589L1124.962,1858.775C1124.962,1856.26 1125.578,1853.745 1126.812,1851.23C1128.045,1848.714 1129.689,1846.559 1131.744,1844.762C1132.566,1844.043 1133.594,1843.325 1134.827,1842.606C1136.06,1841.888 1137.293,1841.259 1138.526,1840.72C1139.759,1840.181 1141.095,1839.732 1142.534,1839.373C1143.972,1839.013 1145.514,1838.834 1147.158,1838.834ZM1236.559,1878.716L1202.648,1893.268L1169.354,1921.833L1169.354,2052.799L1202.648,2080.824L1236.559,2095.915L1288.35,2095.915L1322.261,2080.824L1358.021,2049.026L1375.902,2002.137L1375.902,1971.417L1358.021,1924.527L1322.261,1893.268L1288.35,1878.716L1236.559,1878.716Z" style="fill:rgb(255,249,191);fill-rule:nonzero;"/>
        </g>
    </g>
</svg>
